<svg width="170" height="75" viewBox="0 0 170 75" fill="none" xmlns="http://www.w3.org/2000/svg">
<g clip-path="url(#clip0_2792_10027)">
<path fill-rule="evenodd" clip-rule="evenodd" d="M49 3C49 1.89543 48.1046 1 47 1H44C42.8954 1 42 1.89543 42 3V6C42 7.10457 42.8954 8 44 8H47C48.1046 8 49 7.10457 49 6V3Z" fill="#FF5154"/>
<path fill-rule="evenodd" clip-rule="evenodd" d="M40 6C40 4.89543 39.1046 4 38 4H35C33.8954 4 33 4.89543 33 6V9C33 10.1046 33.8954 11 35 11H38C39.1046 11 40 10.1046 40 9V6Z" fill="#FF5154"/>
<path fill-rule="evenodd" clip-rule="evenodd" d="M58 14C58 15.1046 57.1046 16 56 16H53C51.8954 16 51 15.1046 51 14V8C51 6.89543 51.8954 6 53 6H56C57.1046 6 58 6.89543 58 8V14Z" fill="#FF5154"/>
<path fill-rule="evenodd" clip-rule="evenodd" d="M76 11C76 9.89543 75.1046 9 74 9H71C69.8954 9 69 9.89543 69 11V35C69 36.1046 69.8954 37 71 37H74C75.1046 37 76 36.1046 76 35V11Z" fill="#FF5154"/>
<path fill-rule="evenodd" clip-rule="evenodd" d="M94 38C94 36.8954 93.1046 36 92 36H89C87.8954 36 87 36.8954 87 38V42C87 43.1046 87.8954 44 89 44H92C93.1046 44 94 43.1046 94 42V38Z" fill="#FF5154"/>
<path fill-rule="evenodd" clip-rule="evenodd" d="M103 46C103 45.4477 102.552 45 102 45H97C96.4477 45 96 45.4477 96 46C96 46.5523 96.4477 47 97 47H102C102.552 47 103 46.5523 103 46Z" fill="#FF5154"/>
<path fill-rule="evenodd" clip-rule="evenodd" d="M112 38C112 36.8954 111.105 36 110 36H107C105.895 36 105 36.8954 105 38V57C105 58.1046 105.895 59 107 59H110C111.105 59 112 58.1046 112 57V38Z" fill="#FF5154"/>
<path fill-rule="evenodd" clip-rule="evenodd" d="M121 58C121 56.8954 120.105 56 119 56H116C114.895 56 114 56.8954 114 58V86C114 87.1046 114.895 88 116 88H119C120.105 88 121 87.1046 121 86V58Z" fill="#FF5154"/>
<path fill-rule="evenodd" clip-rule="evenodd" d="M148 41C148 42.1046 147.105 43 146 43H143C141.895 43 141 42.1046 141 41V32C141 30.8954 141.895 30 143 30H146C147.105 30 148 30.8954 148 32V41Z" fill="#FF5154"/>
<path fill-rule="evenodd" clip-rule="evenodd" d="M175 41C175 39.8954 174.105 39 173 39H170C168.895 39 168 39.8954 168 41V107C168 108.105 168.895 109 170 109H173C174.105 109 175 108.105 175 107V41Z" fill="#FF5154"/>
<rect width="7" height="2" rx="1" transform="matrix(-1 0 0 1 4 9)" fill="#00D59B"/>
<rect width="7" height="1" rx="0.5" transform="matrix(-1 0 0 1 13 7)" fill="#00D59B"/>
<rect width="7" height="7" rx="2" transform="matrix(-1 0 0 1 22 1)" fill="#00D59B"/>
<rect width="7" height="1" rx="0.5" transform="matrix(-1 0 0 1 31 0)" fill="#00D59B"/>
<rect width="7" height="15" rx="2" transform="matrix(-1 0 0 1 67 4)" fill="#00D59B"/>
<rect width="7" height="18" rx="2" transform="matrix(-1 0 0 1 85 23)" fill="#00D59B"/>
<rect width="7" height="20" rx="2" transform="matrix(-1 0 0 1 130 53)" fill="#00D59B"/>
<rect width="7" height="12" rx="2" transform="matrix(-1 0 0 1 139 41)" fill="#00D59B"/>
<rect width="7" height="3" rx="1.5" transform="matrix(-1 0 0 1 157 37)" fill="#00D59B"/>
<rect width="7" height="50" rx="2" transform="matrix(-1 0 0 1 166 36)" fill="#00D59B"/>
</g>
<defs>
<clipPath id="clip0_2792_10027">
<rect width="170" height="75" fill="white"/>
</clipPath>
</defs>
</svg>
