<svg width="170" height="75" viewBox="0 0 170 75" fill="none" xmlns="http://www.w3.org/2000/svg">
<g clip-path="url(#clip0_2792_10115)">
<path fill-rule="evenodd" clip-rule="evenodd" d="M168 20.5C168 20.2239 168.224 20 168.5 20H174.5C174.776 20 175 20.2239 175 20.5C175 20.7761 174.776 21 174.5 21H168.5C168.224 21 168 20.7761 168 20.5Z" fill="#FF5154"/>
<path fill-rule="evenodd" clip-rule="evenodd" d="M150 18C150 16.8954 150.895 16 152 16H155C156.105 16 157 16.8954 157 18V26C157 27.1046 156.105 28 155 28H152C150.895 28 150 27.1046 150 26V18Z" fill="#FF5154"/>
<path fill-rule="evenodd" clip-rule="evenodd" d="M96 12C96 10.8954 96.8954 10 98 10H101C102.105 10 103 10.8954 103 12V15C103 16.1046 102.105 17 101 17H98C96.8954 17 96 16.1046 96 15V12Z" fill="#FF5154"/>
<path fill-rule="evenodd" clip-rule="evenodd" d="M87 23C87 24.1046 87.8954 25 89 25H92C93.1046 25 94 24.1046 94 23V17C94 15.8954 93.1046 15 92 15H89C87.8954 15 87 15.8954 87 17V23Z" fill="#FF5154"/>
<path fill-rule="evenodd" clip-rule="evenodd" d="M69 20C69 18.8954 69.8954 18 71 18H74C75.1046 18 76 18.8954 76 20V44C76 45.1046 75.1046 46 74 46H71C69.8954 46 69 45.1046 69 44V20Z" fill="#FF5154"/>
<path fill-rule="evenodd" clip-rule="evenodd" d="M51 47C51 45.8954 51.8954 45 53 45H56C57.1046 45 58 45.8954 58 47V51C58 52.1046 57.1046 53 56 53H53C51.8954 53 51 52.1046 51 51V47Z" fill="#FF5154"/>
<path fill-rule="evenodd" clip-rule="evenodd" d="M42 55C42 54.4477 42.4477 54 43 54H48C48.5523 54 49 54.4477 49 55C49 55.5523 48.5523 56 48 56H43C42.4477 56 42 55.5523 42 55Z" fill="#FF5154"/>
<path fill-rule="evenodd" clip-rule="evenodd" d="M33 47C33 45.8954 33.8954 45 35 45H38C39.1046 45 40 45.8954 40 47V66C40 67.1046 39.1046 68 38 68H35C33.8954 68 33 67.1046 33 66V47Z" fill="#FF5154"/>
<path fill-rule="evenodd" clip-rule="evenodd" d="M24 67C24 65.8954 24.8954 65 26 65H29C30.1046 65 31 65.8954 31 67V95C31 96.1046 30.1046 97 29 97H26C24.8954 97 24 96.1046 24 95V67Z" fill="#FF5154"/>
<path fill-rule="evenodd" clip-rule="evenodd" d="M-3 50C-3 51.1046 -2.10457 52 -1 52H2C3.10457 52 4 51.1046 4 50V41C4 39.8954 3.10457 39 2 39H-1C-2.10457 39 -3 39.8954 -3 41V50Z" fill="#FF5154"/>
<rect x="159" y="16" width="7" height="3" rx="1.5" fill="#00D59B"/>
<rect x="141" y="18" width="7" height="2" rx="1" fill="#00D59B"/>
<rect x="132" y="16" width="7" height="1" rx="0.5" fill="#00D59B"/>
<rect x="123" y="10" width="7" height="7" rx="2" fill="#00D59B"/>
<rect x="114" y="9" width="7" height="1" rx="0.5" fill="#00D59B"/>
<rect width="7" height="8" rx="2" transform="matrix(1 0 0 -1 105 9)" fill="#00D59B"/>
<rect x="78" y="13" width="7" height="15" rx="2" fill="#00D59B"/>
<rect x="60" y="32" width="7" height="18" rx="2" fill="#00D59B"/>
<rect x="15" y="62" width="7" height="20" rx="2" fill="#00D59B"/>
<rect x="6" y="50" width="7" height="12" rx="2" fill="#00D59B"/>
</g>
<defs>
<clipPath id="clip0_2792_10115">
<rect width="170" height="75" fill="white"/>
</clipPath>
</defs>
</svg>
