<svg width="170" height="75" viewBox="0 0 170 75" fill="none" xmlns="http://www.w3.org/2000/svg">
<g clip-path="url(#clip0_2792_9983)">
<path fill-rule="evenodd" clip-rule="evenodd" d="M110 29C110 27.8954 110.895 27 112 27H115C116.105 27 117 27.8954 117 29V30C117 31.1046 116.105 32 115 32H112C110.895 32 110 31.1046 110 30V29Z" fill="#FF5154"/>
<path fill-rule="evenodd" clip-rule="evenodd" d="M101 26.5C101 26.7761 101.224 27 101.5 27H107.5C107.776 27 108 26.7761 108 26.5C108 26.2239 107.776 26 107.5 26H101.5C101.224 26 101 26.2239 101 26.5Z" fill="#FF5154"/>
<path fill-rule="evenodd" clip-rule="evenodd" d="M83 29C83 30.1046 83.8954 31 85 31H88C89.1046 31 90 30.1046 90 29V21C90 19.8954 89.1046 19 88 19H85C83.8954 19 83 19.8954 83 21V29Z" fill="#FF5154"/>
<path fill-rule="evenodd" clip-rule="evenodd" d="M29 35C29 36.1046 29.8954 37 31 37H34C35.1046 37 36 36.1046 36 35V32C36 30.8954 35.1046 30 34 30H31C29.8954 30 29 30.8954 29 32V35Z" fill="#FF5154"/>
<path fill-rule="evenodd" clip-rule="evenodd" d="M20 24C20 22.8954 20.8954 22 22 22H25C26.1046 22 27 22.8954 27 24V30C27 31.1046 26.1046 32 25 32H22C20.8954 32 20 31.1046 20 30V24Z" fill="#FF5154"/>
<path fill-rule="evenodd" clip-rule="evenodd" d="M2 27C2 28.1046 2.89543 29 4 29H7C8.10457 29 9 28.1046 9 27V3C9 1.89543 8.10457 1 7 1H4C2.89543 1 2 1.89543 2 3V27Z" fill="#FF5154"/>
<rect width="7" height="1" rx="0.5" transform="matrix(1 0 0 -1 164 36)" fill="#00D59B"/>
<rect width="7" height="6" rx="2" transform="matrix(1 0 0 -1 155 35)" fill="#00D59B"/>
<rect width="7" height="7" rx="2" transform="matrix(1 0 0 -1 146 37)" fill="#00D59B"/>
<rect x="137" y="38" width="7" height="3" rx="1.5" fill="#00D59B"/>
<rect width="7" height="1" rx="0.5" transform="matrix(1 0 0 -1 128 37)" fill="#00D59B"/>
<rect width="7" height="4" rx="2" transform="matrix(1 0 0 -1 119 37)" fill="#00D59B"/>
<rect width="7" height="3" rx="1.5" transform="matrix(1 0 0 -1 92 31)" fill="#00D59B"/>
<rect width="7" height="2" rx="1" transform="matrix(1 0 0 -1 74 29)" fill="#00D59B"/>
<rect width="7" height="1" rx="0.5" transform="matrix(1 0 0 -1 65 31)" fill="#00D59B"/>
<rect width="7" height="7" rx="2" transform="matrix(1 0 0 -1 56 37)" fill="#00D59B"/>
<rect width="7" height="1" rx="0.5" transform="matrix(1 0 0 -1 47 38)" fill="#00D59B"/>
<rect x="38" y="38" width="7" height="8" rx="2" fill="#00D59B"/>
<rect width="7" height="15" rx="2" transform="matrix(1 0 0 -1 11 34)" fill="#00D59B"/>
</g>
<defs>
<clipPath id="clip0_2792_9983">
<rect width="170" height="75" fill="white"/>
</clipPath>
</defs>
</svg>
