<svg width="30" height="30" viewBox="0 0 30 30" fill="none" xmlns="http://www.w3.org/2000/svg">
<path fill-rule="evenodd" clip-rule="evenodd" d="M24.9949 7.82373C24.9037 6.24892 23.5977 5 22 5H12L11.8237 5.00509C10.2489 5.09634 9 6.40232 9 8V9H8C6.34315 9 5 10.3431 5 12V22C5 23.6569 6.34315 25 8 25H18C19.6569 25 21 23.6569 21 22V21H22L22.1763 20.9949C23.7511 20.9037 25 19.5977 25 18V8L24.9949 7.82373ZM21 19H22C22.5128 19 22.9355 18.614 22.9933 18.1166L23 18V8C23 7.48716 22.614 7.06449 22.1166 7.00673L22 7H12C11.4872 7 11.0645 7.38604 11.0067 7.88338L11 8V9H18C19.6569 9 21 10.3431 21 12V19ZM8 11H18C18.5523 11 19 11.4477 19 12V22C19 22.5523 18.5523 23 18 23H8C7.44772 23 7 22.5523 7 22V12C7 11.4477 7.44772 11 8 11Z" fill="white"/>
</svg>
