<svg width="29" height="28" viewBox="0 0 29 28" fill="none" xmlns="http://www.w3.org/2000/svg">
<g filter="url(#filter0_d_2479_4318)">
<path fill-rule="evenodd" clip-rule="evenodd" d="M4 13C4 12.4477 4.44772 12 5 12H8C8.55228 12 9 12.4477 9 13V19C9 19.5523 8.55228 20 8 20H5C4.44772 20 4 19.5523 4 19V13Z" fill="white"/>
<path fill-rule="evenodd" clip-rule="evenodd" d="M12 1C12 0.447716 12.4477 0 13 0H16C16.5523 0 17 0.447715 17 1V19C17 19.5523 16.5523 20 16 20H13C12.4477 20 12 19.5523 12 19V1Z" fill="white"/>
<path fill-rule="evenodd" clip-rule="evenodd" d="M20 7C20 6.44772 20.4477 6 21 6H24C24.5523 6 25 6.44772 25 7V19C25 19.5523 24.5523 20 24 20H21C20.4477 20 20 19.5523 20 19V7Z" fill="white"/>
</g>
<defs>
<filter id="filter0_d_2479_4318" x="0" y="0" width="29" height="28" filterUnits="userSpaceOnUse" color-interpolation-filters="sRGB">
<feFlood flood-opacity="0" result="BackgroundImageFix"/>
<feColorMatrix in="SourceAlpha" type="matrix" values="0 0 0 0 0 0 0 0 0 0 0 0 0 0 0 0 0 0 127 0" result="hardAlpha"/>
<feOffset dy="4"/>
<feGaussianBlur stdDeviation="2"/>
<feComposite in2="hardAlpha" operator="out"/>
<feColorMatrix type="matrix" values="0 0 0 0 0 0 0 0 0 0 0 0 0 0 0 0 0 0 0.25 0"/>
<feBlend mode="normal" in2="BackgroundImageFix" result="effect1_dropShadow_2479_4318"/>
<feBlend mode="normal" in="SourceGraphic" in2="effect1_dropShadow_2479_4318" result="shape"/>
</filter>
</defs>
</svg>
