<svg width="150" height="32" viewBox="0 0 150 32" fill="none" xmlns="http://www.w3.org/2000/svg">
<path d="M51.6167 24.017C52.8411 24.017 53.8352 23.8822 54.599 23.6126C56.048 23.0959 56.7725 22.1355 56.7725 20.7315C56.7725 19.9115 56.4131 19.2768 55.6942 18.8275C54.9753 18.3894 53.8464 18.0019 52.3076 17.6649L49.6791 17.0752C47.0956 16.4911 45.3096 15.8565 44.3211 15.1713C42.6475 14.0255 41.8106 12.2339 41.8106 9.79644C41.8106 7.57237 42.6194 5.7246 44.2369 4.25312C45.8544 2.78164 48.2301 2.0459 51.364 2.0459C53.9812 2.0459 56.2109 2.74232 58.0531 4.13518C59.9065 5.51679 60.8781 7.52744 60.968 10.1671H55.9806C55.8908 8.67318 55.2393 7.61169 54.0262 6.98266C53.2174 6.56705 52.2121 6.35924 51.0102 6.35924C49.6735 6.35924 48.6064 6.62883 47.8089 7.168C47.0114 7.70717 46.6126 8.45975 46.6126 9.42576C46.6126 10.3131 47.0057 10.9759 47.792 11.4139C48.2975 11.706 49.3758 12.0486 51.027 12.4417L55.3067 13.4695C57.1825 13.9188 58.5979 14.5198 59.5526 15.2724C61.0353 16.4406 61.7767 18.1311 61.7767 20.3439C61.7767 22.6129 60.9062 24.5 59.1651 26.0052C57.4353 27.4991 54.9866 28.2461 51.8189 28.2461C48.5839 28.2461 46.0397 27.5104 44.1863 26.0389C42.3329 24.5562 41.4062 22.5231 41.4062 19.9395H46.3599C46.5171 21.074 46.826 21.9221 47.2866 22.4837C48.129 23.5059 49.5724 24.017 51.6167 24.017Z" fill="white"/>
<path d="M89.7798 2.77041H95.0535L88.0612 27.6058H83.1075L80.1084 13.082L79.2323 8.28003L78.3561 13.082L75.357 27.6058H70.5382L63.4953 2.77041H69.0049L72.2905 16.991L72.9981 20.9505L73.7227 17.0752L76.5196 2.77041H81.9955L84.9441 16.991L85.7023 20.9505L86.4605 17.1426L89.7798 2.77041Z" fill="white"/>
<path d="M97.7999 2.77041H102.956V27.6058H97.7999V2.77041Z" fill="white"/>
<path d="M116.822 24.017C118.047 24.017 119.041 23.8822 119.805 23.6126C121.254 23.0959 121.978 22.1355 121.978 20.7315C121.978 19.9115 121.619 19.2768 120.9 18.8275C120.181 18.3894 119.052 18.0019 117.513 17.6649L114.885 17.0752C112.301 16.4911 110.515 15.8565 109.527 15.1713C107.853 14.0255 107.016 12.2339 107.016 9.79644C107.016 7.57237 107.825 5.7246 109.443 4.25312C111.06 2.78164 113.436 2.0459 116.57 2.0459C119.187 2.0459 121.417 2.74232 123.259 4.13518C125.112 5.51679 126.084 7.52744 126.174 10.1671H121.186C121.096 8.67318 120.445 7.61169 119.232 6.98266C118.423 6.56705 117.418 6.35924 116.216 6.35924C114.879 6.35924 113.812 6.62883 113.015 7.168C112.217 7.70717 111.818 8.45975 111.818 9.42576C111.818 10.3131 112.211 10.9759 112.998 11.4139C113.503 11.706 114.581 12.0486 116.233 12.4417L120.512 13.4695C122.388 13.9188 123.804 14.5198 124.758 15.2724C126.241 16.4406 126.982 18.1311 126.982 20.3439C126.982 22.6129 126.112 24.5 124.371 26.0052C122.641 27.4991 120.192 28.2461 117.025 28.2461C113.79 28.2461 111.245 27.5104 109.392 26.0389C107.539 24.5562 106.612 22.5231 106.612 19.9395H111.566C111.723 21.074 112.032 21.9221 112.492 22.4837C113.335 23.5059 114.778 24.017 116.822 24.017Z" fill="white"/>
<path d="M139.838 24.017C141.063 24.017 142.057 23.8822 142.82 23.6126C144.269 23.0959 144.994 22.1355 144.994 20.7315C144.994 19.9115 144.635 19.2768 143.916 18.8275C143.197 18.3894 142.068 18.0019 140.529 17.6649L137.901 17.0752C135.317 16.4911 133.531 15.8565 132.543 15.1713C130.869 14.0255 130.032 12.2339 130.032 9.79644C130.032 7.57237 130.841 5.7246 132.458 4.25312C134.076 2.78164 136.452 2.0459 139.585 2.0459C142.203 2.0459 144.432 2.74232 146.274 4.13518C148.128 5.51679 149.1 7.52744 149.189 10.1671H144.202C144.112 8.67318 143.461 7.61169 142.248 6.98266C141.439 6.56705 140.433 6.35924 139.232 6.35924C137.895 6.35924 136.828 6.62883 136.03 7.168C135.233 7.70717 134.834 8.45975 134.834 9.42576C134.834 10.3131 135.227 10.9759 136.013 11.4139C136.519 11.706 137.597 12.0486 139.248 12.4417L143.528 13.4695C145.404 13.9188 146.819 14.5198 147.774 15.2724C149.257 16.4406 149.998 18.1311 149.998 20.3439C149.998 22.6129 149.128 24.5 147.387 26.0052C145.657 27.4991 143.208 28.2461 140.04 28.2461C136.805 28.2461 134.261 27.5104 132.408 26.0389C130.554 24.5562 129.628 22.5231 129.628 19.9395H134.581C134.739 21.074 135.047 21.9221 135.508 22.4837C136.35 23.5059 137.794 24.017 139.838 24.017Z" fill="white"/>
<path d="M0 0H31.8524V31.8524H0V0Z" fill="#EA3324"/>
</svg>
