<svg width="24" height="24" viewBox="0 0 24 24" fill="none" xmlns="http://www.w3.org/2000/svg">
<path fill-rule="evenodd" clip-rule="evenodd" d="M11.7791 2.46963L17.0228 7.71327C17.1679 7.85414 17.2497 8.04778 17.2495 8.25C17.2495 8.25264 17.2493 8.25522 17.2491 8.25781L17.2488 8.26451V11.0045C13.7744 11.1254 10.9939 13.7635 10.998 17.0002L10.998 17.0137C10.9999 18.5108 11.0022 20.3168 12.3999 21.7476C12.5147 21.7476 12.6283 21.7485 12.7408 21.75H2.24805C1.42001 21.7491 0.748994 21.078 0.748047 20.25V3.75C0.748994 2.92197 1.42001 2.25095 2.24805 2.25H11.2488C11.2738 2.25 11.2988 2.25127 11.3237 2.2538C11.3407 2.25546 11.3572 2.25834 11.3739 2.26123L11.3739 2.26124L11.3761 2.26163L11.3849 2.2629L11.3849 2.2629C11.3887 2.26342 11.3926 2.26393 11.3965 2.26469C11.4175 2.2689 11.4381 2.27435 11.4584 2.28025L11.4626 2.28134L11.4674 2.28259C11.4879 2.28882 11.5079 2.29623 11.5276 2.30415L11.5316 2.3056L11.5364 2.30736C11.5547 2.315 11.5725 2.3237 11.5901 2.33276L11.5959 2.33555L11.596 2.33555C11.5983 2.33662 11.6006 2.33768 11.6029 2.3389C11.6185 2.34727 11.6333 2.35661 11.6482 2.366L11.6559 2.37062C11.6593 2.37262 11.6628 2.37463 11.6661 2.37685C11.677 2.38421 11.6874 2.39222 11.6978 2.40022L11.6978 2.40023L11.7033 2.4044L11.7121 2.41091C11.7165 2.4141 11.7209 2.41729 11.7251 2.42075C11.7329 2.42716 11.7403 2.43404 11.7477 2.44093L11.7477 2.44093L11.7477 2.44095L11.7557 2.44839L11.7645 2.45619C11.7694 2.46055 11.7744 2.46491 11.7791 2.46963ZM15.8807 21.75C15.3183 21.83 14.61 21.806 13.8075 21.7787C13.4675 21.7671 13.1106 21.755 12.7408 21.75H15.8807ZM15.8807 21.75C16.7141 21.6314 17.2271 21.2842 17.2512 20.38C17.2568 20.532 17.2712 20.6776 17.2847 20.8133C17.3392 21.3621 17.3776 21.7493 16.7488 21.75H15.8807ZM17.2512 20.38C17.2496 20.3372 17.2487 20.2938 17.2488 20.25V11.0045C17.2499 11.0045 17.251 11.0044 17.2521 11.0044V20.3125C17.2521 20.3354 17.2518 20.3578 17.2512 20.38ZM3.90438 17.4987H7.47775C7.84779 17.4987 8.14776 17.1687 8.14776 16.7617C8.14776 16.3547 7.84779 16.0247 7.47775 16.0247H3.90438C3.53435 16.0247 3.23438 16.3547 3.23438 16.7617C3.23438 17.1687 3.53435 17.4987 3.90438 17.4987ZM7.47775 13.4932H3.90438C3.53435 13.4932 3.23438 13.1633 3.23438 12.7562C3.23438 12.3492 3.53435 12.0192 3.90438 12.0192H7.47775C7.84779 12.0192 8.14776 12.3492 8.14776 12.7562C8.14776 13.1633 7.84779 13.4932 7.47775 13.4932ZM3.90438 9.48683H7.47775C7.84779 9.48683 8.14776 9.15686 8.14776 8.74982C8.14776 8.34278 7.84779 8.01281 7.47775 8.01281H3.90438C3.53435 8.01281 3.23438 8.34278 3.23438 8.74982C3.23438 9.15686 3.53435 9.48683 3.90438 9.48683ZM14.0539 9.48683H10.4806C10.1105 9.48683 9.81055 9.15686 9.81055 8.74982C9.81055 8.34278 10.1105 8.01281 10.4806 8.01281H14.0539C14.424 8.01281 14.7239 8.34278 14.7239 8.74982C14.7239 9.15686 14.424 9.48683 14.0539 9.48683Z" fill="#11C8D0"/>
<path fill-rule="evenodd" clip-rule="evenodd" d="M18 23.4076C21.3137 23.4076 24 20.8539 24 17.7038C24 14.5537 21.3137 12 18 12C14.6863 12 12 14.5537 12 17.7038C12 20.8539 14.6863 23.4076 18 23.4076ZM18.2382 16.9795C18.5213 17.0947 18.805 17.2101 19.0736 17.3564C20.0398 17.8826 20.2997 19.0781 19.6173 19.8949C19.3718 20.1903 19.0529 20.3882 18.6782 20.4887C18.5928 20.5118 18.4949 20.5271 18.4949 20.5271V20.7807C18.4949 20.7807 18.4933 21.109 18.4933 21.2723C18.4933 21.4184 18.4183 21.497 18.2717 21.5001C18.0931 21.5048 17.8683 21.5082 17.6897 21.5051C17.5319 21.502 17.4585 21.414 17.4569 21.2632C17.4561 21.2035 17.4557 21.1434 17.4553 21.0833C17.4549 21.0232 17.4545 20.9631 17.4537 20.9035C17.4521 20.7661 17.4537 20.6163 17.4537 20.6163C17.4537 20.6163 17.3082 20.6073 17.1843 20.5877C16.8542 20.5359 16.5306 20.462 16.2276 20.3175C15.9901 20.2028 15.9646 20.1447 16.0331 19.8996L16.0331 19.8996C16.0842 19.7174 16.1352 19.5352 16.1926 19.3545C16.2595 19.1456 16.3169 19.1189 16.513 19.2194C16.8479 19.3907 17.2034 19.4865 17.5749 19.5321C17.8157 19.5619 18.05 19.5383 18.2717 19.4425C18.6862 19.2634 18.75 18.7906 18.4008 18.5063C18.2828 18.4089 18.1473 18.3382 18.0054 18.2769C17.8898 18.2265 17.7726 18.18 17.6555 18.1335C17.4043 18.0339 17.1534 17.9344 16.9196 17.7962C16.3632 17.4679 16.0092 17.017 16.0507 16.3494C16.0969 15.5954 16.5316 15.1345 17.2321 14.8728C17.3071 14.8448 17.4168 14.808 17.4168 14.808C17.4168 14.808 17.4158 14.5633 17.4168 14.4876C17.4175 14.4438 17.4173 14.4003 17.4171 14.357C17.4169 14.2993 17.4166 14.2419 17.4184 14.1844C17.4248 13.9598 17.5717 13.9082 17.7981 13.9019C17.8449 13.9009 17.8917 13.9013 17.9384 13.9016C17.9618 13.9018 17.9852 13.9019 18.0086 13.9019C18.2524 13.9019 18.3736 13.9019 18.434 13.9625C18.4937 14.0224 18.4941 14.1414 18.4949 14.3779C18.4956 14.529 18.4949 14.7182 18.4949 14.7182C18.4949 14.7182 18.6491 14.7404 18.8377 14.7691C19.0991 14.8099 19.3479 14.8853 19.5902 14.9906C19.7225 15.0487 19.7736 15.1398 19.7321 15.2781C19.7096 15.3524 19.688 15.427 19.6664 15.5016C19.6281 15.6333 19.5899 15.765 19.5472 15.8954C19.4834 16.0886 19.4212 16.1169 19.2331 16.0274C18.8552 15.8483 18.4582 15.7729 18.0405 15.7949C17.932 15.8012 17.8252 15.8153 17.7232 15.8593C17.3629 16.0148 17.3039 16.4075 17.6116 16.6495C17.7678 16.772 17.9448 16.86 18.1298 16.9354C18.1659 16.9501 18.202 16.9648 18.2382 16.9795Z" fill="#11C8D0"/>
</svg>
