<svg width="22" height="17" viewBox="0 0 22 17" fill="none" xmlns="http://www.w3.org/2000/svg">
<path fill-rule="evenodd" clip-rule="evenodd" d="M18.3284 0.550182C17.6985 -0.0797826 16.6213 0.366385 16.6213 1.25729L16.6213 3.49993L6.72184 3.49993C6.16956 3.49993 5.72184 3.94765 5.72184 4.49993C5.72184 5.00973 6.10332 5.43043 6.5964 5.49214L6.72184 5.49993L16.6213 5.49993L16.6213 7.74257C16.6213 8.63348 17.6985 9.07964 18.3284 8.44968L21.5711 5.20704C21.9616 4.81651 21.9616 4.18335 21.5711 3.79282L18.3284 0.550182ZM16.2782 12.4999C16.2782 11.9476 15.8305 11.4999 15.2782 11.4999L5.37869 11.4999L5.37869 9.25729C5.37869 8.36638 4.30155 7.92022 3.67159 8.55018L0.428947 11.7928C0.038423 12.1833 0.0384227 12.8165 0.428947 13.207L3.67159 16.4497C4.30155 17.0796 5.37869 16.6335 5.37869 15.7426L5.37869 13.4999L15.2782 13.4999L15.4036 13.4921C15.8967 13.4304 16.2782 13.0097 16.2782 12.4999Z" fill="white"/>
</svg>
