<svg width="24" height="16" viewBox="0 0 24 16" fill="none" xmlns="http://www.w3.org/2000/svg">
<path fill-rule="evenodd" clip-rule="evenodd" d="M13.9999 0C13.4476 0 12.9999 0.447715 12.9999 1V2H1.49991L1.38329 2.00673C0.885949 2.06449 0.499908 2.48716 0.499908 3C0.499908 3.55228 0.947624 4 1.49991 4H12.9999V5C12.9999 5.55228 13.4476 6 13.9999 6H17.9999C18.5522 6 18.9999 5.55228 18.9999 5V4H22.4999L22.6165 3.99327C23.1139 3.93551 23.4999 3.51284 23.4999 3C23.4999 2.44772 23.0522 2 22.4999 2H18.9999V1C18.9999 0.447715 18.5522 0 17.9999 0H13.9999ZM5.99991 10C5.44762 10 4.99991 10.4477 4.99991 11V12H1.49991L1.38329 12.0067C0.885949 12.0645 0.499908 12.4872 0.499908 13C0.499908 13.5523 0.947624 14 1.49991 14H4.99991V15C4.99991 15.5523 5.44762 16 5.99991 16H9.99991C10.5522 16 10.9999 15.5523 10.9999 15V14H22.4999L22.6165 13.9933C23.1139 13.9355 23.4999 13.5128 23.4999 13C23.4999 12.4477 23.0522 12 22.4999 12H10.9999V11C10.9999 10.4477 10.5522 10 9.99991 10H5.99991Z" fill="white"/>
</svg>
