<svg width="43" height="43" viewBox="0 0 43 43" fill="none" xmlns="http://www.w3.org/2000/svg">
<g id="icons/social/instagram">
<path id="Shape 34 copy 2" d="M21.9993 2.49477C32.7692 2.49477 41.5 11.2255 41.5 21.9953C41.5 32.7654 32.7692 41.4959 21.9993 41.4959C11.2294 41.4959 2.49868 32.7654 2.49868 21.9953C2.49868 11.2255 11.2294 2.49477 21.9993 2.49477Z" fill="#319BE2" fill-opacity="0.01" stroke="#319BE2"/>
<path id="Combined shape 3158" fill-rule="evenodd" clip-rule="evenodd" d="M17.199 11.2856H26.8005C30.0614 11.2856 32.7143 13.9386 32.7141 17.1991V26.8006C32.7141 30.0614 30.0614 32.7141 26.8005 32.7141H17.199C13.9383 32.7141 11.2856 30.0614 11.2856 26.8006V17.1991C11.2856 13.9386 13.9383 11.2856 17.199 11.2856ZM26.8007 30.8131C29.0131 30.8131 30.813 29.0133 30.813 26.8006H30.8129V17.1991C30.8129 14.9868 29.0129 13.1869 26.8005 13.1869H17.199C14.9867 13.1869 13.1869 14.9868 13.1869 17.1991V26.8006C13.1869 29.0133 14.9867 30.8131 17.199 30.8131H26.8007ZM16.4783 22.0003C16.4783 18.9555 18.9552 16.4786 21.9999 16.4786C25.0445 16.4786 27.5215 18.9555 27.5215 22.0003C27.5215 25.0448 25.0445 27.5215 21.9999 27.5215C18.9552 27.5215 16.4783 25.0448 16.4783 22.0003ZM18.3795 22C18.3795 23.9963 20.0037 25.6201 21.9999 25.6201C23.996 25.6201 25.6202 23.9963 25.6202 22C25.6202 20.0037 23.9962 18.3796 21.9999 18.3796C20.0035 18.3796 18.3795 20.0037 18.3795 22ZM26.7682 15.2746C27.0269 15.0148 27.3867 14.8665 27.7531 14.8665C28.1206 14.8665 28.4806 15.0148 28.7391 15.2746C28.999 15.533 29.1473 15.8931 29.1473 16.2606C29.1473 16.6268 28.999 16.987 28.7391 17.2468C28.4793 17.5055 28.1206 17.6549 27.7531 17.6549C27.3867 17.6549 27.0267 17.5055 26.7682 17.2468C26.5084 16.987 26.3588 16.6271 26.3588 16.2606C26.3588 15.8931 26.5082 15.533 26.7682 15.2746Z" fill="#319BE2"/>
</g>
</svg>
