<svg width="60" height="60" viewBox="0 0 60 60" fill="none" xmlns="http://www.w3.org/2000/svg">
<circle cx="30" cy="30" r="30" fill="#233A7D"/>
<path fill-rule="evenodd" clip-rule="evenodd" d="M18.9916 23.2897C18.9916 21.4683 20.4689 19.991 22.2889 19.991H23.7896C24.6587 19.991 25.4944 19.6468 26.1127 19.0329L27.1612 17.9829C28.446 16.6922 30.5344 16.6864 31.825 17.9712L31.8381 17.9829L32.8881 19.0329C33.505 19.6468 34.3406 19.991 35.2112 19.991H36.7104C38.5319 19.991 40.0092 21.4683 40.0092 23.2897V24.7874C40.0092 25.6595 40.3533 26.4937 40.9673 27.112L42.0173 28.162C43.3079 29.4468 43.3152 31.5337 42.0304 32.8258L42.0173 32.8389L40.9673 33.8889C40.3533 34.5043 40.0092 35.3414 40.0092 36.2106V37.7112C40.0092 39.5326 38.5319 41.0085 36.7104 41.0085H35.2112C34.3406 41.0085 33.505 41.3541 32.8881 41.9681L31.8381 43.0166C30.5548 44.3087 28.4664 44.3145 27.1744 43.0297C27.17 43.0254 27.1656 43.021 27.1612 43.0166L26.1127 41.9681C25.4944 41.3541 24.6587 41.0085 23.7896 41.0085H22.2889C20.4689 41.0085 18.9916 39.5326 18.9916 37.7112V36.2106C18.9916 35.3414 18.646 34.5043 18.0321 33.8889L16.9835 32.8389C15.6914 31.5541 15.6856 29.4658 16.9704 28.1751L16.9835 28.162L18.0321 27.112C18.646 26.4937 18.9916 25.6595 18.9916 24.7874V23.2897Z" fill="#319BE2" fill-opacity="0.1" stroke="#319BE2" stroke-width="1.5" stroke-linecap="round" stroke-linejoin="round"/>
<path d="M25.7521 34.2473L33.2479 26.7515" stroke="white" stroke-width="1.5" stroke-linecap="round" stroke-linejoin="round"/>
<path d="M33.243 35.3453C32.9514 35.3453 32.6743 35.2286 32.4701 35.0244C32.368 34.9224 32.2951 34.7911 32.2368 34.6599C32.1785 34.5286 32.1493 34.3988 32.1493 34.2515C32.1493 34.1057 32.1785 33.9599 32.2368 33.8286C32.2951 33.6974 32.368 33.5807 32.4701 33.4786C32.8785 33.0703 33.6076 33.0703 34.016 33.4786C34.118 33.5807 34.2055 33.6974 34.2639 33.8286C34.3076 33.9599 34.3368 34.1057 34.3368 34.2515C34.3368 34.3988 34.3076 34.5286 34.2639 34.6599C34.2055 34.7911 34.118 34.9224 34.016 35.0244C33.8118 35.2286 33.5347 35.3453 33.243 35.3453Z" fill="white"/>
<path d="M25.7471 27.8498C25.6012 27.8498 25.47 27.8192 25.3387 27.7608C25.2075 27.7025 25.0762 27.631 24.9742 27.529C24.8721 27.4123 24.7992 27.2956 24.7408 27.1644C24.6825 27.0317 24.6533 26.9019 24.6533 26.756C24.6533 26.6087 24.6825 26.4644 24.7408 26.3331C24.7992 26.2019 24.8721 26.0706 24.9742 25.9831C25.3971 25.5733 26.1117 25.5733 26.52 25.9831C26.7242 26.1858 26.8408 26.4644 26.8408 26.756C26.8408 26.9019 26.8262 27.0317 26.7679 27.1644C26.7096 27.2956 26.6221 27.4123 26.52 27.529C26.4179 27.631 26.3012 27.7025 26.17 27.7608C26.0387 27.8192 25.8929 27.8498 25.7471 27.8498Z" fill="white"/>
</svg>
