<svg width="60" height="60" viewBox="0 0 60 60" fill="none" xmlns="http://www.w3.org/2000/svg">
<circle cx="30" cy="30" r="30" fill="#233A7D"/>
<path d="M18.9999 32.4997V18.9997H18.823C23.6461 17.2879 26.9999 17.4997 31.4999 20.4997C35.8999 22.4997 39.6666 21.6664 40.9999 20.9997L41.9999 20.7115V34.4997C41.9999 33.9997 41.8999 33.3997 41.4999 34.9997C36.6999 37.3997 31.8332 34.9997 29.9999 33.4997L28.4999 32.4997L26.9999 31.9997H24.9999H22.9999L20.9999 32.4997H18.9999Z" fill="#319BE2" fill-opacity="0.1"/>
<path d="M42.4352 19.6995C42.1804 19.5484 41.8634 19.5484 41.6083 19.6995C40.0425 20.5778 38.2601 20.9957 36.4671 20.905C34.6741 20.814 32.943 20.2183 31.4741 19.1861C25.3286 15.1594 19.0427 17.9051 18.8105 18.024C18.5188 18.1524 18.3303 18.4405 18.3293 18.759V43.1893C18.3293 43.6371 18.6925 44 19.1401 44C19.5879 44 19.9508 43.6371 19.9508 43.1893V33.4604C21.4048 32.9795 26.0854 31.7634 30.5933 34.7091C32.3207 35.9155 34.3552 36.6069 36.4603 36.7026C38.5653 36.7983 40.6542 36.2943 42.4841 35.2496C42.717 35.1014 42.8577 34.8444 42.8572 34.5684V20.3914C42.8511 20.1019 42.6902 19.8377 42.4354 19.6997L42.4352 19.6995ZM41.2355 34.0766C39.6934 34.8437 37.973 35.1813 36.2555 35.0538C34.5377 34.9264 32.8861 34.3386 31.4741 33.3522C29.2935 31.925 26.7404 31.1731 24.1345 31.1903C22.7178 31.1915 21.309 31.3973 19.951 31.8012V19.3699C21.432 18.8185 26.1073 17.6132 30.5934 20.5481C32.1305 21.6149 33.9104 22.2793 35.7705 22.4803C37.6306 22.6816 39.5115 22.413 41.2411 21.6992L41.2355 34.0766Z" fill="#319BE2"/>
<path d="M24.5 25.4999C26.1667 25.4999 30.9977 24.9884 31.5 27.4999C32 29.9999 36.5 29.8332 38 29.4999" stroke="white" stroke-linecap="round"/>
</svg>
