<svg width="100%" height="100%" viewBox="0 0 380 109" fill="none" xmlns="http://www.w3.org/2000/svg">
<path d="M0 86.5182L17.0402 69.4354C20.148 66.3198 25.1336 66.1309 28.4683 69.0023L69.9967 104.761C72.9644 107.316 77.3041 107.482 80.4579 105.16L88.4731 99.2588C90.9223 97.4557 94.1547 97.1172 96.9243 98.3739L114.271 106.245C117.954 107.916 122.304 106.726 124.623 103.413L147.071 71.3471C150.061 67.076 155.733 65.6458 160.39 67.9881L189.694 82.7241C194.099 84.9397 199.453 83.7907 202.562 79.9625L226.211 50.8404C230.948 45.0067 240.101 45.8929 243.631 52.5271L266.104 94.7613C269.687 101.496 279.029 102.282 283.687 96.242L302.123 72.342C305.7 67.704 312.381 66.8899 316.967 70.5329L327.022 78.519C332.224 82.6509 339.907 80.9739 342.915 75.05L380 2" stroke="#06D49C" stroke-width="3" stroke-linecap="round"/>
</svg>
