<svg width="60" height="60" viewBox="0 0 60 60" fill="none" xmlns="http://www.w3.org/2000/svg">
<rect width="60" height="60" rx="15" fill="#F7931A"/>
<path fill-rule="evenodd" clip-rule="evenodd" d="M37.254 34.5619C37.0469 33.6366 36.4734 32.8 35.5335 32.0524C37.2031 31.9909 38.3414 31.096 38.9493 29.3679C39.1743 28.7434 39.2515 28.1472 39.1807 27.5783C39.1098 27.0093 38.9021 26.4815 38.5563 25.9943C38.2111 25.507 37.7948 25.0644 37.3089 24.6665C36.8228 24.2686 36.2372 23.8711 35.5522 23.4744L37.1523 20.043L35.063 19.0688L33.5074 22.4048C33.1456 22.2361 32.5896 21.9879 31.8395 21.6603L33.4079 18.297L31.3183 17.3226L29.7183 20.754C29.4154 20.6239 28.9746 20.424 28.3958 20.154L25.5259 18.7991L24.4845 21.0322L25.9905 21.7345C26.6779 22.055 26.9365 22.5514 26.7662 23.2234L24.9439 27.1315C25.0345 27.1737 25.1046 27.2121 25.1547 27.2465L24.9375 27.1452L22.3851 32.6188C22.097 33.048 21.7267 33.1573 21.2744 32.9464L19.7685 32.2442L18.1859 34.54L20.8995 35.8054C21.0714 35.8855 21.3189 36.0037 21.6427 36.1597C21.9662 36.3161 22.2092 36.4322 22.3721 36.5082L20.753 39.9804L22.8428 40.9549L24.4429 37.5235C24.8184 37.7099 25.368 37.9716 26.0916 38.3091L24.498 41.7267L26.5873 42.7009L28.2064 39.2288C28.9651 39.5385 29.6547 39.7776 30.2755 39.9451C30.8967 40.1127 31.5192 40.2127 32.1432 40.2438C32.7671 40.2751 33.3296 40.214 33.8305 40.0607C34.3314 39.9078 34.8113 39.6396 35.271 39.2571C35.7299 38.8742 36.1417 38.3754 36.5054 37.7602C37.2117 36.5538 37.461 35.4874 37.254 34.5619ZM30.7374 24.1299L30.7376 24.1299L28.7883 28.3101C28.8336 28.3313 28.9883 28.4063 29.2532 28.5353C29.5181 28.6643 29.7283 28.7623 29.8842 28.8295C30.04 28.8967 30.2705 28.9929 30.5754 29.1186C30.8803 29.2443 31.1406 29.3352 31.3566 29.3917C31.5724 29.4482 31.8286 29.5068 32.1249 29.5676C32.4212 29.6285 32.68 29.6469 32.9003 29.6226C33.1208 29.5985 33.3457 29.554 33.574 29.4891C33.8022 29.4243 34.0061 29.3065 34.1846 29.1356C34.3634 28.9647 34.512 28.7521 34.6305 28.4979C34.7702 28.1983 34.8374 27.9065 34.8322 27.6222C34.8272 27.3381 34.7783 27.0831 34.6852 26.8573C34.5924 26.6317 34.4347 26.4034 34.2118 26.1725C33.9893 25.9417 33.7753 25.7507 33.5704 25.5999C33.3654 25.4492 33.1043 25.2831 32.7869 25.102C32.4693 24.9207 32.2123 24.787 32.0157 24.7008C31.8191 24.6147 31.5729 24.5054 31.2766 24.3729C30.9807 24.2405 30.801 24.1595 30.7376 24.1299L30.7376 24.1299L30.7374 24.1298L30.7374 24.1299ZM31.5324 36.4531C31.74 36.3619 31.9354 36.2318 32.1189 36.0631C32.3024 35.8943 32.4531 35.6832 32.5718 35.4288C32.7242 35.1019 32.7919 34.7797 32.7744 34.4622C32.7574 34.1447 32.6874 33.8583 32.5647 33.6018C32.4418 33.3456 32.2461 33.0858 31.978 32.8227C31.7096 32.5593 31.4527 32.3374 31.2069 32.1564C30.9607 31.9752 30.645 31.7785 30.2599 31.566C29.8745 31.3529 29.5686 31.1939 29.3425 31.0885C29.1163 30.983 28.8228 30.8513 28.4611 30.6938C28.0994 30.5364 27.8825 30.4407 27.8102 30.407L25.664 35.0096C25.7364 35.0433 25.9026 35.1236 26.163 35.2502C26.4233 35.377 26.6393 35.4807 26.8111 35.5608C26.9829 35.641 27.226 35.7459 27.5397 35.8759C27.8537 36.0056 28.1266 36.1108 28.3587 36.1914C28.5912 36.272 28.8667 36.3538 29.1865 36.4365C29.5056 36.5188 29.7862 36.5727 30.0284 36.5968C30.2701 36.6211 30.5295 36.6263 30.806 36.6113C31.0825 36.5968 31.3248 36.5438 31.5324 36.4531Z" fill="white"/>
</svg>
