<svg width="24" height="24" viewBox="0 0 24 24" fill="none" xmlns="http://www.w3.org/2000/svg">
<g opacity="0.5">
<path fill-rule="evenodd" clip-rule="evenodd" d="M13.9999 4C13.4476 4 12.9999 4.44772 12.9999 5V6H1.49988L1.38326 6.00673C0.885918 6.06449 0.499878 6.48716 0.499878 7C0.499878 7.55228 0.947593 8 1.49988 8H12.9999V9C12.9999 9.55228 13.4476 10 13.9999 10H17.9999C18.5522 10 18.9999 9.55228 18.9999 9V8H22.4999L22.6165 7.99327C23.1138 7.93551 23.4999 7.51284 23.4999 7C23.4999 6.44772 23.0522 6 22.4999 6H18.9999V5C18.9999 4.44772 18.5522 4 17.9999 4H13.9999ZM5.99988 14C5.44759 14 4.99988 14.4477 4.99988 15V16H1.49988L1.38326 16.0067C0.885918 16.0645 0.499878 16.4872 0.499878 17C0.499878 17.5523 0.947593 18 1.49988 18H4.99988V19C4.99988 19.5523 5.44759 20 5.99988 20H9.99988C10.5522 20 10.9999 19.5523 10.9999 19V18H22.4999L22.6165 17.9933C23.1138 17.9355 23.4999 17.5128 23.4999 17C23.4999 16.4477 23.0522 16 22.4999 16H10.9999V15C10.9999 14.4477 10.5522 14 9.99988 14H5.99988Z" fill="white"/>
</g>
</svg>
