<svg width="24" height="24" viewBox="0 0 24 24" fill="none" xmlns="http://www.w3.org/2000/svg">
<g opacity="0.5">
<path fill-rule="evenodd" clip-rule="evenodd" d="M7.99988 16.0991L8.0814 16.0305L17.9016 16.0042C18.5226 16.0034 19.0258 15.5002 19.0266 14.8792V9H21.9015C22.5225 9.00081 23.0257 9.50401 23.0265 10.125V21.0462C23.029 21.4845 22.7745 21.8836 22.3761 22.0663C22.2265 22.1362 22.0634 22.1726 21.8982 22.1729C21.6341 22.1725 21.3788 22.0785 21.1775 21.9076L18.9451 20.0305L9.12488 20.0042C8.50389 20.0034 8.00069 19.5002 7.99988 18.8792V16.0991Z" fill="white"/>
<path fill-rule="evenodd" clip-rule="evenodd" d="M2.12502 2H15.9016C16.5226 2.00081 17.0258 2.50401 17.0266 3.125V12.8792C17.0258 13.5002 16.5226 14.0034 15.9016 14.0042L5.08144 14.0305L2.84902 15.9076C2.64774 16.0785 2.39237 16.1725 2.12831 16.1729C1.96315 16.1726 1.80004 16.1362 1.65041 16.0663C1.252 15.8836 0.997534 15.4845 1.00002 15.0462V3.125C1.00083 2.50401 1.50403 2.00081 2.12502 2ZM4.99991 9C5.5522 9 5.99991 8.55228 5.99991 8C5.99991 7.44772 5.5522 7 4.99991 7C4.44763 7 3.99991 7.44772 3.99991 8C3.99991 8.55228 4.44763 9 4.99991 9ZM9.99991 8C9.99991 8.55228 9.5522 9 8.99991 9C8.44763 9 7.99991 8.55228 7.99991 8C7.99991 7.44772 8.44763 7 8.99991 7C9.5522 7 9.99991 7.44772 9.99991 8ZM12.9999 9C13.5522 9 13.9999 8.55228 13.9999 8C13.9999 7.44772 13.5522 7 12.9999 7C12.4476 7 11.9999 7.44772 11.9999 8C11.9999 8.55228 12.4476 9 12.9999 9Z" fill="white"/>
</g>
</svg>
