<svg width="140" height="47" viewBox="0 0 140 47" fill="none" xmlns="http://www.w3.org/2000/svg">
<path d="M2 24.7137L2.45375 24.1917C6.20706 19.8736 13.0849 20.4894 16.0115 25.4055L26.3188 42.7202C27.6992 45.039 30.7502 45.7115 32.9775 44.1879V44.1879C34.2902 43.29 35.9692 43.1207 37.4347 43.7386L38.9953 44.3965C42.5445 45.8929 46.6544 44.5672 48.6603 41.2789L51.4974 36.6279C54.2796 32.0671 60.1922 30.5585 64.8194 33.2289L65.3669 33.5448C69.4599 35.907 74.6785 34.7631 77.4082 30.9054L78.8064 28.9295C82.2455 24.0691 89.6539 24.7439 92.1584 30.1455V30.1455C95.0541 36.3909 104.049 36.0392 106.448 29.5868L109.706 20.8229C111.022 17.2851 115.498 16.2 118.287 18.7427V18.7427C120.619 20.8677 124.276 20.5124 126.154 17.9783L138 2" stroke="#0BE486" stroke-width="3" stroke-linecap="round"/>
</svg>
