<svg width="140" height="41" viewBox="0 0 140 41" fill="none" xmlns="http://www.w3.org/2000/svg">
<path d="M2 33.7137L7.52764 16.397C8.38366 13.7153 12.1287 13.583 13.1719 16.1975L19.9556 33.1985C21.8894 38.045 27.982 39.6052 32.0073 36.2848V36.2848C33.7711 34.8299 36.3589 34.9172 38.0438 36.4628V36.4628C41.7076 39.8236 47.5807 39.0487 50.1698 34.8043L52.1309 31.5893C54.5607 27.6061 59.7245 26.2886 63.7657 28.6208V28.6208C68.3785 31.2829 74.2773 29.1524 76.1245 24.1571L83.3238 4.68765C84.5392 1.40073 89.0938 1.15483 90.6561 4.29177L93.202 9.40397C96.0011 15.0244 104.009 15.0563 106.852 9.45838V9.45838C109.426 4.39252 116.432 3.80864 119.809 8.37863L138 33" stroke="#FF535E" stroke-width="3" stroke-linecap="round"/>
</svg>
