<svg width="80" height="80" viewBox="0 0 80 80" fill="none" xmlns="http://www.w3.org/2000/svg">
<rect width="80" height="80" rx="5" fill="#090930"/>
<path fill-rule="evenodd" clip-rule="evenodd" d="M25.0277 16C23.3949 16 22.0664 17.3284 22.0664 18.9613V37.9459V38.9771V63.7053C22.0664 65.3382 23.3948 66.6667 25.0277 66.6667H47.4482C48.6156 66.6667 49.7135 66.2138 50.541 65.3912L58.6282 57.858C58.6347 57.8521 58.641 57.8459 58.6471 57.8397C59.4758 57.011 59.9322 55.9092 59.9322 54.7372V18.9613C59.9322 17.3284 58.6038 16 56.9709 16H25.0277ZM23.5508 38.9771V37.9459V18.9613C23.5508 18.1469 24.2133 17.4844 25.0277 17.4844H56.9709C57.7852 17.4844 58.4478 18.1469 58.4478 18.9613V54.7374C58.4478 54.8188 58.4438 54.8995 58.4372 54.9797H50.7609C49.0678 54.9797 47.6903 56.3571 47.6903 58.0502V65.1717C47.6101 65.1782 47.5295 65.1824 47.4481 65.1824H25.0277C24.2134 65.1824 23.5508 64.5199 23.5508 63.7054V38.9771ZM49.5199 64.3137C49.5135 64.3197 49.5072 64.3258 49.501 64.332C49.3983 64.4348 49.2892 64.5288 49.1748 64.6139V58.0502C49.1748 57.1756 49.8863 56.4641 50.761 56.4641H57.879C57.7964 56.5753 57.7056 56.6814 57.6063 56.7815L49.5199 64.3137ZM52.6645 39.5685C53.3502 40.7562 53.3502 42.1743 52.6645 43.362C51.9787 44.5497 50.7507 45.2587 49.3793 45.2587H39.3592C39.2862 45.2587 39.2158 45.2482 39.1492 45.2286C39.0826 45.2482 39.0121 45.2587 38.9392 45.2587H32.6193C31.2479 45.2587 30.0198 44.5496 29.3341 43.362C28.6484 42.1743 28.6484 40.7562 29.3341 39.5685L37.7141 25.054C38.3998 23.8664 39.6279 23.1572 40.9993 23.1572C42.3707 23.1572 43.5989 23.8664 44.2845 25.054L52.6645 39.5685ZM39.1492 43.8044C39.0826 43.7848 39.0121 43.7743 38.9392 43.7743H32.6193C31.7845 43.7743 31.037 43.3428 30.6196 42.6198C30.2022 41.8968 30.2022 41.0337 30.6196 40.3107L38.9996 25.7962C39.417 25.0733 40.1645 24.6416 40.9993 24.6416C41.8341 24.6416 42.5817 25.0733 42.9991 25.7962L51.3791 40.3107C51.7965 41.0337 51.7965 41.8968 51.3791 42.6198C50.9616 43.3427 50.2141 43.7743 49.3793 43.7743H39.3592C39.2862 43.7743 39.2158 43.7848 39.1492 43.8044ZM41.1559 38.7193C41.7373 38.7193 42.2105 39.1924 42.2105 39.7739C42.2105 40.3554 41.7373 40.8285 41.1559 40.8285C40.5744 40.8285 40.1013 40.3554 40.1013 39.7739C40.1013 39.1924 40.5744 38.7193 41.1559 38.7193ZM40.8145 30.3974C40.6604 30.3974 40.535 30.5228 40.535 30.6769V36.4575C40.535 36.6117 40.6604 36.737 40.8145 36.737H41.4972C41.6512 36.737 41.7766 36.6117 41.7766 36.4575V30.6769C41.7766 30.5228 41.6512 30.3974 41.4972 30.3974H40.8145ZM50.9052 50.1736C50.9052 49.7637 50.5729 49.4314 50.1631 49.4314H31.8356C31.4257 49.4314 31.0934 49.7637 31.0934 50.1736C31.0934 50.5835 31.4257 50.9158 31.8356 50.9158H50.1631C50.5729 50.9158 50.9052 50.5835 50.9052 50.1736ZM31.0934 55.3402C31.0934 54.9304 31.4257 54.5981 31.8356 54.5981H39.7928C40.2027 54.5981 40.535 54.9304 40.535 55.3402C40.535 55.7501 40.2027 56.0824 39.7928 56.0824H31.8356C31.4257 56.0824 31.0934 55.7501 31.0934 55.3402Z" fill="#FF5154"/>
<path d="M50.541 65.3912L50.2002 65.0253L50.1942 65.0309L50.1885 65.0366L50.541 65.3912ZM58.6282 57.858L58.2891 57.4906L58.2874 57.4921L58.6282 57.858ZM58.6471 57.8397L58.2936 57.4861L58.2908 57.489L58.6471 57.8397ZM58.4372 54.9797V55.4797H58.8975L58.9355 55.0209L58.4372 54.9797ZM47.6903 65.1717L47.7309 65.6701L48.1903 65.6326V65.1717H47.6903ZM49.501 64.332L49.8546 64.6856L49.8573 64.6828L49.501 64.332ZM49.5199 64.3137L49.8591 64.6811L49.8607 64.6796L49.5199 64.3137ZM49.1748 64.6139H48.6748V65.6085L49.473 65.0152L49.1748 64.6139ZM57.879 56.4641L58.2804 56.7622L58.8733 55.9641H57.879V56.4641ZM57.6063 56.7815L57.9471 57.1474L57.9544 57.1406L57.9614 57.1335L57.6063 56.7815ZM52.6645 43.362L53.0975 43.612L53.0975 43.6119L52.6645 43.362ZM52.6645 39.5685L53.0975 39.3185L53.0975 39.3185L52.6645 39.5685ZM39.1492 45.2286L39.2904 44.7489L39.1492 44.7073L39.0079 44.7489L39.1492 45.2286ZM29.3341 43.362L28.9011 43.6119L28.9011 43.612L29.3341 43.362ZM29.3341 39.5685L28.9011 39.3185L28.9011 39.3185L29.3341 39.5685ZM37.7141 25.054L37.2811 24.804L37.2811 24.804L37.7141 25.054ZM44.2845 25.054L44.7175 24.804L44.7175 24.804L44.2845 25.054ZM39.1492 43.8044L39.0079 44.2841L39.1492 44.3257L39.2904 44.2841L39.1492 43.8044ZM30.6196 40.3107L30.1866 40.0607L30.1866 40.0607L30.6196 40.3107ZM38.9996 25.7962L38.5666 25.5461L38.5665 25.5462L38.9996 25.7962ZM42.9991 25.7962L43.4321 25.5462L43.4321 25.5461L42.9991 25.7962ZM51.3791 40.3107L51.8121 40.0607L51.8121 40.0607L51.3791 40.3107ZM51.3791 42.6198L51.8121 42.8698L51.8121 42.8698L51.3791 42.6198ZM22.5664 18.9613C22.5664 17.6046 23.6711 16.5 25.0277 16.5V15.5C23.1188 15.5 21.5664 17.0523 21.5664 18.9613H22.5664ZM22.5664 37.9459V18.9613H21.5664V37.9459H22.5664ZM22.5664 38.9771V37.9459H21.5664V38.9771H22.5664ZM22.5664 63.7053V38.9771H21.5664V63.7053H22.5664ZM25.0277 66.1667C23.671 66.1667 22.5664 65.062 22.5664 63.7053H21.5664C21.5664 65.6143 23.1187 67.1667 25.0277 67.1667V66.1667ZM47.4482 66.1667H25.0277V67.1667H47.4482V66.1667ZM50.1885 65.0366C49.4547 65.7661 48.4836 66.1667 47.4482 66.1667V67.1667C48.7477 67.1667 49.9723 66.6616 50.8935 65.7458L50.1885 65.0366ZM58.2874 57.4921L50.2002 65.0253L50.8818 65.7571L58.969 58.2239L58.2874 57.4921ZM58.2908 57.489C58.2902 57.4896 58.2896 57.4902 58.2891 57.4906L58.9674 58.2254C58.9798 58.214 58.9919 58.2022 59.0035 58.1904L58.2908 57.489ZM59.4322 54.7372C59.4322 55.7766 59.0285 56.7512 58.2936 57.4861L59.0007 58.1932C59.9231 57.2708 60.4322 56.0418 60.4322 54.7372H59.4322ZM59.4322 18.9613V54.7372H60.4322V18.9613H59.4322ZM56.9709 16.5C58.3277 16.5 59.4322 17.6046 59.4322 18.9613H60.4322C60.4322 17.0523 58.8799 15.5 56.9709 15.5V16.5ZM25.0277 16.5H56.9709V15.5H25.0277V16.5ZM23.0508 37.9459V38.9771H24.0508V37.9459H23.0508ZM23.0508 18.9613V37.9459H24.0508V18.9613H23.0508ZM25.0277 16.9844C23.9372 16.9844 23.0508 17.8708 23.0508 18.9613H24.0508C24.0508 18.423 24.4894 17.9844 25.0277 17.9844V16.9844ZM56.9709 16.9844H25.0277V17.9844H56.9709V16.9844ZM58.9478 18.9613C58.9478 17.8707 58.0613 16.9844 56.9709 16.9844V17.9844C57.5091 17.9844 57.9478 18.4231 57.9478 18.9613H58.9478ZM58.9478 54.7374V18.9613H57.9478V54.7374H58.9478ZM58.9355 55.0209C58.943 54.9301 58.9478 54.8353 58.9478 54.7374H57.9478C57.9478 54.8023 57.9446 54.869 57.9389 54.9385L58.9355 55.0209ZM50.7609 55.4797H58.4372V54.4797H50.7609V55.4797ZM48.1903 58.0502C48.1903 56.6333 49.3439 55.4797 50.7609 55.4797V54.4797C48.7917 54.4797 47.1903 56.0809 47.1903 58.0502H48.1903ZM48.1903 65.1717V58.0502H47.1903V65.1717H48.1903ZM47.4481 65.6824C47.5463 65.6824 47.641 65.6774 47.7309 65.6701L47.6497 64.6734C47.5793 64.6791 47.5126 64.6824 47.4481 64.6824V65.6824ZM25.0277 65.6824H47.4481V64.6824H25.0277V65.6824ZM23.0508 63.7054C23.0508 64.796 23.9373 65.6824 25.0277 65.6824V64.6824C24.4895 64.6824 24.0508 64.2437 24.0508 63.7054H23.0508ZM23.0508 38.9771V63.7054H24.0508V38.9771H23.0508ZM49.8573 64.6828C49.8579 64.6822 49.8585 64.6816 49.8591 64.6811L49.1808 63.9464C49.1684 63.9577 49.1564 63.9694 49.1447 63.9813L49.8573 64.6828ZM49.473 65.0152C49.607 64.9156 49.7346 64.8056 49.8546 64.6856L49.1475 63.9785C49.062 64.0639 48.9715 64.142 48.8765 64.2126L49.473 65.0152ZM48.6748 58.0502V64.6139H49.6748V58.0502H48.6748ZM50.761 55.9641C49.6101 55.9641 48.6748 56.8994 48.6748 58.0502H49.6748C49.6748 57.4517 50.1624 56.9641 50.761 56.9641V55.9641ZM57.879 55.9641H50.761V56.9641H57.879V55.9641ZM57.9614 57.1335C58.0776 57.0163 58.1839 56.8922 58.2804 56.7622L57.4777 56.1659C57.4089 56.2584 57.3335 56.3465 57.2512 56.4295L57.9614 57.1335ZM49.8607 64.6796L57.9471 57.1474L57.2655 56.4157L49.1791 63.9479L49.8607 64.6796ZM53.0975 43.6119C53.8725 42.2696 53.8725 40.6609 53.0975 39.3185L52.2315 39.8185C52.8279 40.8515 52.8279 42.079 52.2315 43.112L53.0975 43.6119ZM49.3793 45.7587C50.9293 45.7587 52.3224 44.9543 53.0975 43.612L52.2315 43.1119C51.635 44.145 50.572 44.7587 49.3793 44.7587V45.7587ZM39.3592 45.7587H49.3793V44.7587H39.3592V45.7587ZM39.0079 45.7082C39.1199 45.7412 39.2379 45.7587 39.3592 45.7587V44.7587C39.3346 44.7587 39.3116 44.7552 39.2904 44.7489L39.0079 45.7082ZM38.9392 45.7587C39.0604 45.7587 39.1784 45.7412 39.2904 45.7082L39.0079 44.7489C38.9867 44.7552 38.9638 44.7587 38.9392 44.7587V45.7587ZM32.6193 45.7587H38.9392V44.7587H32.6193V45.7587ZM28.9011 43.612C29.6761 44.9542 31.0692 45.7587 32.6193 45.7587V44.7587C31.4265 44.7587 30.3635 44.1449 29.7671 43.1119L28.9011 43.612ZM28.9011 39.3185C28.1261 40.6609 28.1261 42.2696 28.9011 43.6119L29.7671 43.112C29.1707 42.079 29.1707 40.8515 29.7671 39.8185L28.9011 39.3185ZM37.2811 24.804L28.9011 39.3185L29.7671 39.8185L38.1471 25.304L37.2811 24.804ZM40.9993 22.6572C39.4493 22.6572 38.0561 23.4617 37.2811 24.804L38.1471 25.304C38.7435 24.2711 39.8066 23.6572 40.9993 23.6572V22.6572ZM44.7175 24.804C43.9425 23.4617 42.5493 22.6572 40.9993 22.6572V23.6572C42.192 23.6572 43.2552 24.2711 43.8515 25.304L44.7175 24.804ZM53.0975 39.3185L44.7175 24.804L43.8515 25.304L52.2315 39.8185L53.0975 39.3185ZM38.9392 44.2743C38.9638 44.2743 38.9867 44.2778 39.0079 44.2841L39.2904 43.3248C39.1784 43.2918 39.0604 43.2743 38.9392 43.2743V44.2743ZM32.6193 44.2743H38.9392V43.2743H32.6193V44.2743ZM30.1866 42.8698C30.6933 43.7475 31.6059 44.2743 32.6193 44.2743V43.2743C31.9631 43.2743 31.3807 42.938 31.0526 42.3698L30.1866 42.8698ZM30.1866 40.0607C29.6798 40.9384 29.6798 41.9921 30.1866 42.8698L31.0526 42.3698C30.7245 41.8015 30.7245 41.129 31.0526 40.5607L30.1866 40.0607ZM38.5665 25.5462L30.1866 40.0607L31.0526 40.5607L39.4326 26.0462L38.5665 25.5462ZM40.9993 24.1416C39.9858 24.1416 39.0733 24.6686 38.5666 25.5461L39.4326 26.0462C39.7607 25.4779 40.3432 25.1416 40.9993 25.1416V24.1416ZM43.4321 25.5461C42.9254 24.6686 42.0128 24.1416 40.9993 24.1416V25.1416C41.6555 25.1416 42.238 25.4779 42.5661 26.0462L43.4321 25.5461ZM51.8121 40.0607L43.4321 25.5462L42.566 26.0462L50.946 40.5607L51.8121 40.0607ZM51.8121 42.8698C52.3188 41.9921 52.3188 40.9384 51.8121 40.0607L50.946 40.5607C51.2741 41.129 51.2741 41.8015 50.946 42.3698L51.8121 42.8698ZM49.3793 44.2743C50.3928 44.2743 51.3053 43.7473 51.8121 42.8698L50.9461 42.3697C50.6179 42.938 50.0355 43.2743 49.3793 43.2743V44.2743ZM39.3592 44.2743H49.3793V43.2743H39.3592V44.2743ZM39.2904 44.2841C39.3116 44.2778 39.3346 44.2743 39.3592 44.2743V43.2743C39.2379 43.2743 39.1199 43.2918 39.0079 43.3248L39.2904 44.2841ZM42.7105 39.7739C42.7105 38.9163 42.0135 38.2193 41.1559 38.2193V39.2193C41.4612 39.2193 41.7105 39.4686 41.7105 39.7739H42.7105ZM41.1559 41.3285C42.0135 41.3285 42.7105 40.6315 42.7105 39.7739H41.7105C41.7105 40.0793 41.4612 40.3285 41.1559 40.3285V41.3285ZM39.6013 39.7739C39.6013 40.6315 40.2982 41.3285 41.1559 41.3285V40.3285C40.8505 40.3285 40.6013 40.0793 40.6013 39.7739H39.6013ZM41.1559 38.2193C40.2982 38.2193 39.6013 38.9163 39.6013 39.7739H40.6013C40.6013 39.4686 40.8505 39.2193 41.1559 39.2193V38.2193ZM41.035 30.6769C41.035 30.7989 40.9365 30.8974 40.8145 30.8974V29.8974C40.3842 29.8974 40.035 30.2467 40.035 30.6769H41.035ZM41.035 36.4575V30.6769H40.035V36.4575H41.035ZM40.8145 36.237C40.9366 36.237 41.035 36.3356 41.035 36.4575H40.035C40.035 36.8877 40.3841 37.237 40.8145 37.237V36.237ZM41.4972 36.237H40.8145V37.237H41.4972V36.237ZM41.2766 36.4575C41.2766 36.3356 41.375 36.237 41.4972 36.237V37.237C41.9275 37.237 42.2766 36.8877 42.2766 36.4575H41.2766ZM41.2766 30.6769V36.4575H42.2766V30.6769H41.2766ZM41.4972 30.8974C41.3751 30.8974 41.2766 30.7989 41.2766 30.6769H42.2766C42.2766 30.2467 41.9274 29.8974 41.4972 29.8974V30.8974ZM40.8145 30.8974H41.4972V29.8974H40.8145V30.8974ZM50.1631 49.9314C50.2968 49.9314 50.4052 50.0398 50.4052 50.1736H51.4052C51.4052 49.4875 50.8491 48.9314 50.1631 48.9314V49.9314ZM31.8356 49.9314H50.1631V48.9314H31.8356V49.9314ZM31.5934 50.1736C31.5934 50.0398 31.7018 49.9314 31.8356 49.9314V48.9314C31.1495 48.9314 30.5934 49.4875 30.5934 50.1736H31.5934ZM31.8356 50.4158C31.7018 50.4158 31.5934 50.3073 31.5934 50.1736H30.5934C30.5934 50.8596 31.1495 51.4158 31.8356 51.4158V50.4158ZM50.1631 50.4158H31.8356V51.4158H50.1631V50.4158ZM50.4052 50.1736C50.4052 50.3073 50.2968 50.4158 50.1631 50.4158V51.4158C50.8491 51.4158 51.4052 50.8596 51.4052 50.1736H50.4052ZM31.8356 54.0981C31.1495 54.0981 30.5934 54.6542 30.5934 55.3402H31.5934C31.5934 55.2065 31.7018 55.0981 31.8356 55.0981V54.0981ZM39.7928 54.0981H31.8356V55.0981H39.7928V54.0981ZM41.035 55.3402C41.035 54.6542 40.4788 54.0981 39.7928 54.0981V55.0981C39.9266 55.0981 40.035 55.2065 40.035 55.3402H41.035ZM39.7928 56.5824C40.4788 56.5824 41.035 56.0263 41.035 55.3402H40.035C40.035 55.474 39.9266 55.5824 39.7928 55.5824V56.5824ZM31.8356 56.5824H39.7928V55.5824H31.8356V56.5824ZM30.5934 55.3402C30.5934 56.0263 31.1495 56.5824 31.8356 56.5824V55.5824C31.7018 55.5824 31.5934 55.474 31.5934 55.3402H30.5934Z" fill="#FF5154"/>
</svg>
