<svg width="25" height="20" viewBox="0 0 25 20" fill="none" xmlns="http://www.w3.org/2000/svg">
<path fill-rule="evenodd" clip-rule="evenodd" d="M24.2504 2.65444C23.3933 3.03447 22.4713 3.29147 21.5044 3.40638C22.4917 2.81473 23.2493 1.87894 23.6069 0.761826C22.6831 1.31002 21.6595 1.70743 20.571 1.92182C19.699 0.993046 18.4564 0.41262 17.0806 0.41262C14.4408 0.41262 12.2998 2.55353 12.2998 5.19331C12.2998 5.56803 12.3423 5.93264 12.4243 6.28268C8.45113 6.08343 4.92828 4.18045 2.57016 1.28703C2.15876 1.99301 1.9227 2.81473 1.9227 3.69084C1.9227 5.34913 2.76734 6.81295 4.04941 7.66998C3.26611 7.6456 2.52844 7.43036 1.88422 7.07134C1.88382 7.0918 1.88382 7.11199 1.88382 7.13217C1.88382 9.44853 3.53246 11.3804 5.719 11.8192C5.3183 11.9291 4.89515 11.9874 4.45981 11.9874C4.15106 11.9874 3.8519 11.9577 3.56025 11.9022C4.1685 13.801 5.93363 15.1832 8.02615 15.2222C6.38968 16.5047 4.32856 17.2686 2.08818 17.2686C1.70308 17.2686 1.32162 17.2462 0.948293 17.2017C3.06291 18.5584 5.57642 19.3496 8.27607 19.3496C17.0695 19.3496 21.8784 12.065 21.8784 5.74683C21.8784 5.53972 21.8738 5.33345 21.8645 5.12885C22.7993 4.45483 23.6097 3.6132 24.2504 2.65444Z" fill="#319BE2"/>
</svg>
