<svg width="20" height="20" viewBox="0 0 20 20" fill="none" xmlns="http://www.w3.org/2000/svg">
<g id="icon_calendar">
<path id="Combined Shape" fill-rule="evenodd" clip-rule="evenodd" d="M5.79177 0.799988C5.33631 0.799988 4.96677 1.16953 4.96677 1.62499V2.46671H3.29177L3.1281 2.47201C1.82952 2.55647 0.800049 3.63863 0.800049 4.95827V8.29171V16.7083L0.805356 16.8719C0.889827 18.1705 1.9721 19.2 3.29177 19.2H16.7083L16.872 19.1947C18.1706 19.1102 19.2 18.0279 19.2 16.7083V8.29171V4.95827L19.1947 4.79461C19.1103 3.49608 18.028 2.46671 16.7083 2.46671H15.0333V1.62499C15.0333 1.16953 14.6638 0.799988 14.2083 0.799988C13.7529 0.799988 13.3833 1.16953 13.3833 1.62499V2.46671H6.61677V1.62499C6.61677 1.16953 6.24722 0.799988 5.79177 0.799988ZM13.3833 4.11671H6.61677V5.37499C6.61677 5.83045 6.24722 6.19999 5.79177 6.19999C5.33631 6.19999 4.96677 5.83045 4.96677 5.37499V4.11671H3.29177C2.86367 4.11671 2.5087 4.43868 2.45662 4.85292L2.45005 4.95827V7.46671H17.55V4.95827C17.55 4.49458 17.1721 4.11671 16.7083 4.11671H15.0333V5.37499C15.0333 5.83045 14.6638 6.19999 14.2083 6.19999C13.7529 6.19999 13.3833 5.83045 13.3833 5.37499V4.11671ZM2.45005 9.1167V16.7083C2.45005 17.1363 2.77212 17.4913 3.18641 17.5434L3.29177 17.55H16.7083C17.1364 17.55 17.4914 17.2279 17.5435 16.8136L17.55 16.7083V9.1167H2.45005Z" fill="#ffffff"/>
</g>
</svg>
