<svg width="80" height="80" viewBox="0 0 80 80" fill="none" xmlns="http://www.w3.org/2000/svg">
<rect width="80" height="80" rx="5" fill="#090930"/>
<path fill-rule="evenodd" clip-rule="evenodd" d="M58.9086 28.7515V21.817C58.9086 18.6095 56.2992 16 53.0916 16H21.9068C18.6992 16 16.0898 18.6095 16.0898 21.817V24.5903V24.5916V31.7499C16.0898 32.5766 16.7624 33.2491 17.5891 33.2491H26.2237L26.2238 65.4283C26.2238 65.9473 26.5408 66.3923 27.0314 66.5616C27.5215 66.7309 28.0459 66.5766 28.3664 66.168L30.8725 62.9715L33.8275 66.7406C34.0563 67.0325 34.4002 67.1999 34.7711 67.1999C35.1421 67.1999 35.4859 67.0325 35.7149 66.7406L38.6695 62.9717L41.6241 66.7407C41.8529 67.0325 42.1969 67.1999 42.5678 67.1999C42.9386 67.1999 43.2825 67.0325 43.5114 66.7406L46.4659 62.9716L49.4202 66.7404C49.649 67.0324 49.993 67.1999 50.364 67.1999C50.7349 67.1999 51.0788 67.0324 51.3077 66.7405L54.2615 62.9717L56.7663 66.1674C57.0865 66.5761 57.6105 66.7308 58.1013 66.5612C58.592 66.3918 58.9091 65.9469 58.9091 65.4278V28.7791L58.909 28.7648L58.9086 28.7515ZM17.5898 24.5903V24.5916V31.7499L26.2237 31.7492V21.817C26.2237 19.4366 24.2872 17.5 21.9068 17.5C19.5264 17.5 17.5898 19.4366 17.5898 21.817V24.5903ZM57.4091 28.8054L57.4088 28.7923L57.4087 28.7805V21.8171C57.4087 19.4367 55.4721 17.5001 53.0917 17.5001H25.801C26.9808 18.5654 27.7237 20.106 27.7237 21.8171L27.7238 64.5567L29.9288 61.7442C30.1579 61.4522 30.5017 61.2849 30.8726 61.2849C31.2434 61.285 31.5873 61.4523 31.8161 61.7441L34.7712 65.5133L37.7258 61.7443C37.9546 61.4524 38.2985 61.2849 38.6694 61.2849C39.0404 61.2849 39.3844 61.4524 39.6132 61.7443L42.5677 65.5132L45.5222 61.7443C45.751 61.4524 46.095 61.2849 46.4659 61.2849C46.8368 61.2849 47.1809 61.4524 47.4097 61.7443L50.3639 65.5131L53.3178 61.7443C53.5467 61.4524 53.8907 61.2849 54.2618 61.2849C54.6327 61.285 54.9767 61.4525 55.2054 61.7445L57.4091 64.5561V28.8054ZM41.4944 28.433L47.0272 23.0821C47.3249 22.794 47.7997 22.8021 48.0878 23.1001C48.3757 23.3978 48.3678 23.8726 48.07 24.1606L41.98 30.0503C41.8399 30.1857 41.6528 30.2611 41.4586 30.2611C41.4503 30.2611 41.442 30.261 41.4337 30.2607C41.2305 30.254 41.0389 30.1651 40.9025 30.0144L37.4569 26.2082C37.1789 25.9011 37.2025 25.4268 37.5096 25.1488C37.8169 24.871 38.2911 24.8944 38.569 25.2015L41.4944 28.433ZM33.1718 36.1867H35.1209C35.5352 36.1867 35.8709 35.851 35.8709 35.4367C35.8709 35.0224 35.5352 34.6867 35.1209 34.6867H33.1718C32.7575 34.6867 32.4218 35.0224 32.4218 35.4367C32.4218 35.851 32.7575 36.1867 33.1718 36.1867ZM38.451 35.4367C38.451 35.0224 38.7867 34.6867 39.201 34.6867H51.9605C52.3747 34.6867 52.7105 35.0224 52.7105 35.4367C52.7105 35.851 52.3748 36.1867 51.9605 36.1867H39.201C38.7867 36.1867 38.451 35.851 38.451 35.4367ZM33.1718 41.0737H35.1209C35.5352 41.0737 35.8709 40.738 35.8709 40.3237C35.8709 39.9094 35.5352 39.5737 35.1209 39.5737H33.1718C32.7575 39.5737 32.4218 39.9094 32.4218 40.3237C32.4218 40.738 32.7575 41.0737 33.1718 41.0737ZM38.451 40.3237C38.451 39.9094 38.7867 39.5737 39.201 39.5737H51.9605C52.3747 39.5737 52.7105 39.9094 52.7105 40.3237C52.7105 40.738 52.3748 41.0737 51.9605 41.0737H39.201C38.7867 41.0737 38.451 40.738 38.451 40.3237ZM33.1718 45.9607H35.1209C35.5352 45.9607 35.8709 45.625 35.8709 45.2107C35.8709 44.7964 35.5352 44.4607 35.1209 44.4607H33.1718C32.7575 44.4607 32.4218 44.7964 32.4218 45.2107C32.4218 45.625 32.7575 45.9607 33.1718 45.9607ZM38.451 45.2107C38.451 44.7964 38.7867 44.4607 39.201 44.4607H51.9605C52.3747 44.4607 52.7105 44.7964 52.7105 45.2107C52.7105 45.625 52.3748 45.9607 51.9605 45.9607H39.201C38.7867 45.9607 38.451 45.625 38.451 45.2107ZM51.9605 49.7727H44.9872C44.5729 49.7727 44.2372 50.1084 44.2372 50.5227C44.2372 50.937 44.5729 51.2727 44.9872 51.2727H51.9604C52.3747 51.2727 52.7104 50.937 52.7104 50.5227C52.7104 50.1084 52.3747 49.7727 51.9605 49.7727ZM35.592 58.4272C35.592 58.8415 35.2563 59.1772 34.842 59.1772C34.4278 59.1772 34.092 58.8415 34.092 58.4274V58.2084C33.6399 58.1493 33.2552 58.0022 32.7422 57.6666C32.3955 57.4398 32.2983 56.975 32.5251 56.6284C32.752 56.2817 33.2166 56.1846 33.5633 56.4113C34.0346 56.7196 34.2113 56.7465 34.837 56.7436C35.4336 56.7396 35.7798 56.2949 35.8489 55.8834C35.8903 55.6373 35.8732 55.1938 35.2938 54.989C35.1817 54.9494 35.0725 54.9117 34.9664 54.8752L34.9664 54.8752C34.2232 54.6192 33.5813 54.3981 33.164 53.9138C32.6849 53.3574 32.519 52.5603 32.7309 51.8334C32.9275 51.1589 33.4234 50.656 34.092 50.4522V50.21C34.092 49.7957 34.4277 49.46 34.842 49.46C35.2563 49.46 35.592 49.7957 35.592 50.21V50.2517C36.115 50.268 36.4631 50.3698 36.5257 50.3894C36.921 50.5132 37.1409 50.9341 37.017 51.3293C36.8936 51.7225 36.4768 51.9423 36.0831 51.8225C36.0576 51.8154 35.3805 51.6301 34.5311 51.8862C34.3442 51.9425 34.2264 52.0625 34.1708 52.253C34.1027 52.4866 34.1561 52.7669 34.3005 52.9347C34.4529 53.1117 34.9623 53.2872 35.4548 53.4568C35.5646 53.4946 35.6777 53.5336 35.7936 53.5746C36.9027 53.9666 37.5194 54.9943 37.3282 56.132C37.1865 56.9753 36.5645 57.8298 35.592 58.1304V58.4272Z" fill="#06D49C"/>
<path d="M58.9086 28.7515H58.4085L58.4088 28.7652L58.9086 28.7515ZM26.2237 33.2491L26.7237 33.2491L26.7237 32.7491H26.2237V33.2491ZM26.2238 65.4283H26.7238H26.2238ZM27.0314 66.5616L27.1947 66.089L27.1945 66.089L27.0314 66.5616ZM28.3664 66.168L28.7599 66.4766L28.7599 66.4765L28.3664 66.168ZM30.8725 62.9715L31.266 62.663L30.8725 62.1611L30.4791 62.663L30.8725 62.9715ZM33.8275 66.7406L34.2211 66.4321L34.221 66.4321L33.8275 66.7406ZM35.7149 66.7406L36.1083 67.0492L36.1084 67.0491L35.7149 66.7406ZM38.6695 62.9717L39.063 62.6632L38.6695 62.1613L38.276 62.6632L38.6695 62.9717ZM41.6241 66.7407L41.2306 67.0492L41.2307 67.0492L41.6241 66.7407ZM43.5114 66.7406L43.9049 67.0491L43.905 67.0491L43.5114 66.7406ZM46.4659 62.9716L46.8595 62.6631L46.4659 62.1611L46.0724 62.6631L46.4659 62.9716ZM49.4202 66.7404L49.8138 66.432L49.8138 66.4319L49.4202 66.7404ZM51.3077 66.7405L51.7012 67.049L51.7013 67.0489L51.3077 66.7405ZM54.2615 62.9717L54.6551 62.6633L54.2615 62.1612L53.868 62.6633L54.2615 62.9717ZM56.7663 66.1674L57.1599 65.859L57.1599 65.859L56.7663 66.1674ZM58.1013 66.5612L57.9382 66.0886L57.938 66.0886L58.1013 66.5612ZM58.9091 28.7791H59.4092L59.4091 28.7744L58.9091 28.7791ZM58.909 28.7648L59.4091 28.7601L59.4088 28.7511L58.909 28.7648ZM17.5898 31.7499H17.0898V32.2499L17.5899 32.2499L17.5898 31.7499ZM26.2237 31.7492L26.2238 32.2492L26.7237 32.2492V31.7492H26.2237ZM57.4088 28.7923L56.9088 28.7962L56.909 28.8041L57.4088 28.7923ZM57.4091 28.8054H57.9093L57.909 28.7936L57.4091 28.8054ZM57.4087 28.7805H56.9087L56.9088 28.7844L57.4087 28.7805ZM25.801 17.5001V17.0001H24.5012L25.466 17.8712L25.801 17.5001ZM27.7237 21.8171H27.2237V21.8171L27.7237 21.8171ZM27.7238 64.5567H27.2238L27.2238 66.0048L28.1173 64.8652L27.7238 64.5567ZM29.9288 61.7442L29.5355 61.4356L29.5354 61.4357L29.9288 61.7442ZM30.8726 61.2849L30.8728 60.7849H30.8726V61.2849ZM31.8161 61.7441L32.2096 61.4356L32.2096 61.4356L31.8161 61.7441ZM34.7712 65.5133L34.3778 65.8218L34.7713 66.3237L35.1647 65.8218L34.7712 65.5133ZM37.7258 61.7443L38.1193 62.0528L38.1194 62.0528L37.7258 61.7443ZM39.6132 61.7443L39.2197 62.0528L39.2197 62.0528L39.6132 61.7443ZM42.5677 65.5132L42.1742 65.8217L42.5677 66.3236L42.9612 65.8217L42.5677 65.5132ZM45.5222 61.7443L45.9157 62.0528L45.9158 62.0528L45.5222 61.7443ZM47.4097 61.7443L47.0162 62.0528L47.0162 62.0528L47.4097 61.7443ZM50.3639 65.5131L49.9704 65.8216L50.364 66.3236L50.7575 65.8215L50.3639 65.5131ZM53.3178 61.7443L52.9244 61.4358L52.9243 61.4359L53.3178 61.7443ZM54.2618 61.2849L54.262 60.7849H54.2618V61.2849ZM55.2054 61.7445L54.8118 62.0528L54.8119 62.0529L55.2054 61.7445ZM57.4091 64.5561L57.0156 64.8645L57.9091 66.0046V64.5561H57.4091ZM47.0272 23.0821L47.3748 23.4415L47.375 23.4414L47.0272 23.0821ZM41.4944 28.433L41.1238 28.7686L41.4706 29.1517L41.842 28.7924L41.4944 28.433ZM48.0878 23.1001L47.7284 23.4476L47.7284 23.4477L48.0878 23.1001ZM48.07 24.1606L47.7225 23.8012L47.7225 23.8012L48.07 24.1606ZM41.98 30.0503L42.3275 30.4098L42.3276 30.4097L41.98 30.0503ZM41.4337 30.2607L41.4518 29.761L41.4502 29.761L41.4337 30.2607ZM40.9025 30.0144L41.2732 29.6789L41.2732 29.6788L40.9025 30.0144ZM37.4569 26.2082L37.0863 26.5438L37.0863 26.5438L37.4569 26.2082ZM37.5096 25.1488L37.1743 24.7779L37.1741 24.7781L37.5096 25.1488ZM38.569 25.2015L38.1983 25.537L38.1984 25.5371L38.569 25.2015ZM34.092 58.2084H34.592V57.7695L34.1569 57.7126L34.092 58.2084ZM32.7422 57.6666L33.016 57.2482L33.016 57.2482L32.7422 57.6666ZM32.5251 56.6284L32.1068 56.3546L32.1068 56.3546L32.5251 56.6284ZM33.5633 56.4113L33.8371 55.9929L33.837 55.9928L33.5633 56.4113ZM34.837 56.7436L34.8394 57.2436L34.8404 57.2436L34.837 56.7436ZM35.8489 55.8834L35.3559 55.8005L35.3558 55.8006L35.8489 55.8834ZM35.2938 54.989L35.4605 54.5176L35.4604 54.5176L35.2938 54.989ZM34.9664 54.8752L35.1291 54.4024L35.1087 54.3954L35.0877 54.3901L34.9664 54.8752ZM34.9664 54.8752L34.8036 55.3479L34.8241 55.355L34.8451 55.3603L34.9664 54.8752ZM33.164 53.9138L32.7852 54.2401L32.7853 54.2402L33.164 53.9138ZM32.7309 51.8334L33.211 51.9733L33.211 51.9733L32.7309 51.8334ZM34.092 50.4522L34.2378 50.9305L34.592 50.8225V50.4522H34.092ZM35.592 50.2517H35.092V50.7364L35.5765 50.7515L35.592 50.2517ZM36.5257 50.3894L36.6752 49.9123L36.6751 49.9122L36.5257 50.3894ZM37.017 51.3293L37.4941 51.479L37.4941 51.4789L37.017 51.3293ZM36.0831 51.8225L36.2287 51.344L36.2172 51.3408L36.0831 51.8225ZM34.5311 51.8862L34.6754 52.365L34.6755 52.3649L34.5311 51.8862ZM34.1708 52.253L33.6909 52.1129L33.6908 52.1131L34.1708 52.253ZM34.3005 52.9347L33.9216 53.2608L33.9216 53.2609L34.3005 52.9347ZM35.4548 53.4568L35.292 53.9296L35.2921 53.9296L35.4548 53.4568ZM35.7936 53.5746L35.6269 54.046L35.627 54.046L35.7936 53.5746ZM37.3282 56.132L36.8352 56.0491L36.8352 56.0491L37.3282 56.132ZM35.592 58.1304L35.4444 57.6527L35.092 57.7616V58.1304H35.592ZM58.4086 21.817V28.7515H59.4086V21.817H58.4086ZM53.0916 16.5C56.0231 16.5 58.4086 18.8856 58.4086 21.817H59.4086C59.4086 18.3334 56.5754 15.5 53.0916 15.5V16.5ZM21.9068 16.5H53.0916V15.5H21.9068V16.5ZM16.5898 21.817C16.5898 18.8856 18.9754 16.5 21.9068 16.5V15.5C18.4231 15.5 15.5898 18.3334 15.5898 21.817H16.5898ZM16.5898 24.5903V21.817H15.5898V24.5903H16.5898ZM16.5898 24.5916V24.5903H15.5898V24.5916H16.5898ZM16.5898 31.7499V24.5916H15.5898V31.7499H16.5898ZM17.5891 32.7491C17.0385 32.7491 16.5898 32.3004 16.5898 31.7499H15.5898C15.5898 32.8528 16.4863 33.7491 17.5891 33.7491V32.7491ZM26.2237 32.7491H17.5891V33.7491H26.2237V32.7491ZM26.7238 65.4283L26.7237 33.2491L25.7237 33.2491L25.7238 65.4283H26.7238ZM27.1945 66.089C26.9057 65.9893 26.7238 65.7342 26.7238 65.4283H25.7238C25.7238 66.1604 26.176 66.7953 26.8683 67.0342L27.1945 66.089ZM27.973 65.8594C27.7841 66.1003 27.4832 66.1887 27.1947 66.089L26.8682 67.0342C27.5599 67.2731 28.3078 67.0529 28.7599 66.4766L27.973 65.8594ZM30.4791 62.663L27.973 65.8595L28.7599 66.4765L31.266 63.28L30.4791 62.663ZM34.221 66.4321L31.266 62.663L30.4791 63.28L33.4341 67.0491L34.221 66.4321ZM34.7711 66.6999C34.5539 66.6999 34.3551 66.6031 34.2211 66.4321L33.434 67.0491C33.7576 67.4619 34.2466 67.6999 34.7711 67.6999V66.6999ZM35.3216 66.432C35.1873 66.6032 34.9884 66.6999 34.7711 66.6999V67.6999C35.2958 67.6999 35.7846 67.4618 36.1083 67.0492L35.3216 66.432ZM38.276 62.6632L35.3214 66.4321L36.1084 67.0491L39.063 63.2802L38.276 62.6632ZM42.0176 66.4322L39.063 62.6632L38.276 63.2802L41.2306 67.0492L42.0176 66.4322ZM42.5678 66.6999C42.3505 66.6999 42.1516 66.6031 42.0176 66.4322L41.2307 67.0492C41.5543 67.4619 42.0434 67.6999 42.5678 67.6999V66.6999ZM43.118 66.4321C42.9838 66.6032 42.785 66.6999 42.5678 66.6999V67.6999C43.0923 67.6999 43.5813 67.4618 43.9049 67.0491L43.118 66.4321ZM46.0724 62.6631L43.1179 66.4321L43.905 67.0491L46.8595 63.2801L46.0724 62.6631ZM49.8138 66.4319L46.8595 62.6631L46.0724 63.2801L49.0267 67.0489L49.8138 66.4319ZM50.364 66.6999C50.1467 66.6999 49.9478 66.6031 49.8138 66.432L49.0267 67.0488C49.3502 67.4617 49.8394 67.6999 50.364 67.6999V66.6999ZM50.9143 66.432C50.7801 66.6031 50.5812 66.6999 50.364 66.6999V67.6999C50.8887 67.6999 51.3776 67.4617 51.7012 67.049L50.9143 66.432ZM53.868 62.6633L50.9142 66.4321L51.7013 67.0489L54.6551 63.2801L53.868 62.6633ZM57.1599 65.859L54.6551 62.6633L53.868 63.2801L56.3728 66.4758L57.1599 65.859ZM57.938 66.0886C57.649 66.1885 57.3486 66.0999 57.1599 65.859L56.3728 66.4758C56.8245 67.0523 57.5721 67.2731 58.2647 67.0338L57.938 66.0886ZM58.4091 65.4278C58.4091 65.7336 58.2273 65.9888 57.9382 66.0886L58.2645 67.0338C58.9568 66.7948 59.4091 66.1602 59.4091 65.4278H58.4091ZM58.4091 28.7791V65.4278H59.4091V28.7791H58.4091ZM58.409 28.7695L58.4092 28.7838L59.4091 28.7744L59.409 28.7601L58.409 28.7695ZM58.4088 28.7652L58.4092 28.7785L59.4088 28.7511L59.4085 28.7378L58.4088 28.7652ZM18.0898 24.5916V24.5903H17.0898V24.5916H18.0898ZM18.0898 31.7499V24.5916H17.0898V31.7499H18.0898ZM26.2237 31.2492L17.5898 31.2499L17.5899 32.2499L26.2238 32.2492L26.2237 31.2492ZM25.7237 21.817V31.7492H26.7237V21.817H25.7237ZM21.9068 18C24.0111 18 25.7237 19.7127 25.7237 21.817H26.7237C26.7237 19.1605 24.5634 17 21.9068 17V18ZM18.0898 21.817C18.0898 19.7127 19.8026 18 21.9068 18V17C19.2503 17 17.0898 19.1605 17.0898 21.817H18.0898ZM18.0898 24.5903V21.817H17.0898V24.5903H18.0898ZM56.909 28.8041L56.9093 28.8172L57.909 28.7936L57.9087 28.7805L56.909 28.8041ZM56.9088 28.7844L56.9089 28.7962L57.9088 28.7884L57.9087 28.7766L56.9088 28.7844ZM56.9087 21.8171V28.7805H57.9087V21.8171H56.9087ZM53.0917 18.0001C55.196 18.0001 56.9087 19.7128 56.9087 21.8171H57.9087C57.9087 19.1606 55.7483 17.0001 53.0917 17.0001V18.0001ZM25.801 18.0001H53.0917V17.0001H25.801V18.0001ZM28.2237 21.8171C28.2237 19.9581 27.4161 18.2847 26.1361 17.129L25.466 17.8712C26.5456 18.8461 27.2237 20.2539 27.2237 21.8171H28.2237ZM28.2238 64.5567L28.2237 21.8171L27.2237 21.8171L27.2238 64.5567H28.2238ZM29.5354 61.4357L27.3304 64.2482L28.1173 64.8652L30.3223 62.0527L29.5354 61.4357ZM30.8726 60.7849C30.3481 60.7849 29.8593 61.0228 29.5355 61.4356L30.3222 62.0528C30.4566 61.8816 30.6554 61.7849 30.8726 61.7849V60.7849ZM32.2096 61.4356C31.886 61.0229 31.397 60.785 30.8728 60.7849L30.8725 61.7849C31.0899 61.785 31.2887 61.8817 31.4227 62.0526L32.2096 61.4356ZM35.1647 65.2048L32.2096 61.4356L31.4227 62.0526L34.3778 65.8218L35.1647 65.2048ZM37.3323 61.4358L34.3777 65.2048L35.1647 65.8218L38.1193 62.0528L37.3323 61.4358ZM38.6694 60.7849C38.1448 60.7849 37.6558 61.0231 37.3323 61.4358L38.1194 62.0528C38.2534 61.8817 38.4523 61.7849 38.6694 61.7849V60.7849ZM40.0068 61.4358C39.6832 61.0231 39.1941 60.7849 38.6694 60.7849V61.7849C38.8868 61.7849 39.0857 61.8817 39.2197 62.0528L40.0068 61.4358ZM42.9612 65.2047L40.0067 61.4358L39.2197 62.0528L42.1742 65.8217L42.9612 65.2047ZM45.1287 61.4358L42.1742 65.2047L42.9612 65.8217L45.9157 62.0528L45.1287 61.4358ZM46.4659 60.7849C45.9414 60.7849 45.4523 61.0231 45.1287 61.4358L45.9158 62.0528C46.0498 61.8817 46.2487 61.7849 46.4659 61.7849V60.7849ZM47.8033 61.4358C47.4797 61.023 46.9905 60.7849 46.4659 60.7849V61.7849C46.6832 61.7849 46.8822 61.8818 47.0162 62.0528L47.8033 61.4358ZM50.7575 65.2046L47.8033 61.4358L47.0162 62.0528L49.9704 65.8216L50.7575 65.2046ZM52.9243 61.4359L49.9704 65.2047L50.7575 65.8215L53.7114 62.0527L52.9243 61.4359ZM54.2618 60.7849C53.7371 60.7849 53.248 61.023 52.9244 61.4358L53.7113 62.0528C53.8455 61.8818 54.0444 61.7849 54.2618 61.7849V60.7849ZM55.5991 61.4362C55.2756 61.0232 54.7865 60.785 54.262 60.7849L54.2617 61.7849C54.479 61.785 54.6779 61.8818 54.8118 62.0528L55.5991 61.4362ZM57.8027 64.2477L55.599 61.4361L54.8119 62.0529L57.0156 64.8645L57.8027 64.2477ZM56.9091 28.8054V64.5561H57.9091V28.8054H56.9091ZM46.6796 22.7227L41.1468 28.0736L41.842 28.7924L47.3748 23.4415L46.6796 22.7227ZM48.4473 22.7526C47.9674 22.2562 47.176 22.2424 46.6795 22.7228L47.375 23.4414C47.4739 23.3456 47.632 23.348 47.7284 23.4476L48.4473 22.7526ZM48.4176 24.52C48.9139 24.0401 48.9271 23.2487 48.4473 22.7525L47.7284 23.4477C47.8244 23.5469 47.8218 23.7051 47.7225 23.8012L48.4176 24.52ZM42.3276 30.4097L48.4176 24.52L47.7225 23.8012L41.6325 29.6909L42.3276 30.4097ZM41.4586 30.7611C41.7823 30.7611 42.094 30.6355 42.3275 30.4098L41.6326 29.6908C41.5858 29.7359 41.5234 29.7611 41.4586 29.7611V30.7611ZM41.4157 30.7604C41.4318 30.761 41.4465 30.7611 41.4586 30.7611V29.7611C41.4542 29.7611 41.4522 29.761 41.4518 29.761L41.4157 30.7604ZM40.5318 30.3499C40.7591 30.601 41.0785 30.7493 41.4173 30.7604L41.4502 29.761C41.3826 29.7587 41.3188 29.7292 41.2732 29.6789L40.5318 30.3499ZM37.0863 26.5438L40.5319 30.35L41.2732 29.6788L37.8276 25.8726L37.0863 26.5438ZM37.1741 24.7781C36.6623 25.2414 36.6229 26.0319 37.0863 26.5438L37.8276 25.8726C37.735 25.7703 37.7428 25.6122 37.8452 25.5195L37.1741 24.7781ZM38.9398 24.866C38.4763 24.3539 37.686 24.3153 37.1743 24.7779L37.8449 25.5197C37.9479 25.4267 38.106 25.4349 38.1983 25.537L38.9398 24.866ZM41.8651 28.0974L38.9397 24.8659L38.1984 25.5371L41.1238 28.7686L41.8651 28.0974ZM35.1209 35.6867H33.1718V36.6867H35.1209V35.6867ZM35.3709 35.4367C35.3709 35.5749 35.2591 35.6867 35.1209 35.6867V36.6867C35.8114 36.6867 36.3709 36.1271 36.3709 35.4367H35.3709ZM35.1209 35.1867C35.2591 35.1867 35.3709 35.2985 35.3709 35.4367H36.3709C36.3709 34.7463 35.8114 34.1867 35.1209 34.1867V35.1867ZM33.1718 35.1867H35.1209V34.1867H33.1718V35.1867ZM32.9218 35.4367C32.9218 35.2985 33.0337 35.1867 33.1718 35.1867V34.1867C32.4814 34.1867 31.9218 34.7463 31.9218 35.4367H32.9218ZM33.1718 35.6867C33.0337 35.6867 32.9218 35.5749 32.9218 35.4367H31.9218C31.9218 36.1271 32.4814 36.6867 33.1718 36.6867V35.6867ZM39.201 34.1867C38.5106 34.1867 37.951 34.7463 37.951 35.4367H38.951C38.951 35.2985 39.0629 35.1867 39.201 35.1867V34.1867ZM51.9605 34.1867H39.201V35.1867H51.9605V34.1867ZM53.2105 35.4367C53.2105 34.7462 52.6508 34.1867 51.9605 34.1867V35.1867C52.0986 35.1867 52.2105 35.2986 52.2105 35.4367H53.2105ZM51.9605 36.6867C52.651 36.6867 53.2105 36.1271 53.2105 35.4367H52.2105C52.2105 35.5749 52.0987 35.6867 51.9605 35.6867V36.6867ZM39.201 36.6867H51.9605V35.6867H39.201V36.6867ZM37.951 35.4367C37.951 36.1271 38.5106 36.6867 39.201 36.6867V35.6867C39.0629 35.6867 38.951 35.5749 38.951 35.4367H37.951ZM35.1209 40.5737H33.1718V41.5737H35.1209V40.5737ZM35.3709 40.3237C35.3709 40.4619 35.2591 40.5737 35.1209 40.5737V41.5737C35.8114 41.5737 36.3709 41.0141 36.3709 40.3237H35.3709ZM35.1209 40.0737C35.2591 40.0737 35.3709 40.1855 35.3709 40.3237H36.3709C36.3709 39.6333 35.8114 39.0737 35.1209 39.0737V40.0737ZM33.1718 40.0737H35.1209V39.0737H33.1718V40.0737ZM32.9218 40.3237C32.9218 40.1855 33.0337 40.0737 33.1718 40.0737V39.0737C32.4814 39.0737 31.9218 39.6333 31.9218 40.3237H32.9218ZM33.1718 40.5737C33.0337 40.5737 32.9218 40.4619 32.9218 40.3237H31.9218C31.9218 41.0141 32.4814 41.5737 33.1718 41.5737V40.5737ZM39.201 39.0737C38.5106 39.0737 37.951 39.6333 37.951 40.3237H38.951C38.951 40.1855 39.0629 40.0737 39.201 40.0737V39.0737ZM51.9605 39.0737H39.201V40.0737H51.9605V39.0737ZM53.2105 40.3237C53.2105 39.6332 52.6508 39.0737 51.9605 39.0737V40.0737C52.0986 40.0737 52.2105 40.1856 52.2105 40.3237H53.2105ZM51.9605 41.5737C52.651 41.5737 53.2105 41.0141 53.2105 40.3237H52.2105C52.2105 40.4619 52.0987 40.5737 51.9605 40.5737V41.5737ZM39.201 41.5737H51.9605V40.5737H39.201V41.5737ZM37.951 40.3237C37.951 41.0141 38.5106 41.5737 39.201 41.5737V40.5737C39.0629 40.5737 38.951 40.4619 38.951 40.3237H37.951ZM35.1209 45.4607H33.1718V46.4607H35.1209V45.4607ZM35.3709 45.2107C35.3709 45.3489 35.2591 45.4607 35.1209 45.4607V46.4607C35.8114 46.4607 36.3709 45.9011 36.3709 45.2107H35.3709ZM35.1209 44.9607C35.2591 44.9607 35.3709 45.0725 35.3709 45.2107H36.3709C36.3709 44.5203 35.8114 43.9607 35.1209 43.9607V44.9607ZM33.1718 44.9607H35.1209V43.9607H33.1718V44.9607ZM32.9218 45.2107C32.9218 45.0725 33.0337 44.9607 33.1718 44.9607V43.9607C32.4814 43.9607 31.9218 44.5203 31.9218 45.2107H32.9218ZM33.1718 45.4607C33.0337 45.4607 32.9218 45.3489 32.9218 45.2107H31.9218C31.9218 45.9011 32.4814 46.4607 33.1718 46.4607V45.4607ZM39.201 43.9607C38.5106 43.9607 37.951 44.5203 37.951 45.2107H38.951C38.951 45.0725 39.0629 44.9607 39.201 44.9607V43.9607ZM51.9605 43.9607H39.201V44.9607H51.9605V43.9607ZM53.2105 45.2107C53.2105 44.5202 52.6508 43.9607 51.9605 43.9607V44.9607C52.0986 44.9607 52.2105 45.0726 52.2105 45.2107H53.2105ZM51.9605 46.4607C52.651 46.4607 53.2105 45.9011 53.2105 45.2107H52.2105C52.2105 45.3489 52.0987 45.4607 51.9605 45.4607V46.4607ZM39.201 46.4607H51.9605V45.4607H39.201V46.4607ZM37.951 45.2107C37.951 45.9011 38.5106 46.4607 39.201 46.4607V45.4607C39.0629 45.4607 38.951 45.3489 38.951 45.2107H37.951ZM44.9872 50.2727H51.9605V49.2727H44.9872V50.2727ZM44.7372 50.5227C44.7372 50.3845 44.8491 50.2727 44.9872 50.2727V49.2727C44.2968 49.2727 43.7372 49.8323 43.7372 50.5227H44.7372ZM44.9872 50.7727C44.8491 50.7727 44.7372 50.6609 44.7372 50.5227H43.7372C43.7372 51.2131 44.2968 51.7727 44.9872 51.7727V50.7727ZM51.9604 50.7727H44.9872V51.7727H51.9604V50.7727ZM52.2104 50.5227C52.2104 50.6609 52.0986 50.7727 51.9604 50.7727V51.7727C52.6509 51.7727 53.2104 51.2131 53.2104 50.5227H52.2104ZM51.9605 50.2727C52.0986 50.2727 52.2104 50.3845 52.2104 50.5227H53.2104C53.2104 49.8323 52.6509 49.2727 51.9605 49.2727V50.2727ZM34.842 59.6772C35.5325 59.6772 36.092 59.1176 36.092 58.4272H35.092C35.092 58.5654 34.9802 58.6772 34.842 58.6772V59.6772ZM33.592 58.4274C33.592 59.1178 34.1518 59.6772 34.842 59.6772V58.6772C34.7039 58.6772 34.592 58.5652 34.592 58.4274H33.592ZM33.592 58.2084V58.4274H34.592V58.2084H33.592ZM32.4685 58.085C33.0304 58.4526 33.4855 58.6334 34.0272 58.7042L34.1569 57.7126C33.7944 57.6652 33.4801 57.5518 33.016 57.2482L32.4685 58.085ZM32.1068 56.3546C31.7287 56.9324 31.8908 57.7071 32.4685 58.085L33.016 57.2482C32.9003 57.1725 32.868 57.0176 32.9435 56.9022L32.1068 56.3546ZM33.837 55.9928C33.2592 55.615 32.4848 55.7769 32.1068 56.3546L32.9435 56.9022C33.0192 56.7865 33.1741 56.7542 33.2897 56.8298L33.837 55.9928ZM34.8347 56.2436C34.5159 56.2451 34.375 56.2367 34.2625 56.2088C34.163 56.1842 34.057 56.1367 33.8371 55.9929L33.2896 56.8297C33.541 56.9942 33.759 57.1143 34.0221 57.1795C34.2722 57.2414 34.5325 57.245 34.8394 57.2436L34.8347 56.2436ZM35.3558 55.8006C35.318 56.0257 35.1371 56.2416 34.8337 56.2436L34.8404 57.2436C35.7301 57.2376 36.2416 56.5641 36.342 55.9662L35.3558 55.8006ZM35.1272 55.4604C35.2188 55.4928 35.2692 55.5277 35.2963 55.5521C35.3225 55.5758 35.336 55.5976 35.3445 55.6173C35.3641 55.6632 35.368 55.7283 35.3559 55.8005L36.342 55.9663C36.3713 55.7924 36.3874 55.5127 36.2639 55.2241C36.1318 54.9151 35.8678 54.6616 35.4605 54.5176L35.1272 55.4604ZM34.8038 55.348C34.9097 55.3844 35.0173 55.4216 35.1273 55.4604L35.4604 54.5176C35.3462 54.4772 35.2354 54.439 35.1291 54.4024L34.8038 55.348ZM34.8451 55.3603L34.8452 55.3603L35.0877 54.3901L35.0877 54.3901L34.8451 55.3603ZM32.7853 54.2402C33.308 54.8468 34.0965 55.1044 34.8036 55.3479L35.1292 54.4024C34.35 54.134 33.8547 53.9494 33.5428 53.5874L32.7853 54.2402ZM32.2509 51.6935C31.9934 52.5767 32.1915 53.5506 32.7852 54.2401L33.5429 53.5875C33.1784 53.1642 33.0446 52.5439 33.211 51.9733L32.2509 51.6935ZM33.9463 49.9739C33.1155 50.2272 32.4945 50.8578 32.2509 51.6935L33.211 51.9733C33.3606 51.4599 33.7314 51.0848 34.2378 50.9305L33.9463 49.9739ZM33.592 50.21V50.4522H34.592V50.21H33.592ZM34.842 48.96C34.1516 48.96 33.592 49.5196 33.592 50.21H34.592C34.592 50.0718 34.7039 49.96 34.842 49.96V48.96ZM36.092 50.21C36.092 49.5196 35.5325 48.96 34.842 48.96V49.96C34.9802 49.96 35.092 50.0718 35.092 50.21H36.092ZM36.092 50.2517V50.21H35.092V50.2517H36.092ZM36.6751 49.9122C36.5811 49.8828 36.187 49.77 35.6076 49.7519L35.5765 50.7515C36.0431 50.766 36.3452 50.8568 36.3763 50.8666L36.6751 49.9122ZM37.4941 51.4789C37.7006 50.8203 37.3342 50.1186 36.6752 49.9123L36.3763 50.8666C36.5079 50.9078 36.5813 51.0479 36.5399 51.1797L37.4941 51.4789ZM35.9376 52.3008C36.5939 52.5005 37.2885 52.134 37.4941 51.479L36.54 51.1796C36.4988 51.311 36.3598 51.384 36.2287 51.3442L35.9376 52.3008ZM34.6755 52.3649C35.3958 52.1477 35.9663 52.309 35.949 52.3042L36.2172 51.3408C36.149 51.3218 35.3653 51.1125 34.3868 51.4075L34.6755 52.3649ZM34.6508 52.3931C34.6554 52.3775 34.6593 52.3698 34.6606 52.3674C34.6618 52.3654 34.6612 52.3669 34.6585 52.3696C34.6558 52.3724 34.6538 52.3735 34.6546 52.373C34.6557 52.3724 34.6618 52.369 34.6754 52.365L34.3869 51.4074C34.0346 51.5136 33.7929 51.7634 33.6909 52.1129L34.6508 52.3931ZM34.6795 52.6086C34.6578 52.5833 34.6246 52.483 34.6509 52.3929L33.6908 52.1131C33.5809 52.4902 33.6545 52.9505 33.9216 53.2608L34.6795 52.6086ZM35.6176 52.984C35.3671 52.8978 35.1333 52.817 34.9435 52.7374C34.8492 52.6979 34.7764 52.663 34.7243 52.6331C34.6652 52.5993 34.6625 52.5888 34.6794 52.6085L33.9216 53.2609C34.0148 53.3691 34.1329 53.4469 34.2276 53.5011C34.3292 53.5592 34.4432 53.612 34.5568 53.6596C34.7829 53.7544 35.0501 53.8462 35.292 53.9296L35.6176 52.984ZM35.9604 53.1032C35.8423 53.0614 35.7274 53.0218 35.6176 52.984L35.2921 53.9296C35.4019 53.9674 35.5132 54.0058 35.6269 54.046L35.9604 53.1032ZM37.8213 56.2149C38.054 54.8306 37.2916 53.5737 35.9603 53.1032L35.627 54.046C36.5139 54.3595 36.9849 55.158 36.8352 56.0491L37.8213 56.2149ZM35.7397 58.6081C36.9132 58.2454 37.652 57.2224 37.8213 56.2149L36.8352 56.0491C36.721 56.7282 36.2159 57.4142 35.4444 57.6527L35.7397 58.6081ZM36.092 58.4272V58.1304H35.092V58.4272H36.092Z" fill="#06D49C"/>
</svg>
