<svg width="80" height="80" viewBox="0 0 80 80" fill="none" xmlns="http://www.w3.org/2000/svg">
<rect width="80" height="80" rx="5" fill="#090930"/>
<path fill-rule="evenodd" clip-rule="evenodd" d="M58.9184 14.2058H21.7419C20.9469 14.2058 20.3008 14.8516 20.3008 15.647C20.3008 16.4423 20.9469 17.0881 21.7419 17.0881H25.7125V18.4978L25.7166 18.9669C25.8356 25.6824 28.5072 31.9796 33.2688 36.7421L34.2147 37.688L34.3539 37.8369C34.8452 38.3991 35.1242 39.1344 35.1242 39.8822C35.1242 40.6979 34.7923 41.499 34.2153 42.0767L33.2697 43.0224L32.9408 43.3571C28.2761 48.1901 25.7125 54.5321 25.7125 61.2667V62.6764H21.7419C20.9469 62.6764 20.3008 63.3221 20.3008 64.1175C20.3008 64.9129 20.9469 65.5587 21.7419 65.5587H58.9183C59.7133 65.5587 60.3596 64.9129 60.3596 64.1175C60.3596 63.3221 59.7134 62.6764 58.9184 62.6764H54.9478V61.2667L54.9436 60.7976C54.8246 54.0824 52.1525 47.7844 47.3904 43.0224L46.4446 42.0765L46.3034 41.9259C45.8064 41.3598 45.5359 40.6433 45.5359 39.8822C45.5359 39.052 45.8578 38.2748 46.4446 37.688L47.3905 36.7421L47.7194 36.4074C52.3839 31.5746 54.9478 25.2318 54.9478 18.4978V17.0881H58.9183C59.7133 17.0881 60.3596 16.4423 60.3596 15.647C60.3596 14.8516 59.7134 14.2058 58.9184 14.2058ZM52.0652 17.7939H28.5942L28.5949 18.4978C28.5949 24.4674 30.8605 30.0867 34.9867 34.3768L35.3077 34.7042L36.2534 35.6499C37.3833 36.7788 38.0066 38.2839 38.0066 39.8822C38.0066 41.3869 37.4542 42.8086 36.4468 43.9114L36.2526 44.1144L35.3068 45.0602C31.0859 49.282 28.7152 54.8569 28.5993 60.8082L28.5949 61.2667L28.5942 61.9699H52.0652L52.0655 61.2667C52.0655 55.297 49.7998 49.6778 45.6736 45.3877L45.3525 45.0603L44.4068 44.1146C43.2767 42.9854 42.6537 41.4812 42.6537 39.8822C42.6537 38.3773 43.2055 36.9564 44.2125 35.8531L44.4067 35.6501L45.3526 34.7042C49.574 30.4829 51.9451 24.9074 52.061 18.9563L52.0655 18.4978L52.0652 17.7939ZM39.0732 24.488C37.8952 23.7284 36.4354 23.55 35.1165 24.0169L34.8968 24.1011C33.6696 24.6089 32.7706 25.625 32.4215 26.9127C32.3491 27.1807 32.3155 27.3916 32.3057 27.5232C32.284 27.8076 32.347 28.106 32.4859 28.3536C33.6625 30.4393 34.6319 31.839 35.9322 33.1393L36.8769 34.0849L37.0878 34.3049C38.2522 35.5732 38.8888 37.2063 38.8888 38.941C38.8888 39.7374 39.534 40.3821 40.3299 40.3821C41.1258 40.3821 41.771 39.7374 41.771 38.941C41.771 37.1055 42.4846 35.3823 43.7817 34.0851L44.7286 33.1383C44.8275 33.0398 44.9381 32.9323 45.0758 32.8008L46.2797 31.6599C48.6559 29.3726 49.2055 28.4717 48.7488 27.3188C48.4957 26.6824 47.9016 26.2057 46.9183 26.2057C42.9838 26.2057 40.5567 25.5529 39.2781 24.6281L39.0732 24.488ZM35.3336 27.3431C35.5017 27.0388 35.7659 26.8447 36.0786 26.7336C36.5792 26.5564 37.1441 26.6411 37.5874 26.9627L37.7783 27.096C39.2708 28.1017 41.5221 28.7929 44.678 29.0131L44.8542 29.0239L44.4451 29.426L42.8968 30.8968L41.7431 32.0473L41.4628 32.339C41.0978 32.7346 40.7677 33.1573 40.475 33.6032L40.3292 33.8359L40.1833 33.6032C39.8174 33.0458 39.3931 32.5247 38.9149 32.0471L37.9703 31.1016L37.7558 30.882C36.9101 29.9955 36.2001 29.0022 35.3768 27.6003L35.2852 27.4429L35.3336 27.3431ZM42.5654 50.6764C44.3359 50.6764 46.0464 51.3779 47.3073 52.612L48.5302 53.8863C50.202 55.6551 50.9235 57.0404 51.1167 59.5357C51.1469 59.9351 51.0098 60.3304 50.7371 60.626C50.4981 60.8839 50.1748 61.0443 49.829 61.0804L49.6796 61.0882H30.9804C30.5792 61.0882 30.1971 60.9214 29.922 60.6259C29.6495 60.3302 29.5119 59.9352 29.5436 59.5361C29.7276 57.148 30.3963 55.7757 31.9186 54.1123L32.3076 53.6987L33.1463 52.8224C34.3558 51.5302 36.0375 50.7603 37.7995 50.6828L38.0939 50.6764H42.5654ZM42.5654 53.5588H38.0939C37.0204 53.5588 35.9839 54.0081 35.2511 54.7917L34.7804 55.287L34.0529 56.0487C33.91 56.2026 33.8031 56.3232 33.6894 56.4576C33.2314 56.999 32.9307 57.4915 32.7299 58.0842L32.6912 58.2049H47.9682L47.9311 58.0849C47.7553 57.5666 47.5033 57.1249 47.1367 56.6601L46.9724 56.4592L46.7658 56.2216C46.6932 56.1406 46.6137 56.0544 46.5183 55.9529L45.4091 54.7908C44.6758 54.0083 43.6388 53.5588 42.5654 53.5588ZM40.3019 41.2646C39.506 41.2646 38.8607 41.9094 38.8607 42.7058V43.6469C38.8607 44.4433 39.506 45.0881 40.3019 45.0881C41.0978 45.0881 41.743 44.4433 41.743 43.6469V42.7058C41.743 41.9094 41.0978 41.2646 40.3019 41.2646ZM38.8607 47.4116C38.8607 46.6152 39.506 45.9704 40.3019 45.9704C41.0977 45.9704 41.743 46.6153 41.743 47.4116V48.3527C41.743 49.1491 41.0978 49.7939 40.3019 49.7939C39.506 49.7939 38.8607 49.1491 38.8607 48.3527V47.4116Z" fill="#FFC43F"/>
</svg>
