<svg xmlns="http://www.w3.org/2000/svg" width="21" height="22" viewBox="0 0 21 22"><g><g><g transform="rotate(-45 10 11)"><g><path fill="#cbcbcc" d="M23.096 9.98v2.76a2.84 2.84 0 0 1-2.84 2.84H3.273a2.84 2.84 0 0 1-1.43-.387l-3.61-2.105a2 2 0 0 1 0-3.456l3.61-2.105a2.84 2.84 0 0 1 1.43-.387h16.983a2.84 2.84 0 0 1 2.84 2.84zm-2.843 3.6a.842.842 0 0 0 .843-.84V9.98a.842.842 0 0 0-.843-.84h-1.306v4.44zM2.85 9.254L-.76 11.36l3.61 2.106a.84.84 0 0 0 .423.114h13.685V9.14H3.273a.84.84 0 0 0-.423.114z"/></g></g></g></g></svg>