<svg xmlns="http://www.w3.org/2000/svg" width="20" height="22" viewBox="0 0 20 22"><g><g><g><path fill="#11c8d0" d="M14.4 1.979v5.934a8.202 8.202 0 0 0-.52-.017c-4.418 0-8 3.547-8 7.922 0 1.542.445 2.982 1.215 4.199H1.816c-1.065 0-1.936-.902-1.936-2.004V1.979C-.12.876.751-.026 1.816-.026h10.648c1.065 0 1.936.902 1.936 2.005zM7.496 7.99c0-.6-.387-1.002-.968-1.002H3.752c-.58 0-.968.401-.968 1.002 0 .602.387 1.003.968 1.003h2.776c.58 0 .968-.401.968-1.003zm4-4.008c0-.601-.387-1.002-.968-1.002H3.752c-.58 0-.968.4-.968 1.002 0 .601.387 1.002.968 1.002h6.776c.58 0 .968-.4.968-1.002z"/></g><g><path fill="#11c8d0" d="M8 15.66c0-3.15 2.686-5.704 6-5.704s6 2.554 6 5.704-2.686 5.704-6 5.704-6-2.554-6-5.704zm7.074-.348c-.303-.164-.625-.29-.944-.42a2.128 2.128 0 0 1-.518-.286c-.308-.242-.25-.635.111-.79a.921.921 0 0 1 .317-.065 2.44 2.44 0 0 1 1.193.232c.188.09.25.062.314-.131.067-.205.123-.412.185-.618.042-.138-.01-.23-.142-.287a3.066 3.066 0 0 0-.752-.222l-.343-.05v-.341c-.002-.476-.002-.476-.486-.476-.07 0-.14-.002-.21 0-.227.006-.374.058-.38.283-.004.1 0 .2-.002.303v.32s-.11.037-.185.065c-.7.262-1.135.722-1.181 1.477-.042.667.312 1.118.869 1.446.342.203.722.322 1.085.481.142.061.278.132.396.23.349.284.285.757-.13.936-.221.095-.455.119-.696.09a3.144 3.144 0 0 1-1.062-.313c-.196-.101-.253-.074-.32.135-.058.18-.109.363-.16.545-.068.245-.043.303.195.418.303.144.626.218.956.27.124.02.27.028.27.028s-.002.15 0 .288l.003.36c.002.15.075.238.233.241.178.003.403 0 .582-.005.146-.003.221-.081.221-.228l.002-.491v-.254s.098-.015.183-.038c.375-.1.694-.299.94-.594.682-.817.422-2.012-.544-2.539z"/></g></g></g></svg>