<svg width="20" height="20" viewBox="0 0 20 20" fill="none" xmlns="http://www.w3.org/2000/svg">
<g opacity="0.1">
<path d="M0.292893 18.2929C-0.0976311 18.6834 -0.0976311 19.3166 0.292893 19.7071C0.683418 20.0976 1.31658 20.0976 1.70711 19.7071L0.292893 18.2929ZM19.6777 1.32233C19.6777 0.770046 19.23 0.322331 18.6777 0.32233L9.67767 0.322331C9.12538 0.322331 8.67767 0.770046 8.67767 1.32233C8.67767 1.87462 9.12538 2.32233 9.67767 2.32233L17.6777 2.32233L17.6777 10.3223C17.6777 10.8746 18.1254 11.3223 18.6777 11.3223C19.23 11.3223 19.6777 10.8746 19.6777 10.3223L19.6777 1.32233ZM1.70711 19.7071L19.3848 2.02944L17.9706 0.615224L0.292893 18.2929L1.70711 19.7071Z" fill="white"/>
</g>
</svg>
