<svg width="43" height="43" viewBox="0 0 43 43" fill="none" xmlns="http://www.w3.org/2000/svg">
<g id="icons/social/medium">
<path id="Shape 34 copy 5" d="M21.9993 2.49477C32.7691 2.49477 41.4999 11.2255 41.4999 21.9953C41.4999 32.7654 32.7691 41.4959 21.9993 41.4959C11.2294 41.4959 2.49868 32.7654 2.49868 21.9953C2.49868 11.2255 11.2294 2.49477 21.9993 2.49477Z" fill="#319BE2" fill-opacity="0.01" stroke="#319BE2"/>
<path id="Shape 1" fill-rule="evenodd" clip-rule="evenodd" d="M10.0425 12.3572H17.2726L22.6489 24.2254L27.2836 12.3572H34.1429V12.9135L32.1036 14.768V29.2322L34.1429 31.272V31.6428H24.5027V31.272L26.7274 29.0467V17.7348L21.1658 31.6428H20.6096L14.1211 17.7348V27.5633L17.0872 31.272V31.6428H9.85718V31.0864L12.6379 27.7485V15.6951L10.0425 12.7279V12.3572Z" fill="#319BE2"/>
</g>
</svg>
