<svg width="43" height="43" viewBox="0 0 43 43" fill="none" xmlns="http://www.w3.org/2000/svg">
<g id="icons/social/twitter">
<path id="Shape 34 copy 3" d="M21.9993 2.49477C32.7692 2.49477 41.4999 11.2255 41.4999 21.9953C41.4999 32.7654 32.7692 41.4959 21.9993 41.4959C11.2294 41.4959 2.49864 32.7654 2.49864 21.9953C2.49864 11.2255 11.2294 2.49477 21.9993 2.49477Z" fill="#319BE2" fill-opacity="0.01" stroke="#319BE2"/>
<path id="Shape 35 copy" fill-rule="evenodd" clip-rule="evenodd" d="M34.2504 15.6544C33.3933 16.0345 32.4713 16.2915 31.5044 16.4064C32.4917 15.8147 33.2493 14.8789 33.6069 13.7618C32.6831 14.31 31.6595 14.7074 30.571 14.9218C29.699 13.993 28.4564 13.4126 27.0806 13.4126C24.4408 13.4126 22.2998 15.5535 22.2998 18.1933C22.2998 18.568 22.3423 18.9326 22.4243 19.2827C18.4511 19.0834 14.9283 17.1804 12.5702 14.287C12.1588 14.993 11.9227 15.8147 11.9227 16.6908C11.9227 18.3491 12.7673 19.8129 14.0494 20.67C13.2661 20.6456 12.5284 20.4304 11.8842 20.0713C11.8838 20.0918 11.8838 20.112 11.8838 20.1322C11.8838 22.4485 13.5325 24.3804 15.719 24.8192C15.3183 24.9291 14.8952 24.9874 14.4598 24.9874C14.1511 24.9874 13.8519 24.9577 13.5602 24.9022C14.1685 26.801 15.9336 28.1832 18.0262 28.2222C16.3897 29.5047 14.3286 30.2686 12.0882 30.2686C11.7031 30.2686 11.3216 30.2462 10.9483 30.2017C13.0629 31.5584 15.5764 32.3496 18.2761 32.3496C27.0695 32.3496 31.8784 25.065 31.8784 18.7468C31.8784 18.5397 31.8738 18.3334 31.8645 18.1288C32.7993 17.4548 33.6097 16.6132 34.2504 15.6544Z" fill="#319BE2"/>
</g>
</svg>
