<svg width="60" height="60" viewBox="0 0 60 60" fill="none" xmlns="http://www.w3.org/2000/svg">
<circle cx="30" cy="30" r="30" fill="#233A7D"/>
<path fill-rule="evenodd" clip-rule="evenodd" d="M39.5128 19.4726C40.1501 19.6957 40.5759 20.2965 40.5759 20.9717V30.849C40.5759 33.6097 39.5726 36.2449 37.8007 38.2865C36.9096 39.3147 35.7823 40.1153 34.5851 40.7628L29.3963 43.5657L24.1988 40.7613C23.0001 40.1138 21.8713 39.3147 20.9788 38.2851C19.2055 36.2434 18.1992 33.6067 18.1992 30.8432V20.9717C18.1992 20.2965 18.6251 19.6957 19.2623 19.4726L28.8611 16.0995C29.2023 15.9799 29.5742 15.9799 29.914 16.0995L39.5128 19.4726Z" stroke="#319BE2" stroke-width="1.5" stroke-linecap="round" stroke-linejoin="round"/>
<path d="M25.5957 29.38L28.3549 32.1406L34.0395 26.4561" stroke="white" stroke-width="1.5" stroke-linecap="round" stroke-linejoin="round"/>
</svg>
