<svg width="60" height="60" viewBox="0 0 60 60" fill="none" xmlns="http://www.w3.org/2000/svg">
<circle cx="30" cy="30" r="30" fill="#233A7D"/>
<path d="M16.0894 35.5708C16.0894 35.5708 16.2964 38.1054 16.3446 38.9045C16.4087 39.9764 16.8229 41.1737 17.5141 42.005C18.4898 43.1833 19.6389 43.5989 21.1731 43.6018C22.9771 43.6048 36.0948 43.6048 37.8987 43.6018C39.4329 43.5989 40.5821 43.1833 41.5577 42.005C42.2489 41.1737 42.6631 39.9764 42.7287 38.9045C42.7754 38.1054 42.9825 35.5708 42.9825 35.5708" stroke="#319BE2" stroke-width="1.5" stroke-linecap="round" stroke-linejoin="round"/>
<path d="M24.39 20.7723V20.2312C24.39 18.4521 25.8308 17.0112 27.61 17.0112H31.3754C33.1531 17.0112 34.5954 18.4521 34.5954 20.2312L34.5969 20.7723" stroke="white" stroke-width="1.5" stroke-linecap="round" stroke-linejoin="round"/>
<path d="M29.4927 37.3226V35.4355" stroke="white" stroke-width="1.5" stroke-linecap="round" stroke-linejoin="round"/>
<path fill-rule="evenodd" clip-rule="evenodd" d="M16.0103 25.234V30.29C18.8073 32.1348 22.1586 33.4269 25.8365 33.9388C26.2769 32.3332 27.725 31.1563 29.4853 31.1563C31.2178 31.1563 32.695 32.3332 33.1063 33.9534C36.7988 33.4415 40.1632 32.1494 42.9748 30.29V25.234C42.9748 22.7636 40.9871 20.7744 38.5167 20.7744H20.483C18.0125 20.7744 16.0103 22.7636 16.0103 25.234Z" fill="#319BE2" fill-opacity="0.1" stroke="#319BE2" stroke-width="1.5" stroke-linecap="round" stroke-linejoin="round"/>
</svg>
