<svg width="43" height="43" viewBox="0 0 43 43" fill="none" xmlns="http://www.w3.org/2000/svg">
<g id="icons/social/youtube">
<path id="Shape 34 copy 4" d="M21.9993 2.49477C32.7692 2.49477 41.4999 11.2255 41.4999 21.9953C41.4999 32.7654 32.7692 41.4959 21.9993 41.4959C11.2294 41.4959 2.49864 32.7654 2.49864 21.9953C2.49864 11.2255 11.2294 2.49477 21.9993 2.49477Z" fill="#319BE2" fill-opacity="0.01" stroke="#319BE2"/>
<path id="Combined shape 3163" fill-rule="evenodd" clip-rule="evenodd" d="M21.5173 18.2506C22.1497 18.2506 22.6449 18.0494 23.0073 17.7632C23.3673 17.4757 23.5473 17.0844 23.5473 16.5819V13.5495C23.5473 13.103 23.3636 12.7342 22.9973 12.4506C22.6285 12.1667 22.1572 12.0257 21.5798 12.0257C20.9486 12.0257 20.4435 12.1594 20.0698 12.4282C19.6948 12.6981 19.5072 13.0582 19.5072 13.5145V16.5567C19.5072 17.0567 19.6897 17.4519 20.0547 17.7481C20.4196 18.0443 20.9086 18.2506 21.5173 18.2506ZM20.8561 13.6619C20.8561 13.547 20.9161 13.4545 21.0349 13.3808C21.1549 13.3096 21.3099 13.2746 21.5 13.2746C21.7074 13.2746 21.8749 13.3096 22.0013 13.3808C22.1288 13.4545 22.1913 13.547 22.1913 13.6619V16.5444C22.1913 16.687 22.1288 16.7994 22.0037 16.8807C21.8788 16.9608 21.7113 17.002 21.5 17.002C21.2937 17.002 21.1337 16.9634 21.0224 16.8821C20.9124 16.8031 20.8561 16.6907 20.8561 16.5444V13.6619ZM25.7024 18.247C25.9248 18.247 26.1511 18.1194 26.3862 17.9919C26.6238 17.8619 26.8499 17.6719 27.0675 17.4244V18.0981H28.2488V12.0168H27.0675V16.6332C26.9576 16.7644 26.835 16.8731 26.7038 16.9594C26.57 17.0444 26.46 17.0881 26.3738 17.0881C26.2626 17.0881 26.1813 17.057 26.1338 16.9908C26.0839 16.9269 26.0564 16.8232 26.0564 16.6806V12.0182H24.8776V17.0996C24.8776 17.4619 24.9488 17.7332 25.0851 17.9132C25.2236 18.0945 25.4285 18.247 25.7024 18.247ZM29.1374 20.7609H14.8622C12.5922 20.7609 10.7534 22.5296 10.7534 24.7084V28.046C10.7534 30.2259 12.5922 31.9946 14.8622 31.9946H29.1373C31.406 31.9946 33.2461 30.2259 33.2461 28.046V24.7084C33.2463 22.5293 31.4062 20.7609 29.1374 20.7609ZM16.9859 24.1484H15.7236V29.3758H14.5023V24.1484H13.2398V23.2569H16.9861C16.9859 23.2569 16.9859 24.1484 16.9859 24.1484ZM20.7536 29.4484H19.4373V28.9058C19.1923 29.106 18.9411 29.2595 18.6761 29.3621C18.4148 29.4697 18.1598 29.5207 17.9124 29.5207C17.6075 29.5207 17.3799 29.447 17.2248 29.2985C17.0723 29.1522 16.9936 28.9322 16.9936 28.6385V24.5108H18.3099V28.2971C18.3099 28.4148 18.3374 28.4972 18.3899 28.5496C18.4475 28.6034 18.5386 28.627 18.6613 28.627C18.7563 28.627 18.8813 28.5934 19.0287 28.5233C19.1774 28.4546 19.3138 28.3672 19.4374 28.2584V24.5097H20.7537C20.7536 24.5097 20.7536 29.4484 20.7536 29.4484ZM25.736 28.5084C25.736 28.8321 25.6334 29.0782 25.4298 29.2522C25.2285 29.4257 24.9311 29.5109 24.5474 29.5109C24.2912 29.5109 24.0636 29.4784 23.866 29.412C23.6673 29.3459 23.4798 29.2433 23.3098 29.102V29.4521H21.9961V23.2569H23.3098V25.2532C23.4873 25.1159 23.6735 25.0083 23.8673 24.9359C24.066 24.8622 24.266 24.8272 24.4673 24.8272C24.8786 24.8272 25.1923 24.9233 25.4085 25.117C25.6272 25.3121 25.736 25.5985 25.736 25.9721V28.5084ZM30.7436 27.1144H28.3187V28.007C28.3187 28.2559 28.3586 28.4283 28.4424 28.5258C28.5274 28.6219 28.6711 28.6696 28.8724 28.6696C29.0849 28.6696 29.23 28.6284 29.3149 28.5471C29.3974 28.4644 29.4425 28.2856 29.4425 28.0059V27.7907H30.7463V28.0334C30.7463 28.5182 30.59 28.8834 30.2675 29.1295C29.95 29.3744 29.4749 29.4969 28.8437 29.4969C28.275 29.4969 27.8275 29.3669 27.5013 29.1071C27.1763 28.8495 27.0112 28.4897 27.0112 28.0345V25.9071C27.0112 25.4982 27.1912 25.1607 27.5513 24.902C27.91 24.6445 28.37 24.5158 28.9387 24.5158C29.5187 24.5158 29.965 24.6358 30.2775 24.8746C30.5887 25.1134 30.7438 25.4581 30.7438 25.9059C30.7436 25.9059 30.7436 27.1144 30.7436 27.1144ZM16.2786 18.2646H17.7698V14.6308L19.5061 9.50562H17.9898L17.0672 13.0083H16.9723L16.0048 9.50562H14.501L16.2784 14.7944C16.2786 14.7944 16.2786 18.2646 16.2786 18.2646ZM23.8535 25.552L23.5773 25.5971L23.3086 25.7358V28.5833C23.4136 28.657 23.5173 28.7133 23.6174 28.7444L23.9311 28.7932C24.0911 28.7932 24.2074 28.7621 24.2823 28.6957C24.3561 28.632 24.3948 28.5269 24.3948 28.3832V26.022C24.3948 25.8659 24.351 25.7495 24.2586 25.6708C24.1636 25.592 24.0298 25.552 23.8535 25.552Z" fill="#319BE2"/>
</g>
</svg>
