<svg width="20" height="20" viewBox="0 0 20 20" fill="none" xmlns="http://www.w3.org/2000/svg">
<path d="M19.378 13.4782C19.78 12.395 20 11.2232 20 10C20 8.7768 19.78 7.60512 19.378 6.52176L10 5.65219L0.621992 6.52176C0.220039 7.60512 0 8.7768 0 10C0 11.2232 0.220039 12.395 0.621992 13.4782L10 14.3478L19.378 13.4782Z" fill="#F0F0F0"/>
<path d="M10.0001 20C14.2997 20 17.9652 17.2862 19.3781 13.4782H0.62207C2.03504 17.2862 5.70043 20 10.0001 20Z" fill="#D80027"/>
<path d="M10.0001 0C5.70043 0 2.03504 2.71375 0.62207 6.52176H19.3781C17.9652 2.71375 14.2997 0 10.0001 0Z" fill="#D80027"/>
</svg>
