<svg width="243" height="157" viewBox="0 0 243 157" fill="none" xmlns="http://www.w3.org/2000/svg">
<g id="illustration_01">
<mask id="mask0" mask-type="alpha" maskUnits="userSpaceOnUse" x="0" y="0" width="243" height="157">
<rect id="Rectangle 62" width="243" height="157" fill="#C4C4C4"/>
</mask>
<g mask="url(#mask0)">
<g id="Group 20">
<g id="Group 3 Copy">
<rect id="Rectangle" opacity="0.8" x="52.7637" y="26.8407" width="190" height="120" rx="5" fill="#1F204E"/>
<rect id="Rectangle Copy 3" opacity="0.8" x="52.7637" y="51.8407" width="190" height="25" fill="#090B2F"/>
</g>
<g id="Group 3">
<rect id="Rectangle_2" x="-0.477539" y="39.6864" width="190" height="120" rx="5" transform="rotate(-12 -0.477539 39.6864)" fill="#24265A"/>
<circle id="Oval" cx="155.355" cy="32.1217" r="8" transform="rotate(-12 155.355 32.1217)" stroke="#1A1B47" stroke-width="2"/>
<circle id="Oval Copy" cx="166.115" cy="29.8347" r="8" transform="rotate(-12 166.115 29.8347)" stroke="#1A1B47" stroke-width="2"/>
<path id="****************" fill-rule="evenodd" clip-rule="evenodd" d="M29.6663 93.7711L30.1092 95.8545L29.4342 95.998L29.0061 93.9114L27.3997 95.3723L26.9166 94.8309L28.5323 93.414L26.48 92.7768L26.698 92.0711L28.7628 92.767L28.3053 90.6866L28.9802 90.5432L29.4231 92.6266L31.0263 91.151L31.4979 91.7102L29.8968 93.124L31.9345 93.7643L31.728 94.4523L29.6663 93.7711ZM36.8948 92.2346L37.3377 94.318L36.6627 94.4615L36.2346 92.3749L34.6282 93.8358L34.1451 93.2945L35.7608 91.8776L33.7085 91.2403L33.9265 90.5346L35.9913 91.2305L35.5338 89.1502L36.2087 89.0067L36.6516 91.0902L38.2548 89.6146L38.7264 90.1738L37.1253 91.5875L39.163 92.2279L38.9565 92.9158L36.8948 92.2346ZM44.5662 92.7816L44.1233 90.6981L46.185 91.3794L46.3915 90.6914L44.3538 90.0511L45.9549 88.6373L45.4833 88.0781L43.8801 89.5537L43.4372 87.4702L42.7623 87.6137L43.2198 89.694L41.155 88.9981L40.937 89.7039L42.9893 90.3411L41.3736 91.758L41.8567 92.2994L43.4631 90.8385L43.8913 92.925L44.5662 92.7816ZM51.3518 89.1617L51.7947 91.2451L51.1198 91.3886L50.6916 89.302L49.0852 90.7629L48.6021 90.2215L50.2178 88.8046L48.1655 88.1674L48.3835 87.4617L50.4483 88.1576L49.9908 86.0772L50.6657 85.9338L51.1086 88.0172L52.7118 86.5416L53.1834 87.1008L51.5823 88.5146L53.62 89.1549L53.4135 89.8429L51.3518 89.1617ZM74.0769 86.5089L73.634 84.4254L75.6957 85.1067L75.9022 84.4187L73.8645 83.7784L75.4656 82.3646L74.994 81.8054L73.3908 83.281L72.9479 81.1975L72.273 81.341L72.7305 83.4213L70.6657 82.7254L70.4477 83.4312L72.5 84.0684L70.8843 85.4853L71.3674 86.0267L72.9738 84.5658L73.402 86.6523L74.0769 86.5089ZM80.8626 82.889L81.3054 84.9724L80.6305 85.1159L80.2023 83.0293L78.5959 84.4902L78.1128 83.9488L79.7285 82.5319L77.6762 81.8947L77.8942 81.189L79.959 81.8849L79.5015 79.8045L80.1764 79.6611L80.6193 81.7445L82.2225 80.2689L82.6941 80.8281L81.0931 82.2419L83.1307 82.8822L82.9242 83.5702L80.8626 82.889ZM88.5339 83.4359L88.0911 81.3525L90.1528 82.0337L90.3592 81.3458L88.3216 80.7054L89.9226 79.2917L89.4511 78.7325L87.8478 80.2081L87.405 78.1246L86.73 78.2681L87.1876 80.3484L85.1227 79.6525L84.9047 80.3582L86.9571 80.9955L85.3413 82.4124L85.8245 82.9537L87.4308 81.4928L87.859 83.5794L88.5339 83.4359ZM95.3196 79.816L95.7624 81.8995L95.0875 82.0429L94.6593 79.9564L93.053 81.4173L92.5698 80.8759L94.1856 79.459L92.1332 78.8218L92.3513 78.116L94.4161 78.8119L93.9585 76.7316L94.6335 76.5881L95.0763 78.6716L96.6796 77.196L97.1511 77.7552L95.5501 79.169L97.5877 79.8093L97.3813 80.4973L95.3196 79.816ZM118.045 77.1633L117.602 75.0798L119.663 75.761L119.87 75.0731L117.832 74.4327L119.433 73.019L118.962 72.4598L117.359 73.9354L116.916 71.8519L116.241 71.9954L116.698 74.0757L114.633 73.3798L114.415 74.0855L116.468 74.7228L114.852 76.1397L115.335 76.681L116.942 75.2201L117.37 77.3067L118.045 77.1633ZM124.83 73.5433L125.273 75.6268L124.598 75.7702L124.17 73.6837L122.564 75.1446L122.081 74.6032L123.696 73.1863L121.644 72.5491L121.862 71.8433L123.927 72.5392L123.469 70.4589L124.144 70.3154L124.587 72.3989L126.19 70.9233L126.662 71.4825L125.061 72.8963L127.098 73.5366L126.892 74.2246L124.83 73.5433ZM132.502 74.0903L132.059 72.0069L134.12 72.6881L134.327 72.0001L132.289 71.3598L133.89 69.946L133.419 69.3869L131.816 70.8624L131.373 68.779L130.698 68.9224L131.155 71.0028L129.09 70.3069L128.872 71.0126L130.925 71.6498L129.309 73.0667L129.792 73.6081L131.399 72.1472L131.827 74.2338L132.502 74.0903ZM139.287 70.4704L139.73 72.5538L139.055 72.6973L138.627 70.6107L137.021 72.0716L136.538 71.5303L138.153 70.1134L136.101 69.4761L136.319 68.7704L138.384 69.4663L137.926 67.386L138.601 67.2425L139.044 69.326L140.647 67.8504L141.119 68.4096L139.518 69.8233L141.555 70.4637L141.349 71.1516L139.287 70.4704ZM156.897 68.905L156.454 66.8215L158.515 67.5028L158.722 66.8148L156.684 66.1745L158.285 64.7607L157.814 64.2015L156.211 65.6771L155.768 63.5937L155.093 63.7371L155.55 65.8175L153.485 65.1215L153.267 65.8273L155.32 66.4645L153.704 67.8814L154.187 68.4228L155.794 66.9619L156.222 69.0485L156.897 68.905ZM163.682 65.2851L164.125 67.3685L163.45 67.512L163.022 65.4254L161.416 66.8863L160.933 66.3449L162.548 64.9281L160.496 64.2908L160.714 63.5851L162.779 64.281L162.321 62.2007L162.996 62.0572L163.439 64.1406L165.042 62.6651L165.514 63.2242L163.913 64.638L165.95 65.2784L165.744 65.9663L163.682 65.2851ZM171.354 65.8321L170.911 63.7486L172.973 64.4298L173.179 63.7419L171.141 63.1015L172.742 61.6878L172.271 61.1286L170.668 62.6042L170.225 60.5207L169.55 60.6642L170.007 62.7445L167.943 62.0486L167.724 62.7544L169.777 63.3916L168.161 64.8085L168.644 65.3499L170.251 63.889L170.679 65.9755L171.354 65.8321ZM178.139 62.2121L178.582 64.2956L177.907 64.4391L177.479 62.3525L175.873 63.8134L175.39 63.272L177.005 61.8551L174.953 61.2179L175.171 60.5121L177.236 61.2081L176.778 59.1277L177.453 58.9843L177.896 61.0677L179.499 59.5921L179.971 60.1513L178.37 61.5651L180.408 62.2054L180.201 62.8934L178.139 62.2121Z" fill="#319BE2"/>
<path id="GavinPerry" fill-rule="evenodd" clip-rule="evenodd" d="M50.9204 118.752C51.2882 118.674 51.4899 118.353 51.4167 118.009C51.3485 117.688 51.0309 117.502 50.6709 117.578C50.3109 117.655 50.0998 117.97 50.1696 118.298C50.2395 118.627 50.5604 118.829 50.9204 118.752ZM38.8377 125.761C38.3646 126.344 37.6163 126.749 36.8416 126.913C35.1435 127.274 33.6404 126.359 33.2927 124.723C32.9451 123.088 33.946 121.64 35.6597 121.276C36.5752 121.081 37.407 121.224 38.0482 121.701L37.5396 122.463C37.0177 122.124 36.4831 122.033 35.8963 122.158C34.7303 122.406 34.0767 123.371 34.3178 124.506C34.554 125.617 35.5486 126.256 36.7068 126.01C37.098 125.927 37.4648 125.767 37.7737 125.489L37.4111 123.783L38.3736 123.578L38.8377 125.761ZM43.3644 124.914C43.2061 125.323 42.7955 125.623 42.1695 125.756C41.2148 125.959 40.5008 125.563 40.3461 124.835C40.1981 124.139 40.5512 123.491 41.8189 123.222L42.8987 122.992L42.8854 122.93C42.764 122.359 42.3482 122.095 41.6517 122.243C41.1822 122.343 40.7303 122.603 40.4722 122.928L39.9374 122.297C40.3103 121.858 40.9232 121.548 41.5961 121.405C42.8012 121.148 43.6191 121.572 43.8752 122.777L44.3958 125.226L43.4725 125.422L43.3644 124.914ZM42.2216 125.001C41.7208 125.108 41.3752 124.944 41.3003 124.592C41.2355 124.287 41.3622 123.998 42.0273 123.857L43.0368 123.642L43.1399 124.127C43.0671 124.592 42.6989 124.9 42.2216 125.001ZM49.2787 119.821L48.3749 124.38L47.3655 124.595L44.6853 120.797L45.7026 120.581L47.6602 123.403L48.3397 120.02L49.2787 119.821ZM51.5519 119.337L52.4401 123.516L51.462 123.724L50.5738 119.545L51.5519 119.337ZM55.3863 122.89L54.9372 120.777C54.7592 119.94 55.1389 119.417 55.8354 119.269C56.4614 119.136 56.9057 119.418 57.0637 120.162L57.5461 122.431L58.5242 122.223L58.0152 119.828C57.7474 118.569 56.8826 118.155 55.881 118.368C55.2706 118.498 54.8053 118.81 54.5659 119.261L54.4512 118.721L53.52 118.919L54.4082 123.098L55.3863 122.89ZM64.0728 119.391L64.4087 120.972L63.3915 121.188L62.2272 115.711L64.4808 115.232C65.9206 114.926 66.9691 115.472 67.2269 116.685C67.483 117.89 66.749 118.823 65.3091 119.129L64.0728 119.391ZM65.0792 118.278L63.8898 118.531L63.4274 116.355L64.6168 116.102C65.5089 115.913 66.0554 116.214 66.2018 116.902C66.3481 117.591 65.9713 118.088 65.0792 118.278ZM73.0829 118.474C72.8021 119 72.2651 119.359 71.5452 119.512C70.1445 119.81 69.0455 119.103 68.781 117.859C68.5166 116.615 69.2425 115.528 70.4867 115.264C71.7074 115.004 72.7808 115.668 73.0586 116.974C73.0752 117.053 73.0923 117.172 73.1045 117.267L69.8257 117.964C70.0728 118.55 70.6646 118.833 71.3924 118.678C71.8619 118.578 72.1981 118.351 72.4306 117.983L73.0829 118.474ZM72.0509 116.812L69.6798 117.316C69.644 116.686 70.0192 116.181 70.653 116.046C71.2947 115.91 71.8445 116.226 72.0509 116.812ZM75.6688 116.46L76.0996 118.487L75.1214 118.695L74.2332 114.516L75.1644 114.319L75.2941 114.929C75.4827 114.431 75.9448 114.104 76.6412 113.956L76.8391 114.887C76.7497 114.889 76.6777 114.897 76.6072 114.911C75.8638 115.069 75.4875 115.608 75.6688 116.46ZM80.0317 117.651L79.6009 115.625C79.4196 114.772 79.796 114.234 80.5394 114.076C80.6098 114.061 80.6819 114.054 80.7713 114.051L80.5734 113.12C79.8769 113.268 79.4149 113.595 79.2263 114.093L79.0966 113.483L78.1654 113.681L79.0536 117.859L80.0317 117.651ZM85.17 116.911C84.9879 117.939 84.5173 118.342 83.8209 118.49C83.4061 118.578 82.938 118.53 82.6204 118.344L82.8586 117.541C83.0846 117.681 83.374 117.734 83.64 117.678C83.9844 117.605 84.1529 117.397 84.2525 116.942L84.288 116.763L81.5732 112.956L82.5905 112.74L84.5621 115.552L85.2276 112.18L86.1666 111.98L85.17 116.911Z" fill="#319BE2"/>
<path id="03/24" fill-rule="evenodd" clip-rule="evenodd" d="M137.434 98.5638L136.418 106.484L135.542 106.67L136.557 98.75L137.434 98.5638ZM128.838 104.415C129.221 106.214 128.451 107.441 127.144 107.719C125.845 107.995 124.643 107.188 124.261 105.388C123.878 103.588 124.648 102.361 125.947 102.085C127.254 101.807 128.456 102.615 128.838 104.415ZM125.286 105.17C125.567 106.492 126.213 106.993 126.957 106.835C127.708 106.675 128.094 105.955 127.813 104.633C127.532 103.31 126.886 102.81 126.135 102.969C125.391 103.127 125.005 103.847 125.286 105.17ZM132.454 106.591C133.925 106.278 134.452 105.332 134.255 104.408C134.081 103.587 133.425 103.08 132.364 103.166L133.358 101.303L133.214 100.622L129.481 101.416L129.662 102.269L132.151 101.74L131.221 103.483L131.369 104.179L131.87 104.073C132.699 103.897 133.127 104.141 133.232 104.634C133.34 105.143 132.978 105.555 132.25 105.71C131.632 105.841 130.992 105.756 130.531 105.511L130.261 106.394C130.855 106.685 131.679 106.755 132.454 106.591ZM143.51 104.159L143.327 103.298L140.745 103.847L141.912 102.143C142.519 101.27 142.565 100.753 142.452 100.221C142.246 99.2503 141.351 98.8108 140.161 99.0636C139.261 99.2549 138.574 99.7527 138.273 100.414L139.101 100.81C139.323 100.354 139.731 100.079 140.263 99.9661C140.936 99.8231 141.342 100.039 141.448 100.54C141.513 100.845 141.488 101.186 141.064 101.808L139.327 104.336L139.472 105.017L143.51 104.159ZM148.312 101.838L148.577 103.082L147.591 103.291L147.326 102.047L144.321 102.686L144.172 101.982L146.121 97.8786L147.209 97.6474L145.383 101.561L147.175 101.18L146.94 100.076L147.895 99.8734L148.129 100.977L149.1 100.771L149.283 101.631L148.312 101.838Z" fill="#319BE2"/>
<rect id="Rectangle_3" x="17.3135" y="51.24" width="27" height="20" rx="2" transform="rotate(-12 17.3135 51.24)" fill="#1A1B47"/>
<path id="Line 2" d="M37.2616 46.4887C37.2616 46.4887 35.4707 52.4922 36.6142 57.8721C37.7577 63.2519 41.8356 68.0079 41.8356 68.0079" stroke="#24265A" stroke-width="2" stroke-linecap="square"/>
<path id="Line 2 Copy" d="M23.5675 49.3995C23.5675 49.3995 27.6455 54.1556 28.789 59.5354C29.9325 64.9152 28.1416 70.9187 28.1416 70.9187" stroke="#24265A" stroke-width="2" stroke-linecap="square"/>
<path id="Line 3" d="M19.0071 61.6145L47.3734 55.585" stroke="#24265A" stroke-width="2" stroke-linecap="square"/>
</g>
</g>
<g id="Group 7">
<rect id="Rectangle_4" x="56" y="5.99988" width="65" height="30" rx="2" fill="#22397C"/>
<path id="EUR" fill-rule="evenodd" clip-rule="evenodd" d="M92.5001 24.4399V25.9999H85.9961V17.5999H92.3441V19.1599H87.9281V20.9839H91.8281V22.4959H87.9281V24.4399H92.5001ZM101.584 22.3039C101.584 24.7759 100.168 26.1439 97.7801 26.1439C95.3921 26.1439 93.9761 24.7759 93.9761 22.3039V17.5999H95.9201V22.2319C95.9201 23.8279 96.6161 24.4879 97.7921 24.4879C98.9801 24.4879 99.6641 23.8279 99.6641 22.2319V17.5999H101.584V22.3039ZM105.448 25.9999V23.6599H107.236L108.856 25.9999H110.944L109.06 23.2999C110.152 22.8319 110.788 21.9079 110.788 20.6479C110.788 18.7639 109.384 17.5999 107.14 17.5999H103.504V25.9999H105.448ZM105.448 22.1119H107.032C108.22 22.1119 108.82 21.5599 108.82 20.6479C108.82 19.7239 108.22 19.1839 107.032 19.1839H105.448V22.1119Z" fill="white"/>
<g id="Group 6">
<circle id="Oval_2" cx="73" cy="21.9999" r="8" fill="#319BE2"/>
<path id="euro" fill-rule="evenodd" clip-rule="evenodd" d="M75.3659 25.1314C75.2819 24.9121 75.1963 24.6928 75.103 24.4768C75.0205 24.2841 74.9147 24.2277 74.7172 24.2758C74.4667 24.3373 74.2209 24.4187 73.9704 24.4735C73.4866 24.5815 73.0012 24.5915 72.5236 24.4303C71.9247 24.2293 71.6058 23.7658 71.4098 23.1678H73.0339C73.1615 23.1678 73.2641 23.0581 73.2641 22.9219V22.3754C73.2641 22.2392 73.1615 22.1295 73.0339 22.1295H71.2542C71.2542 21.9767 71.2526 21.8305 71.2542 21.6843H73.0339C73.1615 21.6843 73.2641 21.5747 73.2641 21.4384V20.8919C73.2641 20.7557 73.1615 20.646 73.0339 20.646H71.4782C71.4782 20.6394 71.4782 20.6327 71.4813 20.6294C71.668 20.1759 71.9402 19.8121 72.3867 19.6227C72.9063 19.4034 73.4368 19.4084 73.972 19.5264C74.2256 19.5812 74.4745 19.6642 74.728 19.7257C74.9132 19.7706 75.0205 19.7124 75.0999 19.528C75.1916 19.3154 75.2756 19.0994 75.3597 18.8818C75.439 18.6775 75.3923 18.5329 75.2119 18.42C75.1667 18.3917 75.1201 18.3685 75.0718 18.3485C74.322 18.0362 73.5488 17.9199 72.7508 18.0562C72.1892 18.1525 71.6649 18.3585 71.2122 18.7339C70.6413 19.2057 70.271 19.8287 70.0563 20.5613L70.0299 20.646H69.2302C69.1027 20.646 69 20.7557 69 20.8919V21.4384C69 21.5747 69.1027 21.6843 69.2302 21.6843H69.8603C69.8603 21.8338 69.8603 21.9783 69.8603 22.1295H69.2302C69.1027 22.1295 69 22.2392 69 22.3754V22.9219C69 23.0581 69.1027 23.1678 69.2302 23.1678H69.9894C70.047 23.3671 70.0952 23.5698 70.1683 23.7608C70.5526 24.7509 71.1966 25.4553 72.1658 25.7909C72.967 26.0683 73.7744 26.06 74.5818 25.8224C74.7918 25.761 75.0003 25.6812 75.1994 25.5832C75.3923 25.4885 75.4421 25.3291 75.3659 25.1314Z" fill="white"/>
</g>
</g>
<g id="Group 7 Copy">
<rect id="Rectangle_5" x="165" y="104" width="65" height="30" rx="2" fill="#22397C"/>
<path id="USD" fill-rule="evenodd" clip-rule="evenodd" d="M210.776 121.54C210.776 122.944 209.612 124.144 207.212 124.144C205.88 124.144 204.536 123.748 203.792 123.172L204.452 121.708C205.16 122.224 206.216 122.584 207.224 122.584C208.376 122.584 208.844 122.2 208.844 121.684C208.844 121.031 208.002 120.836 207.018 120.607C205.63 120.285 203.96 119.897 203.96 118.072C203.96 116.644 205.112 115.456 207.5 115.456C208.556 115.456 209.636 115.708 210.416 116.2L209.816 117.676C209.036 117.232 208.232 117.016 207.488 117.016C206.336 117.016 205.892 117.448 205.892 117.976C205.892 118.618 206.732 118.81 207.715 119.035C209.103 119.352 210.776 119.735 210.776 121.54ZM202.532 120.304C202.532 122.776 201.116 124.144 198.728 124.144C196.34 124.144 194.924 122.776 194.924 120.304V115.6H196.868V120.232C196.868 121.828 197.564 122.488 198.74 122.488C199.928 122.488 200.612 121.828 200.612 120.232V115.6H202.532V120.304ZM215.924 124C218.672 124 220.556 122.344 220.556 119.8C220.556 117.256 218.672 115.6 215.924 115.6H212.108V124H215.924ZM214.052 122.404H215.828C217.496 122.404 218.588 121.408 218.588 119.8C218.588 118.192 217.496 117.196 215.828 117.196H214.052V122.404Z" fill="white"/>
<g id="Group 6_2">
<circle id="Oval_3" cx="182" cy="120" r="8" fill="#319BE2"/>
<path id="Path" d="M183.342 119.543C182.963 119.326 182.561 119.161 182.162 118.989C181.931 118.89 181.71 118.775 181.514 118.614C181.13 118.295 181.204 117.779 181.654 117.575C181.782 117.517 181.915 117.498 182.051 117.49C182.573 117.461 183.069 117.56 183.541 117.796C183.777 117.913 183.854 117.876 183.934 117.622C184.018 117.354 184.087 117.081 184.165 116.81C184.217 116.628 184.153 116.509 183.988 116.432C183.685 116.294 183.374 116.195 183.047 116.141C182.811 116.103 182.619 116.074 182.619 116.074C182.619 116.074 182.619 115.825 182.619 115.627C182.617 115.001 182.617 115.001 182.011 115.001C181.923 115.001 181.835 114.999 181.748 115.001C181.465 115.009 181.281 115.077 181.273 115.372C181.269 115.504 181.273 115.637 181.271 115.771C181.27 115.87 181.271 116.192 181.271 116.192C181.271 116.192 181.134 116.241 181.04 116.277C180.165 116.621 179.621 117.228 179.563 118.219C179.512 119.097 179.954 119.69 180.65 120.121C181.078 120.388 181.552 120.545 182.007 120.753C182.184 120.834 182.354 120.927 182.501 121.055C182.937 121.429 182.858 122.051 182.34 122.286C182.063 122.412 181.77 122.443 181.469 122.404C181.004 122.344 180.56 122.218 180.141 121.993C179.896 121.861 179.824 121.896 179.741 122.17C179.669 122.408 179.605 122.648 179.541 122.887C179.456 123.209 179.488 123.286 179.785 123.437C180.163 123.627 180.568 123.724 180.98 123.792C181.135 123.818 181.317 123.83 181.317 123.83C181.317 123.83 181.315 124.027 181.317 124.207C181.319 124.364 181.319 124.523 181.321 124.68C181.323 124.878 181.415 124.994 181.612 124.998C181.835 125.002 182.116 124.998 182.34 124.992C182.523 124.988 182.617 124.884 182.617 124.692C182.617 124.477 182.619 124.046 182.619 124.046V123.712C182.619 123.712 182.741 123.692 182.848 123.662C183.316 123.53 183.715 123.269 184.022 122.881C184.875 121.807 184.55 120.235 183.342 119.543Z" fill="white"/>
</g>
</g>
</g>
</g>
</svg>
