<svg width="20" height="21" viewBox="0 0 20 21" fill="none" xmlns="http://www.w3.org/2000/svg">
<rect x="0.0449219" y="10.97" width="19.897" height="0.1" fill="#C42126"/>
<rect x="1.08154" y="5.51477" width="17.8236" height="0.1" fill="#C42126"/>
<rect x="0.372559" y="7.33292" width="19.2405" height="0.1" fill="#C42126"/>
<path d="M4.29507 18.2724H15.6915L15.6921 18.2709H4.29443L4.29507 18.2724Z" fill="#C42126"/>
<path d="M9.993 0.0586819C9.79671 0.0586819 9.60198 0.0754819 9.40869 0.101682H10.5774C10.384 0.0754819 10.1893 0.0586819 9.993 0.0586819Z" fill="#C42126"/>
<rect x="0.0415039" y="9.15149" width="19.9034" height="0.1" fill="#C42126"/>
<path d="M12.9469 3.69658H17.7187C17.1519 3.00658 16.4932 2.39578 15.7634 1.87869H12.1802C12.4767 2.40034 12.7317 3.01587 12.9469 3.69658Z" fill="#F3F4F5"/>
<path d="M12.1802 1.87869H15.7634C14.2821 0.828941 12.5036 0.171557 10.5777 0.0603333H10.27C11.1765 0.174426 11.5929 0.845312 12.1802 1.87869Z" fill="#E73625"/>
<path d="M19.6136 7.33309C19.4359 6.69942 19.1977 6.09144 18.9048 5.5152H13.415C13.5263 6.09887 13.614 6.70853 13.679 7.33309H19.6136Z" fill="#F3F4F5"/>
<path d="M13.1063 5.5149H18.9047C18.5743 4.86499 18.1773 4.25511 17.7185 3.69672H12.6533C12.8319 4.26207 12.9836 4.87195 13.1063 5.5149Z" fill="#E73625"/>
<path d="M13.8892 10.9696H19.9411C19.9698 10.6621 19.9861 10.3505 19.9861 10.0355C19.9861 9.73748 19.9705 9.44321 19.9449 9.15161H13.8906C13.9103 9.75625 13.91 10.3653 13.8892 10.9696Z" fill="#F3F4F5"/>
<path d="M19.9454 9.15129C19.8906 8.52691 19.7781 7.91944 19.6139 7.3334H13.4243C13.4865 7.92872 13.5275 8.53779 13.5476 9.15129H19.9454Z" fill="#E73625"/>
<path d="M13.3105 14.6061H18.8786C19.1755 14.0305 19.4176 13.4221 19.599 12.788H13.5797C13.5135 13.4134 13.4235 14.023 13.3105 14.6061Z" fill="#F3F4F5"/>
<path d="M19.5993 12.7879C19.7671 12.202 19.8835 11.5945 19.9414 10.97H13.7007C13.6794 11.5839 13.6371 12.1928 13.5737 12.7879H19.5993Z" fill="#E73625"/>
<path d="M15.6922 18.2424C16.4326 17.7274 17.1006 17.1159 17.6764 16.4245H12.9878C12.7686 17.108 12.5084 17.7226 12.2065 18.2424H15.6922Z" fill="#F3F4F5"/>
<path d="M12.811 16.4244H17.6761C18.1403 15.8666 18.5433 15.2567 18.8786 14.6062H13.2697C13.1453 15.2496 12.992 15.8598 12.811 16.4244Z" fill="#E73625"/>
<path d="M9.67031 20.0519C9.63696 20.0504 9.60367 20.0482 9.57031 20.0467C9.60367 20.0481 9.63703 20.0504 9.67031 20.0519Z" fill="#DC3027"/>
<path d="M9.99268 20.0286C12.1113 20.0286 14.0743 19.3673 15.691 18.243H12.0744C11.4325 19.3489 11.009 20.0286 9.99268 20.0286Z" fill="#E73625"/>
<path d="M9.99297 20.0623C9.87162 20.0623 9.75107 20.0556 9.63086 20.0455C9.75234 20.0552 9.87301 20.0623 9.99297 20.0623Z" fill="#C42126"/>
<path d="M12.5107 1.87869H4.22306C3.49315 2.39578 2.83454 3.00654 2.26758 3.69658H13.2772C13.062 3.01587 12.8072 2.40034 12.5107 1.87869Z" fill="#F3F4F5"/>
<path d="M4.22314 1.87869H12.5108C11.9234 0.845312 11.1762 0.174426 10.2697 0.0603333H9.40867C7.48272 0.171557 5.70428 0.828941 4.22314 1.87869Z" fill="#E73625"/>
<path d="M0.372559 7.33309H13.9941C13.9291 6.7084 13.8413 6.09887 13.7301 5.5152H1.08133C0.788466 6.09148 0.550238 6.69942 0.372559 7.33309Z" fill="#F3F4F5"/>
<path d="M2.26762 3.69659C1.8091 4.25499 1.4118 4.86482 1.08154 5.51478H13.7302C13.6075 4.87195 13.4559 4.26212 13.2773 3.69659C13.2773 3.69659 2.26762 3.69659 2.26762 3.69659Z" fill="#E73625"/>
<path d="M0 10.0355C0 10.3505 0.0164135 10.6621 0.0449789 10.9696H14.1163C14.1372 10.3653 14.1375 9.75637 14.1178 9.15173H0.0411814C0.0156118 9.44321 0 9.73747 0 10.0355Z" fill="#F3F4F5"/>
<path d="M0.0415039 9.15129H14.1179C14.0979 8.53767 14.0567 7.92876 13.9947 7.3334H0.372854C0.208593 7.91956 0.0961031 8.52691 0.0415039 9.15129Z" fill="#E73625"/>
<path d="M13.9895 12.7878H0.387207C0.568684 13.4221 0.810878 14.0304 1.10767 14.606H13.7203C13.8333 14.023 13.923 13.4135 13.9895 12.7878Z" fill="#F3F4F5"/>
<path d="M0.386989 12.7879H13.9893C14.0526 12.1928 14.095 11.5838 14.1163 10.97H0.0449219C0.102812 11.5947 0.219437 12.202 0.386989 12.7879Z" fill="#E73625"/>
<path d="M4.29424 18.2424H12.4803C12.7821 17.7225 13.0425 17.108 13.2615 16.4245H2.31006C2.88584 17.1159 3.55373 17.7274 4.29424 18.2424Z" fill="#F3F4F5"/>
<path d="M1.10791 14.6062C1.44323 15.2567 1.84618 15.8666 2.3104 16.4244H13.2618C13.4427 15.8598 13.5959 15.2496 13.7204 14.6062H1.10791Z" fill="#E73625"/>
<path d="M9.57073 20.0192C9.59094 20.0199 9.61111 20.0208 9.63132 20.0214C9.75157 20.0257 9.87212 20.0285 9.99343 20.0285C11.0098 20.0285 11.8384 19.3489 12.4805 18.243H4.29541C5.80372 19.292 7.61419 19.9377 9.57073 20.0192Z" fill="#E73625"/>
<path d="M9.78649 0.0473938C4.66552 0.151571 0.491679 4.10554 0.0424805 9.13503H9.78666V0.0473938H9.78649Z" fill="#283991"/>
<path d="M1.99953 5.70407L2.15177 6.17285H2.64502L2.24599 6.46272L2.39839 6.93183L1.99953 6.64179L1.6008 6.93183L1.75291 6.46272L1.354 6.17285H1.84725L1.99953 5.70407Z" fill="#EFEFEF"/>
<path d="M1.99953 7.36023L2.15177 7.8293H2.64502L2.24599 8.11917L2.39839 8.58829L1.99953 8.29825L1.6008 8.58829L1.75291 8.11917L1.354 7.8293H1.84725L1.99953 7.36023Z" fill="#EFEFEF"/>
<path d="M3.65595 3.21924L3.80823 3.68818H4.30131L3.90241 3.97823L4.05468 4.447L3.65595 4.1573L3.25705 4.447L3.40933 3.97823L3.01025 3.68818H3.5035L3.65595 3.21924Z" fill="#EFEFEF"/>
<path d="M3.65595 4.87567L3.80823 5.34462H4.30131L3.90241 5.63432L4.05468 6.10344L3.65595 5.81373L3.25705 6.10344L3.40933 5.63432L3.01025 5.34462H3.5035L3.65595 4.87567Z" fill="#EFEFEF"/>
<path d="M3.65595 6.53214L3.80823 7.00125H4.30131L3.90241 7.29078L4.05468 7.7599L3.65595 7.4699L3.25705 7.7599L3.40933 7.29078L3.01025 7.00125H3.5035L3.65595 6.53214Z" fill="#EFEFEF"/>
<path d="M0.74208 7.7599L0.589675 7.29078L0.988578 7.00108H0.495624L0.484569 6.96686C0.430434 7.13428 0.381531 7.30374 0.336426 7.47509L0.343388 7.4699L0.74208 7.7599Z" fill="#EFEFEF"/>
<path d="M1.60109 5.27538L1.99982 4.98538L2.39873 5.27538L2.24632 4.80626L2.64522 4.51626H2.15198L1.9997 4.04749L1.84742 4.51626H1.66565C1.63189 4.5674 1.59923 4.61884 1.56641 4.67073L1.75324 4.80626L1.60109 5.27538Z" fill="#EFEFEF"/>
<path d="M3.65608 2.50084L4.05481 2.79055L3.90253 2.32177L4.30127 2.03177H4.01646C3.77456 2.21261 3.54118 2.40401 3.31696 2.60595L3.25684 2.79055L3.65608 2.50084Z" fill="#EFEFEF"/>
<path d="M4.91357 1.96247L5.31248 1.67247L5.71121 1.96247L5.55893 1.49336L5.95767 1.20366H5.46459L5.44391 1.14053C5.27682 1.22589 5.11146 1.31471 4.94986 1.40923L5.06568 1.49332L4.91357 1.96247Z" fill="#EFEFEF"/>
<path d="M5.31265 2.39117L5.46492 2.85982H5.958L5.5591 3.14982L5.71138 3.61894L5.31265 3.3289L4.91374 3.61894L5.06602 3.14982L4.66699 2.85982H5.1602L5.31265 2.39117Z" fill="#EFEFEF"/>
<path d="M5.31265 4.04761L5.46492 4.51626H5.958L5.5591 4.80626L5.71138 5.27537L5.31265 4.98533L4.91374 5.27537L5.06602 4.80626L4.66699 4.51626H5.1602L5.31265 4.04761Z" fill="#EFEFEF"/>
<path d="M5.31265 5.70407L5.46492 6.17285H5.958L5.5591 6.46272L5.71138 6.93183L5.31265 6.64179L4.91374 6.93183L5.06602 6.46272L4.66699 6.17285H5.1602L5.31265 5.70407Z" fill="#EFEFEF"/>
<path d="M5.31265 7.36023L5.46492 7.8293H5.958L5.5591 8.11917L5.71138 8.58829L5.31265 8.29825L4.91374 8.58829L5.06602 8.11917L4.66699 7.8293H5.1602L5.31265 7.36023Z" fill="#EFEFEF"/>
<path d="M6.9689 1.56277L7.12117 2.03172H7.61425L7.21552 2.32176L7.36763 2.79054L6.9689 2.50083L6.56987 2.79054L6.72227 2.32176L6.32324 2.03172H6.81645L6.9689 1.56277Z" fill="#EFEFEF"/>
<path d="M6.9689 3.21924L7.12117 3.68818H7.61425L7.21552 3.97823L7.36763 4.447L6.9689 4.1573L6.56987 4.447L6.72227 3.97823L6.32324 3.68818H6.81645L6.9689 3.21924Z" fill="#EFEFEF"/>
<path d="M6.9689 4.87567L7.12117 5.34462H7.61425L7.21552 5.63432L7.36763 6.10344L6.9689 5.81373L6.56987 6.10344L6.72227 5.63432L6.32324 5.34462H6.81645L6.9689 4.87567Z" fill="#EFEFEF"/>
<path d="M6.9689 6.53214L7.12117 7.00125H7.61425L7.21552 7.29078L7.36763 7.7599L6.9689 7.4699L6.56987 7.7599L6.72227 7.29078L6.32324 7.00125H6.81645L6.9689 6.53214Z" fill="#EFEFEF"/>
<path d="M8.62563 0.734711L8.77791 1.20366H9.27099L8.87209 1.49336L9.02437 1.96247L8.62563 1.67243L8.2266 1.96247L8.37901 1.49336L7.97998 1.20366H8.47306L8.62563 0.734711Z" fill="#EFEFEF"/>
<path d="M8.62563 2.39117L8.77791 2.85982H9.27099L8.87209 3.14982L9.02437 3.61894L8.62563 3.3289L8.2266 3.61894L8.37901 3.14982L7.97998 2.85982H8.47306L8.62563 2.39117Z" fill="#EFEFEF"/>
<path d="M8.62563 4.04761L8.77791 4.51626H9.27099L8.87209 4.80626L9.02437 5.27537L8.62563 4.98533L8.2266 5.27537L8.37901 4.80626L7.97998 4.51626H8.47306L8.62563 4.04761Z" fill="#EFEFEF"/>
<path d="M8.62563 5.70407L8.77791 6.17285H9.27099L8.87209 6.46272L9.02437 6.93183L8.62563 6.64179L8.2266 6.93183L8.37901 6.46272L7.97998 6.17285H8.47306L8.62563 5.70407Z" fill="#EFEFEF"/>
<path d="M8.62563 7.36023L8.77791 7.8293H9.27099L8.87209 8.11917L9.02437 8.58829L8.62563 8.29825L8.2266 8.58829L8.37901 8.11917L7.97998 7.8293H8.47306L8.62563 7.36023Z" fill="#EFEFEF"/>
</svg>
