<svg width="20" height="20" viewBox="0 0 20 20" fill="none" xmlns="http://www.w3.org/2000/svg">
<path d="M19.2299 6.23864H9.98128C7.91427 6.23661 6.23696 7.91061 6.23489 9.97762C6.23427 10.6197 6.39879 11.251 6.71267 11.8111L2.08838 3.87657C5.45653 -0.482687 11.7209 -1.28612 16.0801 2.08203C17.4801 3.16371 18.5672 4.59829 19.2299 6.23864Z" fill="#F44336"/>
<path d="M19.962 9.98131C19.9574 15.4915 15.4916 19.9572 9.98145 19.9618C9.56414 19.9634 9.14726 19.9356 8.73389 19.8787L13.2251 11.8527C14.2545 10.0607 13.6409 7.77371 11.8528 6.73765C11.2867 6.40989 10.6439 6.23769 9.98975 6.23862H19.23C19.7157 7.42654 19.9644 8.69796 19.962 9.98131Z" fill="#FFC107"/>
<path d="M13.225 11.8527L8.73374 19.8787H8.72543C3.26001 19.1881 -0.610787 14.1977 0.0797393 8.73231C0.303248 6.9633 0.996854 5.28654 2.08839 3.87656L6.71268 11.8111L6.73763 11.8527C7.76886 13.6441 10.057 14.2603 11.8485 13.2291C12.4207 12.8998 12.8956 12.4249 13.225 11.8527Z" fill="#4CAF50"/>
<path d="M13.2251 11.8527C12.1939 13.6441 9.90568 14.2603 8.11426 13.2292C7.54206 12.8998 7.06717 12.4249 6.73777 11.8527L6.71282 11.8111C5.70225 10.0079 6.34483 7.72693 8.14798 6.71637C8.70806 6.40249 9.33945 6.23797 9.98143 6.23859H9.98974C10.6439 6.23765 11.2867 6.40986 11.8528 6.73762C13.6409 7.77372 14.2545 10.0607 13.2251 11.8527Z" fill="#F44336"/>
<path d="M13.2251 11.8527C12.1939 13.6441 9.90568 14.2603 8.11426 13.2292C7.54206 12.8998 7.06717 12.4249 6.73777 11.8527L6.71282 11.8111C5.70225 10.0079 6.34483 7.72693 8.14798 6.71637C8.70806 6.40249 9.33945 6.23797 9.98143 6.23859H9.98974C10.6439 6.23765 11.2867 6.40986 11.8528 6.73762C13.6409 7.77372 14.2545 10.0607 13.2251 11.8527Z" fill="#2196F3"/>
<path fill-rule="evenodd" clip-rule="evenodd" d="M7.90218 13.586C8.52997 13.9487 9.24225 14.1398 9.96732 14.1399C11.4579 14.1413 12.8366 13.3491 13.5861 12.0606C13.9516 11.4275 14.1438 10.7092 14.1432 9.97814C14.1415 7.68145 12.2782 5.82102 9.98147 5.82282C9.25067 5.82243 8.53266 6.01459 7.8998 6.37997C5.91079 7.52831 5.22931 10.0716 6.37765 12.0606C6.74342 12.6939 7.26915 13.2199 7.90218 13.586ZM7.09539 8.31794C7.69048 7.28336 8.79543 6.64816 9.98892 6.65451V6.65455H9.98974C10.5714 6.65572 11.1426 6.80941 11.6464 7.10024C13.2376 8.01896 13.7828 10.0536 12.8641 11.6448C11.9455 13.2378 9.90931 13.7844 8.31633 12.8657C6.72334 11.9471 6.17672 9.91093 7.09539 8.31794Z" fill="#FAFAFA"/>
</svg>
