<svg width="20" height="20" viewBox="0 0 20 20" fill="none" xmlns="http://www.w3.org/2000/svg">
<g id="safari">
<circle id="Oval" cx="10" cy="10" r="10" fill="#1DA2F8"/>
<g id="Group">
<path id="Path" d="M9.99988 1.48008C9.93254 1.48008 9.87793 1.42547 9.87793 1.35813V0.800084C9.87793 0.73274 9.93254 0.678131 9.99988 0.678131C10.0672 0.678131 10.1218 0.73274 10.1218 0.800084V1.35813C10.1218 1.42547 10.0672 1.48008 9.99988 1.48008Z" fill="#F2F2F2"/>
<path id="Path_2" d="M9.99988 19.3219C9.93254 19.3219 9.87793 19.2673 9.87793 19.1999V18.6419C9.87793 18.5745 9.93254 18.5199 9.99988 18.5199C10.0672 18.5199 10.1218 18.5745 10.1218 18.6419V19.1999C10.1218 19.2673 10.0672 19.3219 9.99988 19.3219Z" fill="#F2F2F2"/>
<path id="Path_3" d="M8.49906 1.61141C8.44093 1.61141 8.38949 1.56977 8.37906 1.51059L8.28214 0.96102C8.27046 0.894692 8.31476 0.831411 8.38105 0.81977C8.44757 0.808208 8.5107 0.852387 8.52234 0.918716L8.61925 1.46829C8.63093 1.53461 8.58663 1.5979 8.52034 1.60954C8.51316 1.61075 8.50609 1.61141 8.49906 1.61141Z" fill="#F2F2F2"/>
<path id="Path_4" d="M11.5972 19.1822C11.5391 19.1822 11.4876 19.1405 11.4772 19.0813L11.3803 18.5318C11.3686 18.4654 11.4129 18.4022 11.4792 18.3905C11.5457 18.3788 11.6088 18.4231 11.6205 18.4895L11.7174 19.039C11.7291 19.1053 11.6848 19.1686 11.6185 19.1802C11.6113 19.1815 11.6042 19.1822 11.5972 19.1822Z" fill="#F2F2F2"/>
<path id="Path_5" d="M7.04427 2.00124C6.99446 2.00124 6.94771 1.97045 6.9297 1.92096L6.7388 1.39659C6.71583 1.33327 6.74845 1.26331 6.81173 1.24026C6.87482 1.21733 6.94501 1.24983 6.96798 1.31315L7.15884 1.83752C7.18189 1.90084 7.14923 1.97081 7.08595 1.99385C7.0722 1.99885 7.05814 2.00124 7.04427 2.00124Z" fill="#F2F2F2"/>
<path id="Path_6" d="M13.1468 18.7671C13.097 18.7671 13.0502 18.7363 13.0322 18.6868L12.8414 18.1624C12.8183 18.0991 12.851 18.0291 12.9143 18.0061C12.9774 17.9831 13.0475 18.0157 13.0705 18.079L13.2614 18.6034C13.2844 18.6667 13.2518 18.7366 13.1885 18.7597C13.1747 18.7647 13.1607 18.7671 13.1468 18.7671Z" fill="#F2F2F2"/>
<path id="Path_7" d="M5.67894 2.63791C5.63679 2.63791 5.59582 2.61603 5.5732 2.57689L5.29418 2.09361C5.26054 2.03529 5.28046 1.96072 5.33882 1.92705C5.39707 1.89322 5.47171 1.91333 5.50543 1.97166L5.78445 2.45494C5.81808 2.51326 5.79816 2.58783 5.7398 2.6215C5.72066 2.63263 5.69964 2.63791 5.67894 2.63791Z" fill="#F2F2F2"/>
<path id="Path_8" d="M14.5998 18.0894C14.5577 18.0894 14.5167 18.0675 14.4941 18.0283L14.2151 17.5451C14.1814 17.4867 14.2014 17.4122 14.2597 17.3785C14.318 17.3447 14.3926 17.3648 14.4263 17.4231L14.7053 17.9064C14.739 17.9647 14.7191 18.0393 14.6607 18.0729C14.6416 18.0841 14.6205 18.0894 14.5998 18.0894Z" fill="#F2F2F2"/>
<path id="Path_9" d="M4.44508 3.50187C4.41032 3.50187 4.37571 3.48706 4.35161 3.45831L3.9929 3.03085C3.94958 2.97925 3.95633 2.90234 4.00797 2.85902C4.0595 2.81578 4.13645 2.82246 4.17977 2.87406L4.53848 3.30152C4.5818 3.35312 4.57504 3.43003 4.5234 3.47335C4.50059 3.49253 4.47278 3.50187 4.44508 3.50187Z" fill="#F2F2F2"/>
<path id="Path_10" d="M15.9138 17.1695C15.879 17.1695 15.8444 17.1547 15.8203 17.1259L15.4616 16.6985C15.4183 16.6469 15.4251 16.57 15.4767 16.5266C15.5282 16.4835 15.6052 16.4901 15.6485 16.5417L16.0072 16.9691C16.0505 17.0208 16.0437 17.0977 15.9921 17.141C15.9693 17.1602 15.9415 17.1695 15.9138 17.1695Z" fill="#F2F2F2"/>
<path id="Path_11" d="M3.37991 4.56707C3.35226 4.56707 3.3244 4.55774 3.30163 4.53856L2.87417 4.17985C2.82253 4.13653 2.81581 4.05965 2.85909 4.00801C2.90241 3.95637 2.97936 3.94973 3.03089 3.99297L3.45835 4.35168C3.50999 4.395 3.51671 4.47188 3.47343 4.52352C3.44929 4.55223 3.41468 4.56707 3.37991 4.56707Z" fill="#F2F2F2"/>
<path id="Path_12" d="M17.0474 16.0355C17.0197 16.0355 16.9919 16.0262 16.969 16.007L16.5416 15.6483C16.49 15.605 16.4833 15.5281 16.5265 15.4765C16.5699 15.4248 16.6467 15.4182 16.6984 15.4614L17.1258 15.8202C17.1774 15.8635 17.1841 15.9404 17.1408 15.992C17.1167 16.0207 17.0821 16.0355 17.0474 16.0355Z" fill="#F2F2F2"/>
<path id="Path_13" d="M2.51578 5.80101C2.49511 5.80101 2.47414 5.79574 2.45492 5.78465L1.97164 5.50562C1.91328 5.47195 1.89336 5.39738 1.92699 5.33906C1.9607 5.28078 2.03507 5.26066 2.09359 5.29445L2.57687 5.57347C2.63523 5.60715 2.65515 5.68172 2.62152 5.74004C2.59894 5.77914 2.55796 5.80101 2.51578 5.80101Z" fill="#F2F2F2"/>
<path id="Path_14" d="M17.9674 14.7219C17.9467 14.7219 17.9257 14.7167 17.9065 14.7056L17.4233 14.4265C17.3649 14.3929 17.345 14.3183 17.3786 14.26C17.4123 14.2017 17.4869 14.1815 17.5452 14.2154L18.0285 14.4944C18.0869 14.5281 18.1068 14.6026 18.0731 14.6609C18.0505 14.7001 18.0095 14.7219 17.9674 14.7219Z" fill="#F2F2F2"/>
<path id="Path_15" d="M1.87929 7.16629C1.86542 7.16629 1.85136 7.1639 1.83761 7.1589L1.3132 6.96804C1.24988 6.945 1.21726 6.87504 1.24031 6.81171C1.26327 6.74839 1.33343 6.71589 1.39656 6.73882L1.92097 6.92968C1.98429 6.95273 2.01691 7.02269 1.99386 7.08601C1.97585 7.1355 1.92909 7.16629 1.87929 7.16629Z" fill="#F2F2F2"/>
<path id="Path_16" d="M18.6449 13.2685C18.631 13.2685 18.6169 13.2661 18.6031 13.2611L18.0787 13.0703C18.0155 13.0472 17.9829 12.9773 18.0059 12.9139C18.0289 12.8506 18.0989 12.8182 18.1623 12.841L18.6866 13.0319C18.7499 13.0549 18.7825 13.1249 18.7594 13.1882C18.7414 13.2378 18.6946 13.2685 18.6449 13.2685Z" fill="#F2F2F2"/>
<path id="Path_17" d="M1.48951 8.62132C1.48247 8.62132 1.47537 8.62069 1.46822 8.61944L0.918647 8.52253C0.852319 8.51081 0.808061 8.44757 0.819741 8.38128C0.83142 8.31499 0.894389 8.27073 0.96103 8.28233L1.5106 8.37925C1.57693 8.39097 1.62119 8.45421 1.60951 8.5205C1.59908 8.57968 1.54763 8.62132 1.48951 8.62132Z" fill="#F2F2F2"/>
<path id="Path_18" d="M19.0603 11.7195C19.0532 11.7195 19.0461 11.7189 19.039 11.7176L18.4894 11.6207C18.4231 11.609 18.3789 11.5458 18.3905 11.4795C18.4022 11.4132 18.4651 11.3689 18.5318 11.3805L19.0814 11.4775C19.1477 11.4892 19.192 11.5524 19.1803 11.6187C19.1699 11.6779 19.1184 11.7195 19.0603 11.7195Z" fill="#F2F2F2"/>
<path id="Path_19" d="M1.35818 10.122H0.800176C0.732832 10.122 0.678223 10.0673 0.678223 10C0.678223 9.93266 0.732832 9.87805 0.800176 9.87805H1.35818C1.42553 9.87805 1.48014 9.93266 1.48014 10C1.48014 10.0673 1.42553 10.122 1.35818 10.122Z" fill="#F2F2F2"/>
<path id="Path_20" d="M19.2001 10.122H18.642C18.5746 10.122 18.52 10.0673 18.52 10C18.52 9.93266 18.5746 9.87805 18.642 9.87805H19.2001C19.2674 9.87805 19.322 9.93266 19.322 10C19.322 10.0673 19.2674 10.122 19.2001 10.122Z" fill="#F2F2F2"/>
<path id="Path_21" d="M0.939741 11.7195C0.881616 11.7195 0.83017 11.6779 0.819741 11.6187C0.808061 11.5524 0.852319 11.4891 0.918647 11.4775L1.46822 11.3805C1.53478 11.3689 1.59787 11.4131 1.60951 11.4795C1.62119 11.5458 1.57693 11.6091 1.5106 11.6207L0.96103 11.7177C0.953842 11.7189 0.946733 11.7195 0.939741 11.7195Z" fill="#F2F2F2"/>
<path id="Path_22" d="M18.5105 8.62132C18.4524 8.62132 18.401 8.57968 18.3905 8.5205C18.3789 8.45421 18.4231 8.39089 18.4894 8.37925L19.039 8.28234C19.1055 8.27073 19.1687 8.31491 19.1803 8.38128C19.192 8.44757 19.1477 8.51089 19.0814 8.52253L18.5319 8.61945C18.5247 8.6207 18.5176 8.62132 18.5105 8.62132Z" fill="#F2F2F2"/>
<path id="Path_23" d="M1.35487 13.2685C1.30507 13.2685 1.25831 13.2377 1.2403 13.1882C1.21725 13.1249 1.24991 13.055 1.31319 13.0319L1.83761 12.8411C1.90069 12.8181 1.97089 12.8507 1.99386 12.9139C2.0169 12.9773 1.98425 13.0472 1.92097 13.0703L1.39655 13.2611C1.38284 13.2662 1.36878 13.2685 1.35487 13.2685Z" fill="#F2F2F2"/>
<path id="Path_24" d="M18.121 7.16628C18.0712 7.16628 18.0244 7.1355 18.0064 7.08601C17.9834 7.02269 18.016 6.95273 18.0792 6.92968L18.6036 6.73882C18.667 6.71589 18.7369 6.74843 18.7599 6.81171C18.783 6.87503 18.7503 6.94499 18.6871 6.96804L18.1627 7.1589C18.1489 7.1639 18.1349 7.16628 18.121 7.16628Z" fill="#F2F2F2"/>
<path id="Path_25" d="M2.03273 14.7219C1.99058 14.7219 1.94961 14.7 1.92699 14.6609C1.89336 14.6026 1.91328 14.528 1.97164 14.4943L2.45492 14.2153C2.51332 14.1815 2.58777 14.2016 2.62152 14.2599C2.65515 14.3182 2.63523 14.3928 2.57687 14.4265L2.09359 14.7055C2.07437 14.7166 2.05343 14.7219 2.03273 14.7219Z" fill="#F2F2F2"/>
<path id="Path_26" d="M17.4844 5.80102C17.4422 5.80102 17.4013 5.77915 17.3786 5.74001C17.345 5.68169 17.3649 5.60712 17.4233 5.57344L17.9065 5.29442C17.9648 5.26063 18.0394 5.28075 18.0731 5.33903C18.1068 5.39735 18.0869 5.47192 18.0285 5.50559L17.5452 5.78462C17.5261 5.79575 17.505 5.80102 17.4844 5.80102Z" fill="#F2F2F2"/>
<path id="Path_27" d="M2.95258 16.0355C2.91782 16.0355 2.88321 16.0207 2.85911 15.992C2.81579 15.9404 2.82254 15.8635 2.87419 15.8201L3.30165 15.4614C3.35317 15.4182 3.43012 15.4249 3.47344 15.4765C3.51676 15.5281 3.51001 15.605 3.45837 15.6483L3.0309 16.007C3.00809 16.0262 2.98028 16.0355 2.95258 16.0355Z" fill="#F2F2F2"/>
<path id="Path_28" d="M16.6201 4.56706C16.5853 4.56706 16.5507 4.55226 16.5266 4.52351C16.4833 4.4719 16.49 4.39503 16.5416 4.35167L16.9691 3.99296C17.0207 3.94972 17.0976 3.9564 17.1409 4.008C17.1842 4.0596 17.1775 4.13647 17.1258 4.17983L16.6984 4.53855C16.6755 4.55769 16.6478 4.56706 16.6201 4.56706Z" fill="#F2F2F2"/>
<path id="Path_29" d="M4.08624 17.1695C4.05858 17.1695 4.03073 17.1602 4.00796 17.141C3.95632 17.0977 3.9496 17.0208 3.99288 16.9692L4.35159 16.5417C4.39495 16.4901 4.4719 16.4834 4.52339 16.5267C4.57503 16.57 4.58175 16.6468 4.53847 16.6985L4.17976 17.1259C4.15561 17.1547 4.12101 17.1695 4.08624 17.1695Z" fill="#F2F2F2"/>
<path id="Path_30" d="M15.555 3.50187C15.5273 3.50187 15.4995 3.49253 15.4767 3.47335C15.4251 3.43003 15.4183 3.35316 15.4616 3.30152L15.8203 2.87406C15.8636 2.82246 15.9406 2.81578 15.9921 2.85902C16.0437 2.90234 16.0505 2.97925 16.0072 3.03085L15.6485 3.45831C15.6244 3.48706 15.5898 3.50187 15.555 3.50187Z" fill="#F2F2F2"/>
<path id="Path_31" d="M5.39968 18.0893C5.37902 18.0893 5.35804 18.0841 5.33882 18.073C5.28046 18.0393 5.26054 17.9647 5.29418 17.9064L5.5732 17.4231C5.60691 17.3648 5.68128 17.3447 5.7398 17.3785C5.79816 17.4122 5.81808 17.4868 5.78445 17.5451L5.50543 18.0284C5.48281 18.0675 5.44183 18.0893 5.39968 18.0893Z" fill="#F2F2F2"/>
<path id="Path_32" d="M14.3206 2.63788C14.2999 2.63788 14.2789 2.63261 14.2597 2.62152C14.2014 2.58784 14.1814 2.51327 14.2151 2.45495L14.4941 1.97167C14.5278 1.91335 14.6022 1.8932 14.6607 1.92706C14.7191 1.96073 14.739 2.03531 14.7053 2.09363L14.4263 2.57691C14.4037 2.61601 14.3627 2.63788 14.3206 2.63788Z" fill="#F2F2F2"/>
<path id="Path_33" d="M6.85343 18.7671C6.83956 18.7671 6.8255 18.7647 6.81175 18.7597C6.74843 18.7366 6.71581 18.6667 6.73882 18.6034L6.92972 18.079C6.95277 18.0156 7.02277 17.983 7.08597 18.0061C7.14929 18.0291 7.18191 18.0991 7.15886 18.1624L6.968 18.6868C6.94999 18.7363 6.9032 18.7671 6.85343 18.7671Z" fill="#F2F2F2"/>
<path id="Path_34" d="M12.9555 2.00124C12.9416 2.00124 12.9275 1.99886 12.9138 1.99386C12.8505 1.97081 12.8178 1.90085 12.8409 1.83753L13.0318 1.31315C13.0547 1.24979 13.1249 1.21733 13.188 1.24026C13.2513 1.26331 13.2839 1.33327 13.2609 1.39659L13.07 1.92097C13.0521 1.9705 13.0053 2.00124 12.9555 2.00124Z" fill="#F2F2F2"/>
<path id="Path_35" d="M8.40234 19.1821C8.39531 19.1821 8.3882 19.1815 8.38105 19.1803C8.31476 19.1685 8.27046 19.1053 8.28214 19.039L8.37906 18.4895C8.39074 18.4232 8.4537 18.3789 8.52034 18.3905C8.58663 18.4023 8.63093 18.4655 8.61925 18.5318L8.52234 19.0814C8.51187 19.1405 8.46046 19.1821 8.40234 19.1821Z" fill="#F2F2F2"/>
<path id="Path_36" d="M11.501 1.61142C11.4939 1.61142 11.4868 1.6108 11.4797 1.60955C11.4134 1.59783 11.3691 1.53462 11.3808 1.4683L11.4777 0.918725C11.4894 0.852436 11.5523 0.808295 11.619 0.81978C11.6853 0.831498 11.7296 0.894701 11.7179 0.96103L11.621 1.5106C11.6105 1.56974 11.5591 1.61142 11.501 1.61142Z" fill="#F2F2F2"/>
<path id="Path_37" d="M9.32551 2.41489C9.26293 2.41489 9.20969 2.36704 9.20418 2.30361L9.07664 0.845754C9.07078 0.778645 9.12039 0.719504 9.1875 0.713645C9.25469 0.707512 9.31375 0.757434 9.31957 0.824504L9.44711 2.28236C9.45297 2.34946 9.40336 2.40861 9.33625 2.41446C9.33266 2.41474 9.32902 2.41489 9.32551 2.41489Z" fill="#F2F2F2"/>
<path id="Path_38" d="M10.8016 19.2869C10.739 19.2869 10.6858 19.239 10.6803 19.1756L10.5527 17.7177C10.5469 17.6506 10.5965 17.5915 10.6636 17.5856C10.7312 17.5795 10.7897 17.6294 10.7956 17.6965L10.9232 19.1543C10.929 19.2214 10.8794 19.2806 10.8123 19.2864C10.8087 19.2867 10.8051 19.2869 10.8016 19.2869Z" fill="#F2F2F2"/>
<path id="Path_39" d="M7.99774 2.6491C7.94387 2.6491 7.89461 2.61316 7.88004 2.55871L7.50126 1.14516C7.48383 1.08008 7.52239 1.01324 7.58747 0.995819C7.65251 0.978046 7.71942 1.01699 7.7368 1.08203L8.11559 2.49558C8.13301 2.56066 8.09446 2.6275 8.02938 2.64492C8.01883 2.64777 8.00817 2.6491 7.99774 2.6491Z" fill="#F2F2F2"/>
<path id="Path_40" d="M12.381 19.0084C12.3271 19.0084 12.2779 18.9725 12.2633 18.918L11.8846 17.5045C11.8671 17.4394 11.9057 17.3725 11.9708 17.3551C12.036 17.3375 12.1026 17.3763 12.1201 17.4413L12.4989 18.8549C12.5163 18.92 12.4777 18.9868 12.4126 19.0042C12.402 19.0071 12.3914 19.0084 12.381 19.0084Z" fill="#F2F2F2"/>
<path id="Path_41" d="M6.73074 3.1103C6.68481 3.1103 6.64082 3.08421 6.62016 3.03987L6.00168 1.71355C5.97324 1.65253 5.99961 1.57995 6.06063 1.55152C6.1216 1.52308 6.1943 1.54945 6.2227 1.6105L6.84117 2.93683C6.86961 2.99784 6.84324 3.07042 6.78223 3.09886C6.76559 3.10663 6.74801 3.1103 6.73074 3.1103Z" fill="#F2F2F2"/>
<path id="Path_42" d="M13.8879 18.4599C13.842 18.4599 13.798 18.4338 13.7773 18.3895L13.1589 17.0631C13.1305 17.0021 13.1568 16.9296 13.2179 16.9011C13.2789 16.8727 13.3515 16.8991 13.3799 16.9601L13.9984 18.2864C14.0268 18.3474 14.0004 18.42 13.9394 18.4485C13.9227 18.4562 13.9052 18.4599 13.8879 18.4599Z" fill="#F2F2F2"/>
<path id="Path_43" d="M5.56255 3.78456C5.52411 3.78456 5.48626 3.76644 5.46251 3.73257L4.6231 2.53378C4.58454 2.47859 4.5979 2.40257 4.65306 2.36394C4.70845 2.32523 4.78435 2.33878 4.82294 2.3939L5.66236 3.59269C5.70091 3.64788 5.68755 3.7239 5.63239 3.76253C5.61107 3.77742 5.58665 3.78456 5.56255 3.78456Z" fill="#F2F2F2"/>
<path id="Path_44" d="M15.2769 17.6581C15.2384 17.6581 15.2006 17.64 15.1768 17.6061L14.3375 16.4073C14.2989 16.3521 14.3123 16.2761 14.3674 16.2375C14.4228 16.1988 14.4987 16.2123 14.5373 16.2674L15.3766 17.4662C15.4152 17.5214 15.4018 17.5974 15.3467 17.6361C15.3254 17.651 15.3009 17.6581 15.2769 17.6581Z" fill="#F2F2F2"/>
<path id="Path_45" d="M4.52929 4.65143C4.49812 4.65143 4.46687 4.63952 4.44308 4.61573L3.40827 3.58089C3.36065 3.53331 3.36065 3.45604 3.40827 3.40842C3.45589 3.36081 3.53308 3.36081 3.58073 3.40842L4.61554 4.44323C4.66315 4.49081 4.66315 4.56807 4.61554 4.61569C4.59171 4.63948 4.56054 4.65143 4.52929 4.65143Z" fill="#F2F2F2"/>
<path id="Path_46" d="M16.5054 16.6273C16.4742 16.6273 16.4429 16.6153 16.4192 16.5916L15.3843 15.5567C15.3367 15.5092 15.3367 15.4319 15.3843 15.3843C15.432 15.3367 15.5092 15.3367 15.5568 15.3843L16.5916 16.4191C16.6392 16.4667 16.6392 16.5439 16.5916 16.5916C16.5678 16.6153 16.5366 16.6273 16.5054 16.6273Z" fill="#F2F2F2"/>
<path id="Path_47" d="M3.66237 5.68448C3.63823 5.68448 3.61386 5.67734 3.59253 5.66241L2.39378 4.82304C2.33862 4.78444 2.32527 4.70839 2.36382 4.65319C2.40253 4.598 2.47843 4.5846 2.5337 4.62323L3.73245 5.46257C3.78761 5.50116 3.80097 5.57722 3.76241 5.63241C3.73866 5.66632 3.70081 5.68448 3.66237 5.68448Z" fill="#F2F2F2"/>
<path id="Path_48" d="M17.5359 15.3988C17.5118 15.3988 17.4874 15.3917 17.4661 15.3768L16.2673 14.5374C16.2122 14.4988 16.1988 14.4228 16.2374 14.3676C16.2761 14.3125 16.3519 14.299 16.4072 14.3376L17.606 15.177C17.6612 15.2156 17.6745 15.2917 17.636 15.3468C17.6122 15.3807 17.5744 15.3988 17.5359 15.3988Z" fill="#F2F2F2"/>
<path id="Path_49" d="M2.98824 6.85238C2.97098 6.85238 2.95348 6.84871 2.9368 6.8409L1.61051 6.22246C1.54941 6.19402 1.52305 6.12144 1.55148 6.06043C1.57992 5.99941 1.65254 5.97305 1.71352 6.00144L3.03984 6.61988C3.10094 6.64832 3.1273 6.7209 3.09887 6.78191C3.07816 6.82629 3.03418 6.85238 2.98824 6.85238Z" fill="#F2F2F2"/>
<path id="Path_50" d="M18.3379 14.0101C18.3206 14.0101 18.3031 14.0064 18.2863 13.9986L16.9601 13.3801C16.899 13.3517 16.8726 13.2791 16.9011 13.2181C16.9296 13.1571 17.0022 13.1307 17.0632 13.1591L18.3895 13.7776C18.4505 13.806 18.4769 13.8786 18.4484 13.9396C18.4278 13.984 18.3838 14.0101 18.3379 14.0101Z" fill="#F2F2F2"/>
<path id="Path_51" d="M2.52735 8.11965C2.51696 8.11965 2.50633 8.11832 2.49571 8.11543L1.08211 7.73668C1.01699 7.71926 0.978439 7.65239 0.9959 7.58735C1.01328 7.52231 1.08004 7.48352 1.14524 7.50114L2.55883 7.87989C2.62395 7.89731 2.6625 7.96418 2.64504 8.02922C2.63043 8.08368 2.58113 8.11965 2.52735 8.11965Z" fill="#F2F2F2"/>
<path id="Path_52" d="M18.8867 12.5031C18.8763 12.5031 18.8657 12.5018 18.8551 12.4989L17.4415 12.1201C17.3764 12.1027 17.3378 12.0358 17.3553 11.9707C17.3727 11.9057 17.4394 11.867 17.5046 11.8845L18.9182 12.2633C18.9833 12.2807 19.0219 12.3476 19.0044 12.4127C18.9899 12.4672 18.9405 12.5031 18.8867 12.5031Z" fill="#F2F2F2"/>
<path id="Path_53" d="M2.29281 9.44766C2.28922 9.44766 2.28567 9.4475 2.28203 9.44715L0.824181 9.31961C0.757111 9.31375 0.707501 9.25465 0.713361 9.1875C0.719181 9.12039 0.778517 9.07059 0.84547 9.07664L2.30332 9.20418C2.37039 9.21004 2.42 9.26914 2.41414 9.33629C2.40867 9.3998 2.35543 9.44766 2.29281 9.44766Z" fill="#F2F2F2"/>
<path id="Path_54" d="M19.1649 10.9238C19.1614 10.9238 19.1578 10.9236 19.1542 10.9233L17.6963 10.7958C17.6292 10.7899 17.5795 10.7308 17.5854 10.6636C17.5913 10.5966 17.6499 10.5469 17.7175 10.5528L19.1754 10.6803C19.2425 10.6862 19.2922 10.7453 19.2863 10.8124C19.2807 10.876 19.2275 10.9238 19.1649 10.9238Z" fill="#F2F2F2"/>
<path id="Path_55" d="M0.835177 10.9238C0.772599 10.9238 0.719357 10.8759 0.713849 10.8125C0.707989 10.7454 0.757599 10.6862 0.824669 10.6804L2.28252 10.5528C2.35068 10.547 2.40881 10.5967 2.41463 10.6637C2.42049 10.7308 2.37088 10.7899 2.30381 10.7958L0.845958 10.9233C0.842325 10.9236 0.838693 10.9238 0.835177 10.9238Z" fill="#F2F2F2"/>
<path id="Path_56" d="M17.7068 9.44765C17.6442 9.44765 17.5909 9.3998 17.5854 9.33636C17.5796 9.26925 17.6292 9.21011 17.6963 9.20425L19.1542 9.07671C19.2217 9.07038 19.2804 9.12054 19.2863 9.18757C19.2921 9.25468 19.2425 9.31382 19.1754 9.31968L17.7175 9.44722C17.7139 9.44749 17.7102 9.44765 17.7068 9.44765Z" fill="#F2F2F2"/>
<path id="Path_57" d="M1.11358 12.5031C1.05971 12.5031 1.01045 12.4672 0.995884 12.4127C0.978462 12.3476 1.01702 12.2808 1.0821 12.2633L2.49569 11.8846C2.56057 11.8669 2.62756 11.9057 2.64503 11.9708C2.66245 12.0358 2.62389 12.1027 2.55881 12.1201L1.14522 12.4989C1.13467 12.5017 1.12397 12.5031 1.11358 12.5031Z" fill="#F2F2F2"/>
<path id="Path_58" d="M17.473 8.11964C17.4191 8.11964 17.3698 8.08371 17.3553 8.02925C17.3378 7.96417 17.3764 7.89734 17.4415 7.87992L18.8551 7.50117C18.9201 7.48355 18.9869 7.52234 19.0044 7.58738C19.0218 7.65246 18.9833 7.71929 18.9182 7.73671L17.5046 8.11546C17.494 8.11828 17.4834 8.11964 17.473 8.11964Z" fill="#F2F2F2"/>
<path id="Path_59" d="M1.66207 14.0101C1.61613 14.0101 1.57215 13.984 1.55148 13.9396C1.52305 13.8786 1.54941 13.806 1.61051 13.7776L2.93684 13.1591C2.99758 13.1307 3.07039 13.1571 3.09887 13.2181C3.12734 13.2791 3.10094 13.3517 3.03984 13.3801L1.71352 13.9986C1.69691 14.0063 1.67934 14.0101 1.66207 14.0101Z" fill="#F2F2F2"/>
<path id="Path_60" d="M17.0117 6.85237C16.9657 6.85237 16.9218 6.82628 16.9011 6.78194C16.8727 6.72093 16.899 6.64835 16.96 6.61991L18.2863 6.00147C18.3473 5.97308 18.42 5.99944 18.4484 6.06046C18.4768 6.12147 18.4505 6.19405 18.3895 6.22249L17.0632 6.84093C17.0465 6.8487 17.029 6.85237 17.0117 6.85237Z" fill="#F2F2F2"/>
<path id="Path_61" d="M2.46386 15.3988C2.42542 15.3988 2.38757 15.3807 2.36382 15.3469C2.32527 15.2917 2.33862 15.2156 2.39378 15.177L3.59253 14.3376C3.64792 14.2989 3.72382 14.3125 3.76241 14.3676C3.80097 14.4228 3.78761 14.4988 3.73245 14.5374L2.5337 15.3768C2.51241 15.3917 2.488 15.3988 2.46386 15.3988Z" fill="#F2F2F2"/>
<path id="Path_62" d="M16.3374 5.68448C16.299 5.68448 16.2611 5.66635 16.2374 5.63249C16.1988 5.57729 16.2122 5.50128 16.2673 5.46264L17.4661 4.62331C17.5215 4.5846 17.5973 4.59815 17.636 4.65327C17.6745 4.70846 17.6612 4.78448 17.606 4.82311L16.4072 5.66245C16.3859 5.67729 16.3615 5.68448 16.3374 5.68448Z" fill="#F2F2F2"/>
<path id="Path_63" d="M3.49448 16.6273C3.46331 16.6273 3.43206 16.6153 3.40827 16.5916C3.36065 16.544 3.36065 16.4667 3.40827 16.4191L4.44308 15.3843C4.49069 15.3367 4.56788 15.3367 4.61554 15.3843C4.66315 15.4319 4.66315 15.5091 4.61554 15.5567L3.58073 16.5916C3.5569 16.6153 3.52565 16.6273 3.49448 16.6273Z" fill="#F2F2F2"/>
<path id="Path_64" d="M15.4706 4.65145C15.4394 4.65145 15.4081 4.63954 15.3843 4.61575C15.3367 4.56817 15.3367 4.49091 15.3843 4.44329L16.4192 3.40849C16.4668 3.36087 16.544 3.36087 16.5916 3.40849C16.6392 3.45606 16.6392 3.53333 16.5916 3.58095L15.5568 4.61575C15.5329 4.6395 15.5017 4.65145 15.4706 4.65145Z" fill="#F2F2F2"/>
<path id="Path_65" d="M4.7229 17.6581C4.69876 17.6581 4.67439 17.6509 4.65306 17.636C4.5979 17.5974 4.58454 17.5214 4.6231 17.4662L5.46251 16.2674C5.50122 16.2123 5.57712 16.1988 5.63239 16.2374C5.68755 16.276 5.70091 16.3521 5.66236 16.4073L4.82294 17.606C4.79915 17.6399 4.76138 17.6581 4.7229 17.6581Z" fill="#F2F2F2"/>
<path id="Path_66" d="M14.4373 3.78456C14.4131 3.78456 14.3887 3.77741 14.3674 3.76249C14.3123 3.7239 14.2989 3.64784 14.3375 3.59265L15.1768 2.39386C15.2155 2.33866 15.2915 2.32526 15.3467 2.3639C15.4019 2.40249 15.4152 2.47854 15.3767 2.53374L14.5373 3.73253C14.5135 3.76643 14.4757 3.78456 14.4373 3.78456Z" fill="#F2F2F2"/>
<path id="Path_67" d="M6.11168 18.4599C6.09441 18.4599 6.07687 18.4562 6.06016 18.4484C5.99914 18.42 5.97273 18.3474 6.00121 18.2864L6.61969 16.9601C6.64808 16.8991 6.72078 16.8727 6.78176 16.9011C6.84277 16.9295 6.86918 17.0021 6.8407 17.0631L6.22223 18.3894C6.2016 18.4338 6.15762 18.4599 6.11168 18.4599Z" fill="#F2F2F2"/>
<path id="Path_68" d="M13.2694 3.11031C13.2521 3.11031 13.2346 3.10664 13.2179 3.09883C13.1569 3.07039 13.1304 2.99781 13.1589 2.9368L13.7774 1.61047C13.8058 1.54941 13.8785 1.52305 13.9394 1.55149C14.0004 1.57992 14.0269 1.6525 13.9984 1.71352L13.3799 3.03984C13.3592 3.08426 13.3153 3.11031 13.2694 3.11031Z" fill="#F2F2F2"/>
<path id="Path_69" d="M7.61912 19.0084C7.60873 19.0084 7.59807 19.0071 7.58748 19.0042C7.52237 18.9868 7.48381 18.9199 7.50127 18.8548L7.88006 17.4413C7.89748 17.3763 7.96444 17.3375 8.0294 17.3551C8.09451 17.3725 8.13307 17.4394 8.11561 17.5044L7.73682 18.918C7.72225 18.9725 7.67295 19.0084 7.61912 19.0084Z" fill="#F2F2F2"/>
<path id="Path_70" d="M12.0024 2.6491C11.992 2.6491 11.9814 2.64777 11.9708 2.64488C11.9057 2.62745 11.8671 2.56058 11.8846 2.49554L12.2633 1.08199C12.2807 1.01695 12.3473 0.978041 12.4127 0.995775C12.4778 1.0132 12.5163 1.08007 12.4989 1.14511L12.1201 2.55867C12.1055 2.61312 12.0563 2.6491 12.0024 2.6491Z" fill="#F2F2F2"/>
<path id="Path_71" d="M9.19825 19.2869C9.19473 19.2869 9.1911 19.2867 9.18751 19.2864C9.1204 19.2805 9.07075 19.2214 9.07665 19.1542L9.20419 17.6964C9.21001 17.6293 9.26915 17.5794 9.33626 17.5855C9.40337 17.5914 9.45301 17.6505 9.44712 17.7176L9.31958 19.1755C9.31403 19.239 9.26083 19.2869 9.19825 19.2869Z" fill="#F2F2F2"/>
<path id="Path_72" d="M10.6743 2.41489C10.6708 2.41489 10.6672 2.41473 10.6636 2.41438C10.5965 2.40852 10.5468 2.34942 10.5527 2.28227L10.6803 0.824418C10.6861 0.757348 10.7446 0.707387 10.8123 0.713559C10.8794 0.719418 10.9291 0.77852 10.9232 0.845668L10.7957 2.30352C10.7901 2.36707 10.7369 2.41489 10.6743 2.41489Z" fill="#F2F2F2"/>
<path id="Path_73" d="M11.2082 11.2081L16.5968 3.40323L8.79195 8.79186L3.40332 16.5967L11.2082 11.2081Z" fill="#F2F2F2"/>
</g>
<path id="Path_74" d="M11.2082 11.2081L16.5968 3.40323L3.40332 16.5967L11.2082 11.2081Z" fill="#CCCCCC"/>
<path id="Path_75" d="M11.2082 11.2081L16.5969 3.40323L8.79199 8.79186L11.2082 11.2081Z" fill="#FF525D"/>
<path id="Path_76" d="M11.2081 11.2081L16.5968 3.40323L10 9.99999L11.2081 11.2081Z" fill="#EF4152"/>
</g>
</svg>
