<svg width="30" height="30" viewBox="0 0 30 30" fill="none" xmlns="http://www.w3.org/2000/svg">
<g id="Bitcoin_sign">
<path id="Path" d="M29.5498 18.6286C27.5464 26.6644 19.4075 31.5548 11.3708 29.5509C3.33733 27.5475 -1.55314 19.4081 0.451232 11.3728C2.45373 3.3361 10.5926 -1.55484 18.627 0.448598C26.6633 2.45204 31.5533 10.5923 29.5498 18.6286Z" fill="#F7931A"/>
<path id="Shape" fill-rule="evenodd" clip-rule="evenodd" d="M21.6136 12.863C21.9122 10.867 20.3925 9.79406 18.3145 9.07828L18.9886 6.37453L17.3428 5.96438L16.6866 8.59687C16.2539 8.48906 15.8095 8.38734 15.368 8.28656L16.0289 5.63672L14.3841 5.22656L13.7095 7.92937C13.3514 7.84781 12.9998 7.76719 12.6586 7.68234L12.6605 7.67391L10.3908 7.10719L9.95297 8.865C9.95297 8.865 11.1741 9.14484 11.1483 9.16219C11.8148 9.32859 11.9353 9.76969 11.9152 10.1194L11.1473 13.1995C11.1933 13.2112 11.2528 13.2281 11.3184 13.2544L11.2626 13.2404C11.2245 13.2309 11.1849 13.221 11.1445 13.2112L10.0683 17.5261C9.98672 17.7286 9.78 18.0323 9.31406 17.917C9.33047 17.9409 8.11781 17.6184 8.11781 17.6184L7.30078 19.5023L9.4425 20.0363C9.68161 20.0962 9.91786 20.1578 10.1516 20.2187L10.1518 20.2188C10.3075 20.2594 10.4621 20.2997 10.6158 20.3391L9.93469 23.0737L11.5786 23.4839L12.2531 20.7783C12.7022 20.9002 13.1381 21.0127 13.5647 21.1186L12.8925 23.8116L14.5383 24.2217L15.2194 21.4922C18.0258 22.0233 20.1361 21.8091 21.0244 19.2708C21.7402 17.227 20.9888 16.0481 19.5122 15.2794C20.5875 15.0314 21.3975 14.3241 21.6136 12.863ZM17.8533 18.1359C17.3867 20.011 14.4517 19.2358 13.1088 18.8811C12.988 18.8492 12.8801 18.8207 12.788 18.7978L13.6917 15.1748C13.8039 15.2028 13.9409 15.2336 14.0961 15.2684C15.485 15.5801 18.3314 16.2188 17.8533 18.1359ZM14.3751 13.5871C15.4948 13.8859 17.9369 14.5376 18.3623 12.8334C18.7968 11.0903 16.4231 10.5648 15.2639 10.3082C15.1335 10.2793 15.0185 10.2539 14.9245 10.2305L14.1052 13.5164C14.1826 13.5357 14.2734 13.5599 14.3751 13.5871Z" fill="white"/>
</g>
</svg>
