<svg width="30" height="30" viewBox="0 0 30 30" fill="none" xmlns="http://www.w3.org/2000/svg">
<g id="Litecoin_sign">
<path id="Path" d="M29.9189 15.0003C29.9189 23.2409 23.2387 29.9213 14.9981 29.9213C6.75745 29.9213 0.0771484 23.2409 0.0771484 15.0003C0.0771484 6.7597 6.75745 0.0793991 14.9981 0.0793991C23.2386 0.0793991 29.9189 6.7597 29.9189 15.0003Z" fill="#BEBEBE"/>
<path id="Path_2" d="M26.7503 15.0005C26.7503 21.4911 21.4883 26.7535 14.9973 26.7535C8.50647 26.7535 3.24414 21.4911 3.24414 15.0005C3.24414 8.50931 8.50647 3.24725 14.9973 3.24725C21.4884 3.24725 26.7503 8.50922 26.7503 15.0005Z" fill="#BEBEBE"/>
<path id="Path_3" d="M14.1259 18.9863L15.0951 15.337L17.3896 14.4987L17.9603 12.354L17.9408 12.3008L15.6822 13.1259L17.3096 6.99834H12.6944L10.5662 14.995L8.78928 15.6441L8.20215 17.8552L9.97768 17.2066L8.72339 21.9194H21.0063L21.7937 18.9863H14.1259Z" fill="white"/>
</g>
</svg>
