<svg width="30" height="30" viewBox="0 0 30 30" fill="none" xmlns="http://www.w3.org/2000/svg">
<g id="Tether_sign">
<circle id="Oval" cx="15" cy="15" r="15" fill="#26A17B"/>
<g id="Group">
<path id="Shape" fill-rule="evenodd" clip-rule="evenodd" d="M16.7452 10.6837V12.8109L16.7475 12.8132C20.6134 12.9951 23.5195 13.7801 23.5195 14.7171C23.5195 15.6564 20.6134 16.4391 16.7475 16.621V23.44H13.3029V16.621C9.43247 16.4368 6.51953 15.6541 6.51953 14.7148C6.51953 13.7755 9.43021 12.9928 13.3029 12.8109V10.6837H8.53808V7.44H21.51V10.6837H16.7452ZM16.7452 16.0363V16.0386V16.0409C20.1583 15.8843 22.7063 15.2765 22.7063 14.5491C22.7063 13.8216 20.1605 13.2138 16.7452 13.0573V15.4331C16.6461 15.4423 16.1144 15.4883 15.0511 15.4883C14.1657 15.4883 13.5236 15.4492 13.3006 15.4331V13.055C9.88078 13.2092 7.32605 13.8193 7.32605 14.5468C7.32605 15.2765 9.87853 15.8843 13.3006 16.0386V16.0363C13.5214 16.0478 14.1454 16.0731 15.0353 16.0731C16.1482 16.0731 16.6483 16.0432 16.7452 16.0363Z" fill="white"/>
</g>
</g>
</svg>
