<svg width="30" height="30" viewBox="0 0 30 30" fill="none" xmlns="http://www.w3.org/2000/svg">
<g id="trueusd-tusd-logo">
<path id="Coin_BG" d="M15 30C6.75 30 0 23.25 0 15C0 6.75 6.75 0 15 0C23.25 0 30 6.75 30 15C30 23.25 23.25 30 15 30Z" fill="#002868"/>
<path id="BG_1_" d="M22.56 24H7.44C6.648 24 6 23.352 6 22.56V7.44C6 6.648 6.648 6 7.44 6H22.56C23.352 6 24 6.648 24 7.44V22.56C24 23.352 23.352 24 22.56 24Z" fill="white"/>
<g id="Group">
<path id="Path" d="M9.51248 22.188C9.46508 22.188 9.42668 22.1448 9.42668 22.0974V19.6788C9.42668 19.6314 9.38828 19.5882 9.34088 19.5882H8.48708C8.43908 19.5882 8.39648 19.5498 8.39648 19.5024V19.035C8.39648 18.9876 8.43968 18.9444 8.48708 18.9444H11.1151C11.1625 18.9444 11.2057 18.987 11.2057 19.035V19.5024C11.2057 19.5498 11.1625 19.5882 11.1151 19.5882H10.2661C10.2187 19.5882 10.1755 19.6308 10.1755 19.6788V22.0974C10.1755 22.1448 10.1371 22.188 10.0897 22.188H9.51248Z" fill="#002868"/>
<path id="Path_2" d="M13.8282 19.035C13.8282 18.9876 13.8666 18.9444 13.914 18.9444H14.4864C14.5338 18.9444 14.577 18.987 14.577 19.035V20.6856C14.577 21.6636 14.0238 22.2312 13.146 22.2312C12.273 22.2312 11.7246 21.6636 11.7246 20.6856V19.035C11.7246 18.9876 11.763 18.9444 11.8104 18.9444H12.3828C12.4302 18.9444 12.4734 18.987 12.4734 19.035V20.709C12.4734 21.1908 12.7212 21.534 13.1508 21.534C13.5804 21.534 13.8282 21.1908 13.8282 20.709V19.035Z" fill="#002868"/>
<path id="Path_3" d="M17.2059 20.0034C17.1297 20.0034 17.1057 19.9746 17.0769 19.9176C16.9767 19.6836 16.7571 19.536 16.4235 19.536C16.1229 19.536 15.8703 19.641 15.8703 19.8414C15.8703 20.061 16.1043 20.1516 16.6191 20.2134C17.4015 20.304 17.8497 20.5428 17.8497 21.1626C17.8497 21.8592 17.2389 22.2264 16.4571 22.2264C15.7797 22.2264 15.1977 21.897 15.1071 21.2058C15.0975 21.1392 15.1311 21.1152 15.1977 21.1152H15.7227C15.7893 21.1152 15.8277 21.144 15.8469 21.1962C15.9183 21.4254 16.1619 21.6018 16.5147 21.6018C16.8249 21.6018 17.0967 21.4872 17.0967 21.2442C17.0967 20.9532 16.8105 20.901 16.2381 20.829C15.5799 20.7432 15.1221 20.5524 15.1221 19.9464C15.1221 19.3404 15.6423 18.9066 16.4577 18.9066C17.1921 18.9066 17.7027 19.3026 17.8077 19.8942C17.8221 19.9608 17.8029 20.004 17.7315 20.004H17.2059V20.0034Z" fill="#002868"/>
<path id="Shape" fill-rule="evenodd" clip-rule="evenodd" d="M18.4131 22.0974C18.4131 22.1448 18.4515 22.188 18.4989 22.188H19.7961C20.7693 22.188 21.5085 21.5298 21.5085 20.5758C21.5085 19.6074 20.7597 18.9444 19.7961 18.9444H18.4989C18.4515 18.9444 18.4131 18.9876 18.4131 19.035V22.0974ZM20.7213 20.5656C20.7213 21.1332 20.3163 21.5436 19.7961 21.5436V21.543H19.2525C19.2051 21.543 19.1667 21.5046 19.1667 21.4572V19.6782C19.1667 19.6302 19.2051 19.5876 19.2525 19.5876H19.7913C20.3157 19.5876 20.7213 19.998 20.7213 20.5656Z" fill="#002868"/>
</g>
<path id="BG" d="M23.5202 17.16H6.48023C6.34823 17.16 6.24023 17.052 6.24023 16.92V7.44001C6.24023 6.78001 6.78023 6.24001 7.44023 6.24001H22.5602C23.2202 6.24001 23.7602 6.78001 23.7602 7.44001V16.92C23.7602 17.052 23.6522 17.16 23.5202 17.16Z" fill="#002868"/>
<path id="_x7C_" d="M15.8836 15.2136H14.3236C14.2246 15.2136 14.1436 15.1326 14.1436 15.0336V8.4336C14.1436 8.3346 14.2246 8.2536 14.3236 8.2536H15.8836C15.9826 8.2536 16.0636 8.3346 16.0636 8.4336V15.0336C16.0636 15.1326 15.9826 15.2136 15.8836 15.2136Z" fill="white"/>
<path id="_x2014_" d="M18.5403 10.1736H11.4603C11.3613 10.1736 11.2803 10.0926 11.2803 9.9936V8.4336C11.2803 8.3346 11.3613 8.2536 11.4603 8.2536H18.5403C18.6393 8.2536 18.7203 8.3346 18.7203 8.4336V9.9936C18.7203 10.0926 18.6393 10.1736 18.5403 10.1736Z" fill="white"/>
</g>
</svg>
