<svg width="140" height="41" viewBox="0 0 140 41" fill="none" xmlns="http://www.w3.org/2000/svg">
<path d="M2 38.7138L8.30698 31.4577C9.31112 30.3024 11.024 30.0884 12.2815 30.961L14.2254 32.3099C18.9548 35.5917 25.5092 33.2517 27.0909 27.7167L30.02 17.4668C31.421 12.5641 38.4011 12.6577 39.6702 17.5962L41.597 25.0944C42.9316 30.2877 49.8548 31.3207 52.6472 26.7431V26.7431C54.7898 23.2305 59.3435 22.0687 62.9071 24.1253L64.0083 24.7608C68.589 27.4044 74.4505 25.4844 76.5795 20.6431L83.5274 4.84388C84.8127 1.92121 88.8357 1.60825 90.5575 4.29698L92.7932 7.78823C96.1845 13.084 103.892 13.1695 107.4 7.95027V7.95027C110.162 3.84123 115.783 2.84634 119.787 5.75783L138 19" stroke="#FF535E" stroke-width="3" stroke-linecap="round"/>
</svg>
