<?xml version="1.0" encoding="UTF-8"?>
<svg width="40px" height="40px" viewBox="0 0 40 40" version="1.1" xmlns="http://www.w3.org/2000/svg" xmlns:xlink="http://www.w3.org/1999/xlink">
    <!-- Generator: Sketch 59 (86127) - https://sketch.com -->
    <title>25180</title>
    <desc>Created with Sketch.</desc>
    <g id="Page-1" stroke="none" stroke-width="1" fill="none" fill-rule="evenodd">
        <g id="BITCORDEX.2" transform="translate(-270.000000, -1930.000000)">
            <g id="markets" transform="translate(230.000000, 1770.000000)">
                <g id="Group-5" transform="translate(40.000000, 136.000000)">
                    <g id="25180" transform="translate(0.000000, 24.000000)">
                        <rect id="Rectangle" fill="#F7931A" x="0" y="0" width="40" height="40" rx="12"></rect>
                        <path d="M26.2957631,21.2333529 C25.8842289,20.7046235 25.2632176,20.3414554 24.4327664,20.144071 C25.4902941,19.6081174 25.9550365,18.6984746 25.8274412,17.4149942 C25.7847851,16.9495774 25.6553254,16.5462138 25.4387638,16.2043105 C25.222053,15.8623331 24.9296128,15.58741 24.5603245,15.3794303 C24.1913345,15.1711912 23.7900169,15.0126687 23.3573039,14.9033811 C22.9244789,14.7940936 22.427558,14.7147397 21.8668767,14.6654307 L21.8668767,12 L20.2276007,12 L20.2276007,14.5913745 C19.9437364,14.5913745 19.5108369,14.5984133 18.9289394,14.6125281 L18.9289394,12 L17.2894397,12 L17.2894397,14.6654307 C17.0551669,14.6725066 16.7110099,14.6761001 16.2568196,14.6761001 L14,14.6654307 L14,16.4001019 L15.1815808,16.4001019 C15.7209713,16.4001019 16.0367904,16.6399047 16.1290378,17.1193251 L16.1290378,20.1549997 C16.2001064,20.1549997 16.2568196,20.1586303 16.2994384,20.1656691 L16.1290378,20.1656691 L16.1290378,24.4174734 C16.0723247,24.7770109 15.8665389,24.9569463 15.5116433,24.9569463 L14.3301371,24.9569463 L14,26.8925955 L16.1292243,26.8925955 C16.2640906,26.8925955 16.4591377,26.8943738 16.7147386,26.8975598 C16.9701903,26.9011162 17.1617325,26.9028945 17.2895143,26.9028945 L17.2895143,29.6 L18.929275,29.6 L18.929275,26.9346064 C19.227271,26.9418305 19.6601705,26.9452758 20.2279363,26.9452758 L20.2279363,29.6 L21.8672496,29.6 L21.8672496,26.9028945 C22.4493335,26.874739 22.9656062,26.8221328 23.4160678,26.7442979 C23.8667531,26.6664629 24.298012,26.5450241 24.7095462,26.3792034 C25.1210431,26.213605 25.4652001,26.0072182 25.7419426,25.7604136 C26.0188342,25.5138312 26.247514,25.1998981 26.4288023,24.8190588 C26.6094941,24.4382195 26.7249712,23.9975128 26.7744881,23.4967536 C26.8671457,22.5168703 26.7073719,21.7623046 26.2957631,21.2333529 Z M18.9608196,16.5161319 C19.0105229,16.5161319 19.1506839,16.5143537 19.3813399,16.5107972 C19.6121078,16.5071666 19.80365,16.5036842 19.9562275,16.5001278 C20.1088423,16.4966454 20.3146653,16.5054625 20.5738084,16.5266161 C20.8328397,16.5477697 21.0510419,16.5760363 21.2284152,16.6112306 C21.4057884,16.6464249 21.6011338,16.7046251 21.8138549,16.7857202 C22.0269488,16.8667412 22.197163,16.9655075 22.3247583,17.0818339 C22.4526147,17.1981603 22.5608209,17.3463098 22.649377,17.5261341 C22.7381942,17.7059214 22.7825654,17.9121599 22.7825654,18.1448127 C22.7825654,18.3422713 22.7506852,18.5221326 22.6868875,18.6843968 C22.6232017,18.8465499 22.527151,18.9823258 22.3995556,19.0916134 C22.271923,19.200938 22.1403752,19.2962219 22.0055089,19.3772428 C21.8707918,19.4582638 21.6985269,19.52354 21.4892362,19.572849 C21.2799828,19.6222322 21.0972403,19.66102 20.9411951,19.6891754 C20.7850381,19.717405 20.5899163,19.7368544 20.3556808,19.7473757 C20.1214079,19.7578969 19.9439229,19.765084 19.8233374,19.7685664 C19.7026401,19.7720487 19.5376834,19.7720487 19.3282436,19.7685664 C19.1187664,19.765084 18.9965031,19.7632316 18.9609315,19.7632316 L18.9609315,16.5160949 L18.9608196,16.5160949 L18.9608196,16.5161319 Z M23.4374704,23.7189963 C23.3698695,23.8812605 23.2830659,24.0223711 23.1766867,24.1423281 C23.0701211,24.2619887 22.9298855,24.3678679 22.7560918,24.4594102 C22.5823354,24.5512117 22.4136127,24.6251197 22.2505204,24.6815417 C22.0872043,24.738186 21.8901809,24.7872728 21.6597486,24.8297282 C21.4287943,24.8720725 21.2266627,24.901858 21.052608,24.9196033 C20.8788143,24.9372746 20.6713134,24.9513153 20.4299188,24.9619847 C20.1887106,24.9723577 20.0005242,24.9777295 19.8657325,24.9777295 C19.7308662,24.9777295 19.5605029,24.9758031 19.3546799,24.9723577 C19.148745,24.9690606 19.0175701,24.9672824 18.9607451,24.9672824 L18.9607451,21.3920977 C19.0174583,21.3920977 19.1860318,21.3886524 19.4664284,21.3814653 C19.7468622,21.3743524 19.9756166,21.3710552 20.1530644,21.3710552 C20.3304749,21.3710552 20.5754118,21.3814653 20.8878004,21.4027671 C21.1998908,21.4237726 21.4625016,21.4553733 21.6755955,21.4976806 C21.8884284,21.5400619 22.1206878,21.6051899 22.372821,21.693435 C22.6246932,21.7815318 22.8288383,21.8890411 22.9850326,22.0159629 C23.1411897,22.1431069 23.2724019,22.3050377 23.3788183,22.5025333 C23.4854958,22.6999177 23.538704,22.9256057 23.538704,23.1795233 C23.538704,23.3771671 23.5049968,23.556695 23.4374704,23.7189963 Z" id="Shape" fill="#FFFFFF" fill-rule="nonzero" transform="translate(20.400000, 20.800000) rotate(25.000000) translate(-20.400000, -20.800000) "></path>
                    </g>
                </g>
            </g>
        </g>
    </g>
</svg>