<svg width="35" height="35" viewBox="0 0 35 35" fill="none" xmlns="http://www.w3.org/2000/svg">
<g id="icon_clock">
<path id="Combined Shape" fill-rule="evenodd" clip-rule="evenodd" d="M17.7975 2.80005C9.51406 2.80005 2.79999 9.51412 2.79999 17.7975C2.79999 26.081 9.51406 32.795 17.7975 32.795C26.0809 32.795 32.795 26.081 32.795 17.7975C32.795 9.51412 26.0809 2.80005 17.7975 2.80005ZM17.7973 5.59985C24.5343 5.59985 29.9948 11.0603 29.9948 17.7974C29.9948 24.5344 24.5343 29.9949 17.7973 29.9949C11.0603 29.9949 5.59979 24.5344 5.59979 17.7974C5.59979 11.0603 11.0603 5.59985 17.7973 5.59985ZM18.6912 11.5292C18.6103 10.8329 18.0185 10.2924 17.3006 10.2924C16.5274 10.2924 15.9006 10.9192 15.9006 11.6924V18.8175L15.9125 19.0004C15.968 19.4215 16.2128 19.7988 16.5833 20.0198L22.1252 23.3259L22.2703 23.4014C22.9097 23.6887 23.677 23.4574 24.0448 22.8408L24.1203 22.6958C24.4076 22.0564 24.1763 21.2891 23.5597 20.9212L18.6999 18.0215L18.7006 11.6924L18.6912 11.5292Z" fill="white"/>
</g>
</svg>
