<svg width="25" height="25" viewBox="0 0 25 25" fill="none" xmlns="http://www.w3.org/2000/svg">
<circle cx="12.5" cy="12.5" r="12.5" fill="#D8D8D8"/>
<mask id="mask0" mask-type="alpha" maskUnits="userSpaceOnUse" x="0" y="0" width="25" height="25">
<circle cx="12.5" cy="12.5" r="12.5" fill="white"/>
</mask>
<g mask="url(#mask0)">
<circle cx="12.5" cy="12.5" r="15.5" fill="#F0F0F0"/>
<path d="M0.204144 3.06329C-1.01339 4.64738 -1.93147 6.47317 -2.46603 8.45663H5.59748L0.204144 3.06329Z" fill="#0052B4"/>
<path d="M27.466 8.45663C26.9315 6.47323 26.0133 4.64744 24.7959 3.06335L19.4026 8.45663H27.466Z" fill="#0052B4"/>
<path d="M-2.46603 16.5435C-1.93141 18.5269 -1.01333 20.3527 0.204144 21.9368L5.5973 16.5435H-2.46603Z" fill="#0052B4"/>
<path d="M21.9367 0.204204C20.3526 -1.01333 18.5269 -1.93141 16.5434 -2.46603V5.59742L21.9367 0.204204Z" fill="#0052B4"/>
<path d="M3.06329 24.7958C4.64737 26.0133 6.47316 26.9314 8.45656 27.466V19.4026L3.06329 24.7958Z" fill="#0052B4"/>
<path d="M8.4565 -2.46603C6.4731 -1.93141 4.64731 -1.01333 3.06329 0.204144L8.4565 5.59736V-2.46603Z" fill="#0052B4"/>
<path d="M16.5435 27.466C18.5269 26.9314 20.3527 26.0133 21.9367 24.7959L16.5435 19.4026V27.466Z" fill="#0052B4"/>
<path d="M19.4026 16.5435L24.7959 21.9368C26.0133 20.3528 26.9315 18.5269 27.466 16.5435H19.4026Z" fill="#0052B4"/>
<path d="M27.8688 10.4783H14.5218H14.5218V-2.86879C13.8599 -2.95495 13.1852 -3 12.5 -3C11.8147 -3 11.1401 -2.95495 10.4783 -2.86879V10.4782V10.4782H-2.86879C-2.95495 11.1401 -3 11.8148 -3 12.5C-3 13.1853 -2.95495 13.8599 -2.86879 14.5217H10.4782H10.4782V27.8688C11.1401 27.955 11.8147 28 12.5 28C13.1852 28 13.8599 27.955 14.5217 27.8688V14.5218V14.5218H27.8688C27.955 13.8599 28 13.1853 28 12.5C28 11.8148 27.955 11.1401 27.8688 10.4783Z" fill="#D80027"/>
<path d="M16.5435 16.5436L23.4601 23.4602C23.7782 23.1422 24.0817 22.8098 24.3712 22.4651L18.4496 16.5435H16.5435V16.5436Z" fill="#D80027"/>
<path d="M8.4565 16.5435H8.45637L1.5398 23.4601C1.85779 23.7782 2.19026 24.0817 2.53489 24.3712L8.4565 18.4495V16.5435Z" fill="#D80027"/>
<path d="M8.4565 8.45661V8.45649L1.53986 1.53979C1.22175 1.85779 0.918289 2.19025 0.628754 2.53488L6.55042 8.45655H8.4565V8.45661Z" fill="#D80027"/>
<path d="M16.5435 8.45662L23.4602 1.53986C23.1422 1.22175 22.8097 0.918289 22.4651 0.628815L16.5435 6.55048V8.45662H16.5435Z" fill="#D80027"/>
</g>
</svg>
