<svg width="35" height="35" viewBox="0 0 35 35" fill="none" xmlns="http://www.w3.org/2000/svg">
<path d="M34.4722 21.7335C32.1348 31.1084 22.6396 36.8139 13.2635 34.4761C3.89123 32.1387 -1.81426 22.6429 0.524153 13.2685C2.86038 3.8924 12.3557 -1.81364 21.729 0.52368C31.1045 2.861 36.8095 12.3579 34.4722 21.7335Z" fill="#1E316F"/>
<path d="M16.9969 4L16.8223 4.58331V21.5097L16.9969 21.6811L24.9942 17.0368L16.9969 4Z" fill="#343434"/>
<path d="M16.9972 4L9 17.0368L16.9972 21.6811V13.4655V4Z" fill="#8C8C8C"/>
<path d="M16.9988 23.1688L16.9004 23.2867V29.3163L16.9988 29.5988L25.0008 18.5269L16.9988 23.1688Z" fill="#3C3C3B"/>
<path d="M16.9972 29.5988V23.1688L9 18.5269L16.9972 29.5988Z" fill="#8C8C8C"/>
<path d="M16.998 21.6813L24.9952 17.0371L16.998 13.4658V21.6813Z" fill="#141414"/>
<path d="M9 17.0371L16.9971 21.6813V13.4658L9 17.0371Z" fill="#393939"/>
</svg>
