<svg width="43" height="43" viewBox="0 0 43 43" fill="none" xmlns="http://www.w3.org/2000/svg">
<g filter="url(#filter0_d_2766_10710)">
<circle cx="21.5" cy="17.5" r="17.5" fill="#26A17B"/>
<path fill-rule="evenodd" clip-rule="evenodd" d="M23.5335 12.4645V14.9463L23.5361 14.949C28.0463 15.1611 31.4368 16.077 31.4368 17.1702C31.4368 18.266 28.0463 19.1792 23.5361 19.3914V27.3468H19.5174V19.3914C15.0019 19.1765 11.6035 18.2633 11.6035 17.1675C11.6035 16.0716 14.9993 15.1584 19.5174 14.9463V12.4645H13.9585V8.68018H29.0924V12.4645H23.5335ZM23.532 18.7096V18.7123V18.715C27.5139 18.5323 30.4865 17.8233 30.4865 16.9745C30.4865 16.1258 27.5165 15.4167 23.532 15.2341V18.0059C23.4163 18.0166 22.7961 18.0704 21.5555 18.0704C20.5226 18.0704 19.7735 18.0247 19.5133 18.0059V15.2314C15.5235 15.4114 12.543 16.1231 12.543 16.9718C12.543 17.8233 15.5209 18.5323 19.5133 18.7123V18.7096C19.7709 18.723 20.4989 18.7526 21.5371 18.7526C22.8355 18.7526 23.419 18.7176 23.532 18.7096Z" fill="white"/>
</g>
<defs>
<filter id="filter0_d_2766_10710" x="0" y="0" width="43" height="43" filterUnits="userSpaceOnUse" color-interpolation-filters="sRGB">
<feFlood flood-opacity="0" result="BackgroundImageFix"/>
<feColorMatrix in="SourceAlpha" type="matrix" values="0 0 0 0 0 0 0 0 0 0 0 0 0 0 0 0 0 0 127 0" result="hardAlpha"/>
<feOffset dy="4"/>
<feGaussianBlur stdDeviation="2"/>
<feComposite in2="hardAlpha" operator="out"/>
<feColorMatrix type="matrix" values="0 0 0 0 0 0 0 0 0 0 0 0 0 0 0 0 0 0 0.25 0"/>
<feBlend mode="normal" in2="BackgroundImageFix" result="effect1_dropShadow_2766_10710"/>
<feBlend mode="normal" in="SourceGraphic" in2="effect1_dropShadow_2766_10710" result="shape"/>
</filter>
</defs>
</svg>
