<svg width="25" height="25" viewBox="0 0 25 25" fill="none" xmlns="http://www.w3.org/2000/svg">
<circle cx="12.5" cy="12.5" r="12.5" fill="#D8D8D8"/>
<mask id="mask0" mask-type="alpha" maskUnits="userSpaceOnUse" x="0" y="0" width="25" height="25">
<circle cx="12.5" cy="12.5" r="12.5" fill="white"/>
</mask>
<g mask="url(#mask0)">
<circle cx="12.4909" cy="12.4909" r="14.2623" fill="#F0F0F0"/>
<path d="M11.9435 12.4909H25.0801C25.0801 11.3546 24.9286 10.2538 24.6464 9.2067H11.9435V12.4909Z" fill="#D80027"/>
<path d="M11.9435 5.92259H24.6585C23.8879 4.66505 22.9025 3.55351 21.7537 2.63843H11.9435V5.92259Z" fill="#D80027"/>
<path d="M12.4909 25.0801C15.4537 25.0801 18.177 24.056 20.3274 22.3433H4.65427C6.80476 24.056 9.52802 25.0801 12.4909 25.0801Z" fill="#D80027"/>
<path d="M1.7494 19.0591H23.2323C23.851 18.0496 24.3308 16.9461 24.6464 15.775H0.335327C0.650894 16.9461 1.13071 18.0496 1.7494 19.0591Z" fill="#D80027"/>
<path fill-rule="evenodd" clip-rule="evenodd" d="M6.88045 1.86763H5.7332C7.68557 0.623063 10.0039 -0.0983582 12.4909 -0.0983582V12.4909H-0.0983582C-0.0983582 11.9592 -0.0650164 11.4354 -0.0010376 10.9211L0.63816 10.4567L1.70524 11.2319L1.29762 9.97749L2.36475 9.20222H1.04574L0.68837 8.10224C0.812049 7.76956 0.949645 7.44367 1.10008 7.12495L1.70524 7.56464L1.38087 6.56631C1.47815 6.3843 1.57965 6.20496 1.68547 6.02841L2.36475 5.53492H1.99716C2.67579 4.51323 3.49931 3.59628 4.43887 2.81364L4.08677 3.89734L5.15385 3.12207L6.22094 3.89734L5.81331 2.64289L6.88045 1.86763ZM5.15385 10.4567L6.22094 11.2319L5.81331 9.97749L6.88045 9.20222H5.56143L5.15385 7.94777L4.74628 9.20222H3.42726L4.4944 9.97749L4.08677 11.2319L5.15385 10.4567ZM5.81331 6.31019L6.22094 7.56464L5.15385 6.78937L4.08677 7.56464L4.4944 6.31019L3.42726 5.53492H4.74628L5.15385 4.28048L5.56143 5.53492H6.88045L5.81331 6.31019ZM9.66955 10.4567L10.7366 11.2319L10.329 9.97749L11.3961 9.20222H10.0771L9.66955 7.94777L9.26197 9.20222H7.94296L9.01009 9.97749L8.60246 11.2319L9.66955 10.4567ZM10.329 6.31019L10.7366 7.56464L9.66955 6.78937L8.60246 7.56464L9.01009 6.31019L7.94296 5.53492H9.26197L9.66955 4.28048L10.0771 5.53492H11.3961L10.329 6.31019ZM10.7366 3.89734L10.329 2.64289L11.3961 1.86763H10.0771L9.66955 0.613179L9.26197 1.86763H7.94296L9.01009 2.64289L8.60246 3.89734L9.66955 3.12207L10.7366 3.89734Z" fill="#0052B4"/>
</g>
</svg>
