<svg width="20" height="20" viewBox="0 0 20 20" fill="none" xmlns="http://www.w3.org/2000/svg">
<g id="bitcoin">
<circle id="Oval" cx="10" cy="10" r="10" fill="#FF763F"/>
<path id="Shape" fill-rule="evenodd" clip-rule="evenodd" d="M12.8777 11.9707C12.7966 11.6014 12.5697 11.2679 12.1971 10.9704C12.8606 10.9438 13.3141 10.585 13.5578 9.894C13.6479 9.64427 13.6793 9.40603 13.6519 9.1789C13.6244 8.95169 13.5425 8.74115 13.4057 8.54696C13.2691 8.3527 13.1042 8.17643 12.9116 8.0181C12.7189 7.85975 12.4867 7.70169 12.2149 7.54407L12.855 6.17152L12.0259 5.78492L11.4037 7.11934C11.2601 7.05239 11.0395 6.95392 10.7418 6.82396L11.3691 5.47864L10.5399 5.09199L9.89989 6.46455C9.77971 6.41294 9.60478 6.33363 9.37508 6.22651L8.23625 5.68878L7.81971 6.58205L8.4173 6.8607C8.6901 6.98791 8.79224 7.18588 8.72377 7.45451L7.99484 9.01772C8.03078 9.03449 8.05859 9.04973 8.07845 9.06341L7.99227 9.02322L6.97131 11.2127C6.8563 11.3844 6.70901 11.4286 6.52952 11.3449L5.93198 11.0662L5.30025 11.9851L6.37707 12.4873C6.44528 12.5191 6.5435 12.566 6.672 12.6279C6.80035 12.69 6.89679 12.7361 6.96142 12.7662L6.31378 14.1551L7.14309 14.5418L7.78312 13.1693C7.93209 13.2433 8.15021 13.3471 8.43735 13.481L7.79989 14.8481L8.62898 15.2347L9.27662 13.8458C9.57777 13.9686 9.85151 14.0633 10.098 14.1294C10.3446 14.1956 10.5919 14.2348 10.8399 14.2465C11.0877 14.2582 11.3114 14.2331 11.5106 14.1713C11.7098 14.1096 11.9009 14.0019 12.084 13.8485C12.2668 13.695 12.4311 13.4953 12.5764 13.2491C12.8585 12.7664 12.9589 12.3402 12.8777 11.9707ZM10.3008 7.81173L10.3009 7.81176L9.52115 9.48385C9.53914 9.49224 9.60053 9.52202 9.70563 9.57322C9.81072 9.62441 9.89415 9.66331 9.95603 9.68998C10.0179 9.71663 10.1093 9.75478 10.2303 9.80461C10.3513 9.85444 10.4547 9.89044 10.5405 9.91273C10.6261 9.93503 10.7279 9.95816 10.8456 9.98208C10.9632 10.006 11.066 10.0131 11.1536 10.0031C11.2413 9.99319 11.3307 9.97515 11.4215 9.94895C11.5123 9.92277 11.5935 9.8755 11.6646 9.80702C11.7358 9.73851 11.7952 9.65341 11.8426 9.55173C11.8984 9.43192 11.9255 9.31526 11.9238 9.20173C11.9222 9.08824 11.903 8.98643 11.8663 8.89638C11.8297 8.80639 11.7673 8.71538 11.679 8.62341C11.5909 8.53148 11.5061 8.45544 11.4248 8.39549C11.3435 8.33553 11.24 8.26952 11.1141 8.19753C10.9881 8.12553 10.8861 8.07245 10.8081 8.03825C10.73 8.00409 10.6323 7.96072 10.5148 7.90816C10.3973 7.85564 10.326 7.8235 10.3009 7.81176L10.3009 7.81174L10.3008 7.81172L10.3008 7.81173ZM10.6017 12.7331C10.6844 12.6964 10.7621 12.6442 10.8353 12.5766C10.9084 12.5089 10.9686 12.4244 11.016 12.3227C11.077 12.1919 11.1043 12.0631 11.0977 11.9363C11.0913 11.8095 11.0639 11.6952 11.0154 11.5929C10.9669 11.4907 10.8895 11.3872 10.7832 11.2824C10.6769 11.1775 10.5751 11.0892 10.4776 11.0172C10.38 10.9452 10.2548 10.867 10.102 10.7825C9.9491 10.6979 9.82772 10.6348 9.73799 10.5929C9.64825 10.5511 9.53176 10.4988 9.38822 10.4364C9.24469 10.3739 9.1586 10.336 9.12992 10.3226L8.27143 12.1636C8.30017 12.177 8.36609 12.2089 8.46945 12.2591C8.57272 12.3094 8.65841 12.3506 8.72662 12.3824C8.79479 12.4142 8.89126 12.4558 9.01574 12.5074C9.14039 12.5588 9.24871 12.6005 9.34085 12.6324C9.43314 12.6643 9.54252 12.6966 9.66949 12.7293C9.79623 12.7618 9.90766 12.783 10.0039 12.7923C10.0999 12.8017 10.203 12.8035 10.3129 12.7972C10.4228 12.791 10.5191 12.7696 10.6017 12.7331Z" fill="white"/>
</g>
</svg>
