<svg width="70" height="70" viewBox="0 0 70 70" fill="none" xmlns="http://www.w3.org/2000/svg">
<rect width="70" height="70" rx="5" fill="#F99400"/>
<path d="M25.7855 40.9004C25.615 41.3269 25.1829 41.9665 24.2088 41.7236C24.2432 41.774 21.708 41.0949 21.708 41.0949L20 45.062L24.4773 46.1863C25.3103 46.3966 26.1266 46.6167 26.9301 46.824L25.5062 52.5827L28.9429 53.4464L30.3531 47.7489C31.2919 48.0055 32.2032 48.2424 33.0949 48.4655L31.6897 54.1363L35.1303 55L36.5542 49.2522C42.4212 50.3705 46.8328 49.9195 48.6898 44.5744C50.1862 40.2707 48.6154 37.7881 45.5285 36.1693C47.7766 35.6471 49.4699 34.1576 49.9216 31.0808C50.5458 26.8778 47.3688 24.6184 43.0247 23.1111L44.4339 17.4175L40.9932 16.5538L39.6213 22.0973C38.7169 21.8702 37.7878 21.656 36.8648 21.4438L38.2465 15.8637L34.8078 15L33.3977 20.6916C32.649 20.5198 31.9141 20.3499 31.2006 20.1713L31.2045 20.1535L26.4596 18.9602L25.5443 22.6617C25.5443 22.6617 28.0971 23.251 28.0432 23.2876C29.4367 23.638 29.6885 24.5668 29.6464 25.3032L25.7855 40.9004ZM42.0605 42.1846C40.9973 46.4883 33.8035 44.1617 31.4712 43.5784L33.3605 35.9492C35.6928 36.5355 43.1717 37.6963 42.0605 42.1846ZM43.1247 31.0187C42.1545 34.9335 36.167 32.9445 34.2248 32.4569L35.9378 25.5374C37.88 26.025 44.135 26.9351 43.1247 31.0187Z" fill="white"/>
</svg>
