<svg width="70" height="70" viewBox="0 0 70 70" fill="none" xmlns="http://www.w3.org/2000/svg">
<rect width="70" height="70" rx="5" fill="#263E83"/>
<path d="M41.1366 33.1701C39.5462 32.3027 37.8553 31.6418 36.1812 30.9561C35.2102 30.5596 34.2811 30.097 33.4608 29.4526C31.8453 28.1804 32.155 26.115 34.0467 25.2972C34.5824 25.0659 35.1432 24.9915 35.7124 24.9585C37.9055 24.8428 39.9898 25.2394 41.9736 26.1811C42.9613 26.652 43.2878 26.5033 43.6226 25.4872C43.9742 24.4132 44.2671 23.3227 44.5936 22.2405C44.8112 21.5135 44.5434 21.0344 43.8486 20.7287C42.5763 20.1752 41.2705 19.7787 39.8977 19.5639C38.1064 19.2913 38.1064 19.283 38.098 17.5068C38.0897 15.0037 38.0897 15.0037 35.545 15.0037C35.1767 15.0037 34.8084 14.9954 34.4401 15.0037C33.2515 15.0367 33.0506 15.2432 33.0171 16.4246C33.0004 16.9533 33.0171 17.482 33.0088 18.019C33.0004 19.5887 32.992 19.5639 31.4686 20.1091C27.7855 21.4309 25.5088 23.9093 25.266 27.8747C25.0484 31.3857 26.9066 33.7567 29.828 35.4833C31.6276 36.549 33.6198 37.1769 35.5283 38.0112C36.2733 38.3334 36.9848 38.7052 37.6042 39.2174C39.4373 40.7127 39.1025 43.1993 36.9262 44.1411C35.7627 44.645 34.5322 44.7689 33.2682 44.612C31.3179 44.3724 29.4513 43.8685 27.6935 42.968C26.6639 42.4393 26.3626 42.5797 26.011 43.6785C25.7097 44.6285 25.4418 45.5868 25.1739 46.5451C24.814 47.8339 24.9479 48.1395 26.1951 48.7426C27.7855 49.5026 29.4848 49.8909 31.2175 50.1635C32.5735 50.3783 32.6153 50.4361 32.6321 51.824C32.6405 52.4519 32.6405 53.088 32.6488 53.7159C32.6572 54.5089 33.0422 54.9716 33.8709 54.9881C34.8084 55.0046 35.7543 55.0046 36.6918 54.9798C37.4619 54.9633 37.8553 54.5503 37.8553 53.782C37.8553 52.9228 37.8972 52.0554 37.8637 51.1962C37.8218 50.3205 38.2069 49.8744 39.0607 49.6431C41.0277 49.1143 42.7018 48.0734 43.9909 46.5203C47.5735 42.2245 46.2091 35.9377 41.1366 33.1701Z" fill="white"/>
</svg>
