<svg width="30" height="30" viewBox="0 0 30 30" fill="none" xmlns="http://www.w3.org/2000/svg">
<path d="M30 3.43758C30 1.54129 28.4587 0 26.5624 0H3.43758C1.54129 0 0 1.54129 0 3.43758V26.5624C0 28.4587 1.54129 30 3.43758 30H26.5624C28.4587 30 30 28.4587 30 26.5624V3.43758Z" fill="#233A7D"/>
<path d="M22.6028 10.0542C23.0915 10.5428 23.0915 11.3327 22.6028 11.8216L14.4778 19.9464C14.234 20.1902 13.914 20.3129 13.5941 20.3129C13.2741 20.3129 12.9541 20.1902 12.7103 19.9464L8.64792 15.884C8.15903 15.3954 8.15903 14.6053 8.64792 14.1166C9.13658 13.6277 9.92645 13.6277 10.4153 14.1166L13.5941 17.2953L20.8354 10.0542C21.3241 9.56528 22.114 9.56528 22.6028 10.0542Z" fill="#319BE2"/>
</svg>
