<svg width="100%" height="100%" viewBox="0 0 23 23" fill="none" xmlns="http://www.w3.org/2000/svg">
<path fill-rule="evenodd" clip-rule="evenodd" d="M11.4996 0.788086C5.58287 0.788086 0.787109 5.58385 0.787109 11.5006C0.787109 17.4173 5.58287 22.2131 11.4996 22.2131C17.4163 22.2131 22.2121 17.4173 22.2121 11.5006C22.2121 5.58385 17.4163 0.788086 11.4996 0.788086ZM11.4996 2.78809C16.3118 2.78809 20.2121 6.68842 20.2121 11.5006C20.2121 16.3128 16.3118 20.2131 11.4996 20.2131C6.68744 20.2131 2.78711 16.3128 2.78711 11.5006C2.78711 6.68842 6.68744 2.78809 11.4996 2.78809ZM12.1376 7.02269C12.0798 6.52535 11.6571 6.13931 11.1443 6.13931C10.592 6.13931 10.1443 6.58702 10.1443 7.13931V12.2287L10.1528 12.3593C10.1924 12.6601 10.3673 12.9296 10.632 13.0875L14.5905 15.4489L14.6941 15.5029C15.1508 15.7081 15.6989 15.5428 15.9616 15.1024L16.0156 14.9988C16.2207 14.5421 16.0555 13.994 15.6151 13.7313L12.1438 11.6601L12.1443 7.13931L12.1376 7.02269Z" fill="#EFA809"/>
</svg>
