<svg width="12" height="12" viewBox="0 0 12 12" fill="none" xmlns="http://www.w3.org/2000/svg">
<path fill-rule="evenodd" clip-rule="evenodd" d="M0.292898 11.7071C-0.097629 11.3166 -0.0976332 10.6834 0.292889 10.2929L4.58579 5.99994L0.292898 1.70711C-0.097629 1.31659 -0.0976332 0.683425 0.292889 0.292898C0.68341 -0.097629 1.31658 -0.0976332 1.7071 0.292889L6 4.58573L10.2929 0.292889C10.6834 -0.0976332 11.3166 -0.097629 11.7071 0.292898C12.0976 0.683425 12.0976 1.31659 11.7071 1.70711L7.41421 5.99994L11.7071 10.2929C12.0976 10.6834 12.0976 11.3166 11.7071 11.7071C11.3166 12.0976 10.6834 12.0976 10.2929 11.7071L6 7.41416L1.70711 11.7071C1.31659 12.0976 0.683425 12.0976 0.292898 11.7071Z" fill="#319BE2"/>
</svg>
