<svg width="100%" height="100%" viewBox="0 0 21 21" fill="none" xmlns="http://www.w3.org/2000/svg">
<path fill-rule="evenodd" clip-rule="evenodd" d="M0.125 10.5C0.125 4.77005 4.77005 0.125 10.5 0.125C16.23 0.125 20.875 4.77005 20.875 10.5C20.875 16.23 16.23 20.875 10.5 20.875C4.77005 20.875 0.125 16.23 0.125 10.5ZM18.875 10.5C18.875 5.87462 15.1254 2.125 10.5 2.125C5.87462 2.125 2.125 5.87462 2.125 10.5C2.125 15.1254 5.87462 18.875 10.5 18.875C15.1254 18.875 18.875 15.1254 18.875 10.5ZM12.9179 6.66789C13.3084 6.27737 13.9416 6.27737 14.3321 6.66789C14.6926 7.02838 14.7203 7.59561 14.4153 7.9879L14.3321 8.08211L11.9142 10.5L14.3321 12.9179C14.7226 13.3084 14.7226 13.9416 14.3321 14.3321C13.9716 14.6926 13.4044 14.7203 13.0121 14.4153L12.9179 14.3321L10.5 11.9142L8.08211 14.3321C7.69158 14.7226 7.05842 14.7226 6.66789 14.3321C6.30741 13.9716 6.27968 13.4044 6.5847 13.0121L6.66789 12.9179L9.08579 10.5L6.66789 8.08211C6.27737 7.69158 6.27737 7.05842 6.66789 6.66789C7.02838 6.30741 7.59561 6.27968 7.9879 6.5847L8.08211 6.66789L10.5 9.08579L12.9179 6.66789Z" fill="#FF5154"/>
</svg>
