<svg width="30" height="30" viewBox="0 0 30 30" fill="none" xmlns="http://www.w3.org/2000/svg">
<path fill-rule="evenodd" clip-rule="evenodd" d="M18.4149 7.05329C18.1127 6.18164 17.335 5.62549 16.4545 5.62549H12.927L12.7632 5.63193C11.897 5.70031 11.1578 6.30655 10.9301 7.15802L10.7131 8.23369L10.6912 8.30492C10.634 8.4406 10.4997 8.53299 10.3478 8.53299H7.625L7.50838 8.53972C7.01104 8.59748 6.625 9.02015 6.625 9.53299C6.625 10.0853 7.07272 10.533 7.625 10.533H7.80032L8.6826 21.177C8.76856 22.2139 9.63525 23.0117 10.6758 23.0117H18.6409L18.795 23.0059C19.7614 22.932 20.5459 22.1691 20.6331 21.1888L21.5803 10.533H21.7567L21.8733 10.5263C22.3706 10.4685 22.7567 10.0458 22.7567 9.53299C22.7567 8.9807 22.309 8.53299 21.7567 8.53299H19.0337C18.8565 8.53299 18.7032 8.40724 18.6684 8.23329L18.4659 7.22036L18.4149 7.05329ZM16.6889 8.53299L16.5193 7.67463C16.5141 7.65527 16.5007 7.63988 16.4832 7.63178L16.4545 7.62549H12.927L12.8878 7.63138C12.883 7.63181 12.8794 7.6312 12.8774 7.6284L12.8768 7.61228L12.6928 8.53299H16.6889ZM10.3478 10.533L9.80717 10.533L10.6758 21.0117H18.6409L19.5725 10.533L19.0337 10.533H10.3478Z" fill="#FF5154"/>
</svg>
