<svg width="30" height="30" viewBox="0 0 30 30" fill="none" xmlns="http://www.w3.org/2000/svg">
<path fill-rule="evenodd" clip-rule="evenodd" d="M7.27017 17.425L12.8743 10.0634C12.9088 9.97778 12.9557 9.89552 13.0155 9.81922C13.0692 9.75074 13.13 9.69116 13.1961 9.64071L14.5682 7.83835C15.643 6.46903 17.4458 6.42284 18.8399 7.5158L20.2299 8.6058C21.6244 9.69918 22.0102 11.459 20.9445 12.8195L13.6474 22.405C13.1832 22.9983 12.4745 23.3483 11.7227 23.3567L8.52567 23.3977C8.05584 23.4037 7.64518 23.0818 7.53881 22.6241L6.81502 19.5101C6.64424 18.7784 6.81463 18.0087 7.27017 17.425ZM8.85424 18.6459L14.0118 11.8709L17.2317 14.3949L12.0642 21.183L12.0088 21.241C11.9271 21.3118 11.8158 21.3555 11.6987 21.3568L9.30395 21.3871L8.76288 19.0564C8.72954 18.9135 8.76284 18.7631 8.85424 18.6459ZM19.3616 11.5972L18.4433 12.8034L15.2234 10.2793L16.1505 9.06147C16.4771 8.64563 17.0216 8.63168 17.6058 9.08972L18.9958 10.1797C19.5808 10.6384 19.6971 11.1687 19.3616 11.5972ZM23.5765 22.3982C23.5765 21.8459 23.1288 21.3982 22.5765 21.3982H16.1995L16.0829 21.4049C15.5856 21.4627 15.1995 21.8853 15.1995 22.3982C15.1995 22.9504 15.6473 23.3982 16.1995 23.3982H22.5765L22.6932 23.3914C23.1905 23.3337 23.5765 22.911 23.5765 22.3982Z" fill="#319BE2"/>
</svg>
