<svg width="25" height="26" viewBox="0 0 25 26" fill="none" xmlns="http://www.w3.org/2000/svg">
<path d="M24.6258 15.5257C22.9561 22.2229 16.173 26.2987 9.47502 24.6286C2.77977 22.9589 -1.29605 16.1754 0.374439 9.47859C2.04337 2.78061 8.82651 -1.29561 15.5225 0.374101C22.2201 2.04381 26.2956 8.82813 24.6258 15.5257Z" fill="#F7931A"/>
<path fill-rule="evenodd" clip-rule="evenodd" d="M18.0126 10.7203C18.2615 9.05685 16.9949 8.16261 15.2631 7.56606L15.8249 5.3127L14.4532 4.97087L13.9063 7.16485C13.5457 7.075 13.1754 6.99022 12.8074 6.90623L13.3582 4.69779L11.9873 4.35596L11.4252 6.60854C11.1267 6.54056 10.8337 6.47337 10.5493 6.40266L10.5509 6.39563L8.65926 5.92331L8.29438 7.38831C8.29438 7.38831 9.31206 7.62154 9.29058 7.63599C9.8461 7.77468 9.94651 8.1423 9.92971 8.43374L9.28979 11.0008C9.32808 11.0106 9.37769 11.0246 9.43239 11.0465L9.38587 11.0349C9.35407 11.0269 9.32111 11.0187 9.28745 11.0106L8.39048 14.6067C8.3225 14.7754 8.15022 15.0286 7.7619 14.9325C7.77557 14.9524 6.76492 14.6836 6.76492 14.6836L6.08398 16.2537L7.86894 16.6987C8.06828 16.7486 8.26522 16.8 8.46011 16.8508L8.46018 16.8508C8.58992 16.8847 8.71876 16.9183 8.84678 16.951L8.27914 19.2302L9.64921 19.572L10.2114 17.3171C10.5856 17.4187 10.949 17.5124 11.3045 17.6007L10.7442 19.8451L12.1159 20.1869L12.6835 17.9121C15.0224 18.3547 16.7812 18.1762 17.5215 16.0607C18.1181 14.3574 17.4918 13.3749 16.2612 12.7342C17.1574 12.5275 17.8325 11.938 18.0126 10.7203ZM14.878 15.1149C14.4891 16.6776 12.043 16.0315 10.9238 15.7359L10.9237 15.7359C10.823 15.7093 10.7331 15.6856 10.6564 15.6665L11.4096 12.647C11.5031 12.6704 11.6172 12.696 11.7466 12.725L11.7466 12.725C12.9042 12.9848 15.2764 13.5171 14.878 15.1149ZM11.9809 11.3238C12.914 11.5729 14.9494 12.116 15.3039 10.6957C15.6659 9.24297 13.6877 8.80504 12.7216 8.59116C12.6129 8.5671 12.517 8.54588 12.4387 8.52637L11.7559 11.2649C11.8204 11.281 11.8961 11.3012 11.9809 11.3238Z" fill="white"/>
</svg>
