<svg width="25" height="25" viewBox="0 0 25 25" fill="none" xmlns="http://www.w3.org/2000/svg">
<circle cx="12.5" cy="12.5" r="12.5" fill="#26A17B"/>
<path fill-rule="evenodd" clip-rule="evenodd" d="M13.953 8.90331V10.676L13.9549 10.6779C17.1765 10.8295 19.5983 11.4836 19.5983 12.2645C19.5983 13.0472 17.1765 13.6995 13.9549 13.851V19.5335H11.0844V13.851C7.85909 13.6976 5.43164 13.0453 5.43164 12.2625C5.43164 11.4798 7.85721 10.8275 11.0844 10.676V8.90331H7.11377V6.2002H17.9237V8.90331H13.953ZM13.9528 13.3641V13.366V13.3679C16.797 13.2374 18.9204 12.731 18.9204 12.1247C18.9204 11.5185 16.7989 11.012 13.9528 10.8816V12.8614C13.8702 12.8691 13.4272 12.9075 12.541 12.9075C11.8032 12.9075 11.2682 12.8748 11.0823 12.8614V10.8796C8.23246 11.0082 6.10352 11.5166 6.10352 12.1228C6.10352 12.731 8.23058 13.2374 11.0823 13.366V13.3641C11.2663 13.3736 11.7863 13.3947 12.5279 13.3947C13.4553 13.3947 13.8721 13.3698 13.9528 13.3641Z" fill="white"/>
</svg>
