<svg width="25" height="25" viewBox="0 0 25 25" fill="none" xmlns="http://www.w3.org/2000/svg">
<path d="M12.5 25C19.4271 25 25 19.4271 25 12.5C25 5.57288 19.4271 0 12.5 0C5.57288 0 0 5.57288 0 12.5C0 19.4271 5.57288 25 12.5 25Z" fill="#2775CA"/>
<path d="M15.9381 14.4792C15.9381 12.6564 14.8444 12.0314 12.6569 11.771C11.0944 11.5626 10.7819 11.146 10.7819 10.4167C10.7819 9.6875 11.3027 9.21887 12.3444 9.21887C13.2819 9.21887 13.8027 9.53137 14.0631 10.3126C14.1152 10.4689 14.2715 10.573 14.4277 10.573H15.261C15.4694 10.573 15.6256 10.4167 15.6256 10.2085V10.1564C15.4172 9.0105 14.4797 8.12512 13.2819 8.021V6.771C13.2819 6.56262 13.1256 6.40637 12.8652 6.35425H12.084C11.8756 6.35425 11.7194 6.5105 11.6672 6.771V7.96887C10.1047 8.17725 9.11523 9.21887 9.11523 10.521C9.11523 12.2397 10.1569 12.9167 12.3444 13.1772C13.8027 13.4376 14.2715 13.7501 14.2715 14.5835C14.2715 15.4169 13.5422 15.9897 12.5527 15.9897C11.1985 15.9897 10.7297 15.4167 10.5735 14.6355C10.5215 14.4272 10.3652 14.323 10.209 14.323H9.32348C9.11523 14.323 8.95898 14.4792 8.95898 14.6876V14.7397C9.16723 16.0417 10.0006 16.9792 11.7194 17.2397V18.4897C11.7194 18.698 11.8756 18.8542 12.136 18.9064H12.9172C13.1256 18.9064 13.2819 18.7501 13.334 18.4897V17.2397C14.8965 16.9792 15.9381 15.8855 15.9381 14.4792Z" fill="white"/>
<path fill-rule="evenodd" clip-rule="evenodd" d="M5.20646 9.948C3.69596 13.9585 5.77934 18.4897 9.84184 19.948C9.99809 20.0522 10.1543 20.2605 10.1543 20.4167V21.146C10.1543 21.2501 10.1543 21.3022 10.1022 21.3542C10.0502 21.5626 9.84184 21.6667 9.63346 21.5626C6.71684 20.6251 4.47721 18.3855 3.53971 15.4689C1.97721 10.521 4.68559 5.2605 9.63346 3.698C9.68559 3.646 9.78971 3.646 9.84184 3.646C10.0502 3.698 10.1543 3.85425 10.1543 4.06262V4.79175C10.1543 5.05225 10.0502 5.2085 9.84184 5.31262C7.70646 6.09387 5.98771 7.7605 5.20646 9.948ZM14.8939 3.90669C14.9459 3.69832 15.1543 3.59419 15.3627 3.69832C18.2272 4.63582 20.5189 6.87544 21.4564 9.84419C23.0189 14.7921 20.3105 20.0526 15.3627 21.6151C15.3105 21.6671 15.2064 21.6671 15.1543 21.6671C14.9459 21.6151 14.8418 21.4588 14.8418 21.2504V20.5213C14.8418 20.2608 14.9459 20.1046 15.1543 20.0004C17.2897 19.2192 19.0084 17.5526 19.7897 15.3651C21.3002 11.3546 19.2168 6.82332 15.1543 5.36507C14.998 5.26082 14.8418 5.05257 14.8418 4.84419V4.11507C14.8418 4.01082 14.8418 3.95882 14.8939 3.90669Z" fill="white"/>
</svg>
