<svg width="25" height="25" viewBox="0 0 25 25" fill="none" xmlns="http://www.w3.org/2000/svg">
<path d="M25 12.4999C25 19.4035 19.4036 25 12.5001 25C5.59644 25 0 19.4035 0 12.4999C0 5.59641 5.59644 0 12.5001 0C19.4036 0 25 5.59641 25 12.4999Z" fill="#BEBEBE"/>
<path d="M22.3466 12.5C22.3466 17.9375 17.9384 22.3461 12.5006 22.3461C7.06282 22.3461 2.6543 17.9375 2.6543 12.5C2.6543 7.06208 7.06282 2.65381 12.5006 2.65381C17.9385 2.65381 22.3466 7.062 22.3466 12.5Z" fill="#BEBEBE"/>
<path d="M11.7693 15.8395L12.5812 12.7823L14.5034 12.08L14.9816 10.2833L14.9652 10.2388L13.0731 10.93L14.4364 5.79663H10.57L8.7871 12.4958L7.29851 13.0396L6.80664 14.8919L8.29409 14.3486L7.24331 18.2967H17.5333L18.193 15.8395H11.7693Z" fill="white"/>
</svg>
