<svg width="190" height="40" viewBox="0 0 190 40" fill="none" xmlns="http://www.w3.org/2000/svg">
<path d="M65.2332 30.1604C66.7816 30.1604 68.0388 29.9912 69.0049 29.6526C70.8371 29.0038 71.7535 27.7977 71.7535 26.0345C71.7535 25.0048 71.299 24.2078 70.39 23.6436C69.4809 23.0935 68.0529 22.6068 66.1069 22.1836L62.7827 21.4431C59.5154 20.7095 57.2568 19.9125 56.0066 19.0521C53.89 17.6133 52.8317 15.3634 52.8317 12.3024C52.8317 9.50945 53.8545 7.18905 55.9001 5.34114C57.9457 3.49327 60.9502 2.56934 64.9135 2.56934C68.2234 2.56934 71.0432 3.4439 73.3729 5.19303C75.7167 6.92805 76.946 9.45298 77.0595 12.7679H70.7519C70.6384 10.8918 69.8146 9.55878 68.2805 8.76885C67.2573 8.24698 65.9861 7.98598 64.4661 7.98598C62.7756 7.98598 61.4261 8.32452 60.4175 9.00165C59.4089 9.67872 58.9046 10.6238 58.9046 11.8369C58.9046 12.9512 59.4018 13.7835 60.3962 14.3337C61.0354 14.7004 62.3992 15.1306 64.4874 15.6243L69.8999 16.915C72.2719 17.4792 74.0617 18.2339 75.2696 19.1791C77.1447 20.646 78.082 22.769 78.082 25.5478C78.082 28.3972 76.9809 30.767 74.7795 32.6572C72.5914 34.5333 69.495 35.4714 65.4889 35.4714C61.3977 35.4714 58.1801 34.5474 55.8362 32.6995C53.4923 30.8376 52.3203 28.2844 52.3203 25.0401H58.5849C58.7839 26.4647 59.1745 27.5297 59.7569 28.2351C60.8224 29.5187 62.6478 30.1604 65.2332 30.1604Z" fill="white"/>
<path d="M113.496 3.47754H120.166L111.323 34.6657H105.059L101.266 16.4268L100.158 10.3965L99.0497 16.4268L95.2565 34.6657H89.1624L80.2559 3.47754H87.2234L91.3786 21.3356L92.2735 26.308L93.19 21.4414L96.7268 3.47754H103.652L107.381 21.3356L108.34 26.308L109.299 21.526L113.496 3.47754Z" fill="white"/>
<path d="M123.641 3.47754H130.161V34.6657H123.641V3.47754Z" fill="white"/>
<path d="M147.698 30.1604C149.247 30.1604 150.503 29.9912 151.47 29.6526C153.302 29.0038 154.218 27.7977 154.218 26.0345C154.218 25.0048 153.764 24.2078 152.855 23.6436C151.946 23.0935 150.518 22.6068 148.572 22.1836L145.247 21.4431C141.98 20.7095 139.722 19.9125 138.472 19.0521C136.355 17.6133 135.297 15.3634 135.297 12.3024C135.297 9.50945 136.319 7.18905 138.365 5.34114C140.411 3.49327 143.415 2.56934 147.378 2.56934C150.688 2.56934 153.508 3.4439 155.838 5.19303C158.181 6.92805 159.411 9.45298 159.524 12.7679H153.217C153.103 10.8918 152.279 9.55878 150.745 8.76885C149.722 8.24698 148.451 7.98598 146.931 7.98598C145.241 7.98598 143.891 8.32452 142.882 9.00165C141.874 9.67872 141.369 10.6238 141.369 11.8369C141.369 12.9512 141.867 13.7835 142.861 14.3337C143.5 14.7004 144.864 15.1306 146.952 15.6243L152.365 16.915C154.736 17.4792 156.526 18.2339 157.734 19.1791C159.609 20.646 160.547 22.769 160.547 25.5478C160.547 28.3972 159.446 30.767 157.244 32.6572C155.057 34.5333 151.96 35.4714 147.954 35.4714C143.862 35.4714 140.645 34.5474 138.301 32.6995C135.957 30.8376 134.785 28.2844 134.785 25.0401H141.05C141.249 26.4647 141.639 27.5297 142.221 28.2351C143.287 29.5187 145.112 30.1604 147.698 30.1604Z" fill="white"/>
<path d="M176.804 30.1604C178.352 30.1604 179.61 29.9912 180.575 29.6526C182.408 29.0038 183.324 27.7977 183.324 26.0345C183.324 25.0048 182.87 24.2078 181.96 23.6436C181.051 23.0935 179.624 22.6068 177.677 22.1836L174.353 21.4431C171.086 20.7095 168.827 19.9125 167.577 19.0521C165.46 17.6133 164.402 15.3634 164.402 12.3024C164.402 9.50945 165.425 7.18905 167.47 5.34114C169.516 3.49327 172.521 2.56934 176.484 2.56934C179.794 2.56934 182.614 3.4439 184.944 5.19303C187.287 6.92805 188.516 9.45298 188.63 12.7679H182.323C182.209 10.8918 181.385 9.55878 179.851 8.76885C178.828 8.24698 177.557 7.98598 176.037 7.98598C174.346 7.98598 172.997 8.32452 171.988 9.00165C170.98 9.67872 170.475 10.6238 170.475 11.8369C170.475 12.9512 170.972 13.7835 171.967 14.3337C172.606 14.7004 173.97 15.1306 176.058 15.6243L181.47 16.915C183.843 17.4792 185.633 18.2339 186.84 19.1791C188.715 20.646 189.653 22.769 189.653 25.5478C189.653 28.3972 188.552 30.767 186.35 32.6572C184.162 34.5333 181.065 35.4714 177.06 35.4714C172.968 35.4714 169.75 34.5474 167.407 32.6995C165.063 30.8376 163.891 28.2844 163.891 25.0401H170.155C170.355 26.4647 170.745 27.5297 171.327 28.2351C172.393 29.5187 174.218 30.1604 176.804 30.1604Z" fill="white"/>
<path d="M0 0H40.2827V40H0V0Z" fill="#EA3324"/>
<path fill-rule="evenodd" clip-rule="evenodd" d="M20.1419 15.286L13.0208 8.21484L8.27344 12.9289L15.3945 20L8.27344 27.071L13.0208 31.7851L20.1419 24.714L27.2629 31.7851L32.0102 27.071L24.8892 20L32.0102 12.9289L27.2629 8.21491L20.1419 15.286Z" fill="white"/>
</svg>
