<svg width="60" height="60" viewBox="0 0 60 60" fill="none" xmlns="http://www.w3.org/2000/svg">
<circle cx="30" cy="30" r="30" fill="#233A7D"/>
<path d="M29.7207 22.7617L32.4277 20.0547C33.5739 19.01 35.0784 18.4472 36.6288 18.4831C38.1791 18.519 39.656 19.1508 40.7526 20.2474C41.8491 21.3439 42.481 22.8208 42.5169 24.3712C42.5528 25.9215 41.9899 27.4261 40.9453 28.5722L37.0762 32.4277C36.5185 32.9874 35.8559 33.4315 35.1263 33.7346C34.3966 34.0376 33.6143 34.1936 32.8242 34.1936C32.0341 34.1936 31.2518 34.0376 30.5222 33.7346C29.7925 33.4315 29.1299 32.9874 28.5723 32.4277" stroke="#319BE2" stroke-width="1.5" stroke-linecap="round" stroke-linejoin="round"/>
<path d="M31.2793 38.2383L28.5722 40.9453C27.4261 41.99 25.9215 42.5528 24.3712 42.5169C22.8208 42.481 21.3439 41.8491 20.2474 40.7526C19.1508 39.656 18.519 38.1791 18.4831 36.6288C18.4472 35.0784 19.01 33.5739 20.0547 32.4277L23.9238 28.5723C24.4814 28.0126 25.1441 27.5685 25.8737 27.2654C26.6034 26.9624 27.3857 26.8064 28.1758 26.8064C28.9658 26.8064 29.7481 26.9624 30.4778 27.2654C31.2074 27.5685 31.8701 28.0126 32.4277 28.5723" stroke="#319BE2" stroke-width="1.5" stroke-linecap="round" stroke-linejoin="round"/>
</svg>
