<svg width="44" height="44" viewBox="0 0 44 44" fill="none" xmlns="http://www.w3.org/2000/svg">
<g id="ripple">
<circle id="Oval" cx="22" cy="22" r="21" fill="#53ABF5" stroke="#0A0B30" stroke-width="2"/>
<path id="Shape" d="M27.9282 24.0911C27.3405 23.911 26.7529 23.8509 26.2241 23.8509C25.6952 23.911 25.1076 23.6709 24.8138 23.1906L24.6375 22.9505C24.2849 22.4103 24.2849 21.75 24.6375 21.2097L24.8138 20.9096C25.1076 20.4894 25.5777 20.2493 26.1066 20.2493C26.7529 20.2493 27.3993 20.1292 28.0457 19.7691C29.6323 18.9287 30.69 17.3079 30.6312 15.5071C30.5724 12.9259 28.457 10.885 25.8715 11.005C23.6973 11.1251 21.8757 12.9259 21.6407 15.1469C21.5231 16.3475 21.8757 17.428 22.4633 18.3284C22.8159 18.8687 22.8159 19.589 22.4633 20.1292L22.4046 20.1893C22.1108 20.6095 21.6407 20.8496 21.1706 20.8496H20.8768C20.2891 20.8496 19.7603 20.4894 19.5252 19.9492C18.7613 18.3884 17.1748 17.368 15.3532 17.428C13.0027 17.488 11.0636 19.4689 11.0048 21.87C10.8873 24.5112 12.9439 26.6722 15.5294 26.6722C17.2923 26.6722 18.8201 25.6518 19.5252 24.1511C19.7603 23.6108 20.2891 23.2507 20.8768 23.2507H21.1118C21.6407 23.2507 22.1108 23.4908 22.3458 23.911L22.6396 24.3312C22.9922 24.8114 22.9334 25.4717 22.6396 25.9519C22.1108 26.7923 21.8757 27.7527 21.9932 28.8332C22.1695 30.9942 23.9324 32.735 25.989 32.9751C28.8684 33.2753 31.2188 30.8141 30.9838 27.9328C30.8663 26.192 29.6323 24.6313 27.9282 24.0911Z" fill="#FEFEFE"/>
</g>
</svg>
