<svg width="18" height="17" viewBox="0 0 18 17" fill="none" xmlns="http://www.w3.org/2000/svg">
<path opacity="0.5" d="M9.23267 13.5574L9 13.4351L8.76733 13.5574L4.68295 15.7047C4.31614 15.8976 3.88742 15.5861 3.95747 15.1776L4.73752 10.6296L4.78196 10.3705L4.59372 10.187L1.28939 6.96611C0.992632 6.67685 1.15639 6.17286 1.5665 6.11327L6.13297 5.44972L6.39311 5.41192L6.50944 5.1762L8.55163 1.03827C8.73504 0.666646 9.26496 0.666646 9.44837 1.03827L11.4906 5.1762L11.6069 5.41192L11.867 5.44972L16.4335 6.11327C16.8436 6.17286 17.0074 6.67685 16.7106 6.96611L13.4063 10.187L13.218 10.3705L13.2625 10.6296L14.0425 15.1776C14.1126 15.5861 13.6839 15.8976 13.3171 15.7047L9.23267 13.5574Z" stroke="white"/>
</svg>
