<svg width="44" height="44" viewBox="0 0 44 44" fill="none" xmlns="http://www.w3.org/2000/svg">
<g id="tether">
<circle id="Oval" cx="22" cy="22" r="21" fill="#05CEAE" stroke="#0A0B30" stroke-width="2"/>
<path id="Shape" fill-rule="evenodd" clip-rule="evenodd" d="M24.2381 23.751C24.1131 23.7603 23.4673 23.7983 22.0266 23.7983C20.8807 23.7983 20.0671 23.7644 19.7817 23.751C15.3533 23.5588 12.048 22.798 12.048 21.8871C12.048 20.9761 15.3533 20.2164 19.7817 20.021V22.9933C20.0713 23.0139 20.9005 23.0622 22.0464 23.0622C23.4214 23.0622 24.11 23.0057 24.234 22.9943V20.0231C28.6529 20.2174 31.951 20.9782 31.951 21.8871C31.951 22.7959 28.654 23.5567 24.234 23.75L24.2381 23.751ZM24.2381 19.7157V17.0559H30.4051V13H13.6147V17.0559H19.7806V19.7146C14.7689 19.9419 11 20.9217 11 22.0958C11 23.2699 14.7689 24.2487 19.7806 24.4769V33H24.2371V24.4738C29.2373 24.2466 33 23.2678 33 22.0947C33 20.9217 29.2404 19.9429 24.2371 19.7146L24.2381 19.7157Z" fill="white"/>
</g>
</svg>
