<svg width="23" height="22" viewBox="0 0 23 22" fill="none" xmlns="http://www.w3.org/2000/svg">
<g id="tether">
<circle id="Oval" cx="11.5" cy="11" r="10.5" fill="#05CEAE" stroke="white"/>
<path id="Shape" fill-rule="evenodd" clip-rule="evenodd" d="M12.6191 11.8755C12.5566 11.8801 12.2336 11.8992 11.5133 11.8992C10.9403 11.8992 10.5335 11.8822 10.3908 11.8755C8.17667 11.7794 6.52398 11.399 6.52398 10.9435C6.52398 10.4881 8.17667 10.1082 10.3908 10.0105V11.4967C10.5356 11.5069 10.9502 11.5311 11.5232 11.5311C12.2107 11.5311 12.555 11.5028 12.617 11.4972V10.0115C14.8265 10.1087 16.4755 10.4891 16.4755 10.9435C16.4755 11.398 14.827 11.7784 12.617 11.875L12.6191 11.8755ZM12.6191 9.85784V8.52796H15.7025V6.5H7.30735V8.52796H10.3903V9.85732C7.88446 9.97093 6 10.4608 6 11.0479C6 11.6349 7.88446 12.1243 10.3903 12.2384V16.5H12.6185V12.2369C15.1187 12.1233 17 11.6339 17 11.0474C17 10.4608 15.1202 9.97144 12.6185 9.85732L12.6191 9.85784Z" fill="white"/>
</g>
</svg>
