<svg width="40" height="40" viewBox="0 0 40 40" fill="none" xmlns="http://www.w3.org/2000/svg">
<circle cx="20" cy="20" r="20" fill="#53ABF5"/>
<path d="M23.2209 19.4479C22.3121 18.9492 21.3459 18.5691 20.3893 18.1749C19.8344 17.9469 19.3035 17.6808 18.8347 17.3103C17.9116 16.5788 18.0886 15.3912 19.1695 14.9209C19.4757 14.7879 19.7961 14.7452 20.1214 14.7262C21.3746 14.6597 22.5656 14.8877 23.6992 15.4292C24.2636 15.7 24.4502 15.6145 24.6415 15.0302C24.8424 14.4127 25.0098 13.7856 25.1963 13.1633C25.3207 12.7453 25.1676 12.4698 24.7706 12.294C24.0436 11.9758 23.2974 11.7478 22.513 11.6243C21.4894 11.4675 21.4894 11.4627 21.4846 10.4414C21.4798 9.00211 21.4798 9.00211 20.0257 9.00211C19.8153 9.00211 19.6048 8.99736 19.3944 9.00211C18.7151 9.02111 18.6004 9.13987 18.5812 9.81916C18.5717 10.1232 18.5812 10.4272 18.5764 10.736C18.5717 11.6385 18.5669 11.6243 17.6963 11.9378C15.5917 12.6978 14.2907 14.1229 14.152 16.403C14.0276 18.4219 15.0895 19.7852 16.7588 20.778C17.7872 21.3908 18.9256 21.7518 20.0162 22.2316C20.4419 22.4169 20.8484 22.6306 21.2024 22.9251C22.2499 23.7849 22.0586 25.2148 20.815 25.7563C20.1501 26.0461 19.447 26.1173 18.7247 26.0271C17.6102 25.8893 16.5436 25.5995 15.5391 25.0817C14.9508 24.7777 14.7786 24.8585 14.5777 25.4903C14.4055 26.0366 14.2525 26.5876 14.0994 27.1386C13.8937 27.8797 13.9702 28.0554 14.6829 28.4022C15.5917 28.8392 16.5627 29.0625 17.5528 29.2192C18.3277 29.3427 18.3516 29.376 18.3612 30.174C18.366 30.535 18.366 30.9008 18.3708 31.2618C18.3755 31.7179 18.5956 31.9839 19.0691 31.9934C19.6048 32.0029 20.1453 32.0029 20.681 31.9886C21.1211 31.9791 21.3459 31.7416 21.3459 31.2998C21.3459 30.8058 21.3698 30.307 21.3507 29.813C21.3268 29.3095 21.5468 29.053 22.0347 28.92C23.1587 28.6159 24.1153 28.0174 24.8519 27.1244C26.8991 24.6542 26.1195 21.0393 23.2209 19.4479Z" fill="white"/>
</svg>
