<svg width="100%" height="100%" viewBox="0 0 21 21" fill="none" xmlns="http://www.w3.org/2000/svg">
<path fill-rule="evenodd" clip-rule="evenodd" d="M10.5 0.125C4.77005 0.125 0.125 4.77005 0.125 10.5C0.125 16.23 4.77005 20.875 10.5 20.875C16.23 20.875 20.875 16.23 20.875 10.5C20.875 4.77005 16.23 0.125 10.5 0.125ZM10.5 2.125C15.1254 2.125 18.875 5.87462 18.875 10.5C18.875 15.1254 15.1254 18.875 10.5 18.875C5.87462 18.875 2.125 15.1254 2.125 10.5C2.125 5.87462 5.87462 2.125 10.5 2.125ZM15.5202 7.46578C15.1389 7.06628 14.5059 7.05155 14.1064 7.43289L9.067 12.242L6.8936 10.1673L6.79749 10.0863C6.39821 9.79047 5.83178 9.83138 5.47977 10.2001C5.09843 10.5996 5.11315 11.2326 5.51264 11.614L8.3772 14.3484L8.4701 14.4269C8.85586 14.715 9.40145 14.6888 9.75815 14.3484L15.4873 8.87961L15.5727 8.78736C15.8868 8.40227 15.8722 7.83454 15.5202 7.46578Z" fill="#06D49C"/>
</svg>
