<svg width="19" height="17" viewBox="0 0 19 17" fill="none" xmlns="http://www.w3.org/2000/svg">
<path id="Danger_icon" fill-rule="evenodd" clip-rule="evenodd" d="M11.6979 2.17734L11.61 2.03036L11.5136 1.89153C10.7765 0.903681 9.39629 0.585135 8.28106 1.20323C7.86849 1.43002 7.52642 1.77178 7.29714 2.18665L1.11693 13.0029L1.0546 13.1686C0.600995 14.4965 1.22123 15.869 2.45674 16.3723L2.65524 16.4429C2.85586 16.5052 3.06254 16.5422 3.27231 16.554L3.34198 16.553L3.37632 16.5552H15.686L15.8556 16.5411C17.1972 16.3865 18.1781 15.243 18.1095 13.9102C18.0935 13.6247 18.032 13.3481 17.9258 13.0898L11.6979 2.17734ZM8.668 2.82042C8.75846 2.69204 8.87306 2.58949 9.00591 2.51646C9.49971 2.24279 10.1183 2.42063 10.3905 2.91248L16.581 13.7471L16.5978 13.8586L16.6117 13.9907C16.6404 14.5484 16.2088 15.0268 15.6468 15.0562L3.35798 15.056L3.24063 15.0437C3.16457 15.0311 3.09067 15.0105 3.01988 14.982C2.50206 14.771 2.25165 14.1778 2.46303 13.6572L8.60477 2.92149L8.668 2.82042ZM9.49139 6.45164C9.87109 6.45164 10.1849 6.73379 10.2345 7.09987L10.2414 7.20164V9.83664C10.2414 10.2508 9.90561 10.5866 9.49139 10.5866C9.1117 10.5866 8.7979 10.3045 8.74824 9.93841L8.74139 9.83664V7.20164C8.74139 6.78742 9.07718 6.45164 9.49139 6.45164ZM9.49442 11.6365C9.08042 11.6365 8.74442 11.9785 8.74442 12.3925C8.74442 12.8065 9.08042 13.1425 9.49442 13.1425C9.90842 13.1425 10.2444 12.8065 10.2444 12.3925V12.3815C10.2444 11.9675 9.90842 11.6365 9.49442 11.6365Z" fill="#FF535E"/>
</svg>
