<svg width="20" height="19" viewBox="0 0 20 19" fill="none" xmlns="http://www.w3.org/2000/svg">
<g id="icon_downlaod">
<path id="more_icon copy" d="M12.2929 9.79289C12.6834 9.40237 13.3166 9.40237 13.7071 9.7929C14.0976 10.1834 14.0976 10.8166 13.7071 11.2071L10.707 14.2071C10.3165 14.5976 9.68334 14.5976 9.29282 14.2071L6.29289 11.2071C5.90237 10.8166 5.90237 10.1834 6.2929 9.79289C6.68343 9.40237 7.31659 9.40237 7.70711 9.7929L9.99995 12.0858L12.2929 9.79289Z" fill="white"/>
<path id="Line" d="M10 12.5V1.5" stroke="white" stroke-width="2" stroke-linecap="round"/>
<path id="Path" d="M19 11V16C19 17.1046 18.1046 18 17 18H3C1.89543 18 1 17.1046 1 16V11" stroke="white" stroke-width="2" stroke-linecap="round"/>
</g>
</svg>
