<svg width="40" height="40" viewBox="0 0 40 40" fill="none" xmlns="http://www.w3.org/2000/svg">
<circle cx="20" cy="20" r="20" fill="#5B69C3"/>
<path d="M25.92 27.0459C25.7231 26.5525 25.5226 26.0591 25.3038 25.5732C25.1106 25.1396 24.8626 25.0125 24.3996 25.1209C23.8125 25.2592 23.2365 25.4423 22.6494 25.5657C21.5155 25.8086 20.3779 25.8311 19.2585 25.4685C17.8547 25.0162 17.1073 23.9734 16.6479 22.6278H20.4544C20.7534 22.6278 20.9941 22.3811 20.9941 22.0746V20.8449C20.9941 20.5384 20.7534 20.2917 20.4544 20.2917H16.2833C16.2833 19.9478 16.2796 19.6189 16.2833 19.2899H20.4544C20.7534 19.2899 20.9941 19.0433 20.9941 18.7368V17.507C20.9941 17.2005 20.7534 16.9538 20.4544 16.9538H16.8083C16.8083 16.9389 16.8083 16.9239 16.8156 16.9165C17.2531 15.896 17.8912 15.0775 18.9377 14.6514C20.1555 14.158 21.3988 14.1692 22.6531 14.4346C23.2474 14.5579 23.8308 14.7448 24.4251 14.8831C24.859 14.984 25.1106 14.8532 25.2965 14.4383C25.5116 13.9599 25.7085 13.474 25.9054 12.9843C26.0914 12.5246 25.982 12.1994 25.559 11.9452C25.4533 11.8817 25.3439 11.8293 25.2309 11.7845C23.4735 11.0818 21.6613 10.8201 19.7909 11.1266C18.4746 11.3434 17.2458 11.8069 16.1848 12.6516C14.8467 13.7132 13.9789 15.1148 13.4757 16.7632L13.4137 16.9538H11.5396C11.2406 16.9538 11 17.2005 11 17.507V18.7368C11 19.0433 11.2406 19.2899 11.5396 19.2899H13.0163C13.0163 19.6263 13.0163 19.9515 13.0163 20.2917H11.5396C11.2406 20.2917 11 20.5384 11 20.8449V22.0746C11 22.3811 11.2406 22.6278 11.5396 22.6278H13.3189C13.4539 23.0763 13.5669 23.5323 13.7383 23.9622C14.6389 26.1899 16.1484 27.7747 18.4199 28.5298C20.2977 29.154 22.19 29.1353 24.0824 28.6008C24.5746 28.4625 25.0632 28.2831 25.5299 28.0625C25.982 27.8495 26.0987 27.4906 25.92 27.0459Z" fill="white"/>
</svg>
