<svg width="25" height="25" viewBox="0 0 25 25" fill="none" xmlns="http://www.w3.org/2000/svg">
<path d="M16.346 2.5H7.26084L6.50739 6.70961L14.7079 6.71933C18.7473 6.71933 19.9383 8.18734 19.9042 10.6178C19.8848 11.8622 19.3452 13.9719 19.1119 14.6573C18.4897 16.4802 17.2113 18.5558 12.4183 18.5509L4.44633 18.5461L3.69531 22.7605H12.761C15.9596 22.7605 17.3158 22.3863 18.7595 21.7252C21.9531 20.2426 23.8538 17.0927 24.617 12.9803C25.7471 6.85543 24.3374 2.5 16.346 2.5Z" fill="#008DE4"/>
<path d="M3.33949 10.5156C0.957612 10.5156 0.617344 12.0663 0.393739 13.0044C0.0972195 14.2294 0 14.7301 0 14.7301H9.30391C11.6858 14.7301 12.0261 13.1794 12.2497 12.2413C12.5462 11.0163 12.6434 10.5156 12.6434 10.5156L3.33949 10.5156Z" fill="#008DE4"/>
</svg>
