<svg width="25" height="25" viewBox="0 0 25 25" fill="none" xmlns="http://www.w3.org/2000/svg">
<path d="M12.5 25C19.4036 25 25 19.4036 25 12.5C25 5.59644 19.4036 0 12.5 0C5.59644 0 0 5.59644 0 12.5C0 19.4036 5.59644 25 12.5 25Z" fill="#0AC18E"/>
<path d="M16.3993 8.30278C15.7711 6.87829 14.3276 6.57372 12.5605 6.86877L11.9926 4.66699L10.6537 5.0128L11.2121 7.20824C10.86 7.29707 10.4983 7.37321 10.1398 7.47473L9.58141 5.29199L8.24257 5.6378L8.81047 7.83958C8.52176 7.92207 6.10742 8.54072 6.10742 8.54072L6.47544 9.97473C6.47544 9.97473 7.45894 9.69872 7.44943 9.72093C7.99511 9.57816 8.25209 9.851 8.37265 10.108L9.93356 16.1422C9.9526 16.3167 9.92087 16.615 9.54651 16.7165C9.56872 16.7292 8.57252 16.9671 8.57252 16.9671L8.71846 18.6391C8.71846 18.6391 11.1106 18.0268 11.4247 17.9474L11.9989 20.1746L13.3378 19.8288L12.7635 17.5858C13.1315 17.5001 13.49 17.4113 13.839 17.3193L14.4101 19.5496L15.7489 19.2038L15.1747 16.9798C17.2369 16.4785 18.6931 15.1778 18.3949 13.1886C18.2045 11.9893 16.8942 11.0058 15.806 10.8948C16.4754 10.3015 16.8149 9.43539 16.3993 8.30278ZM15.7553 13.5534C16.0218 15.5236 13.2838 15.7647 12.3796 16.0027L11.5928 13.0553C12.5002 12.8174 15.3048 11.818 15.7553 13.5534ZM14.1055 9.54009C14.3879 11.2914 12.0465 11.4944 11.2914 11.6879L10.5744 9.01344C11.3327 8.82626 13.5313 7.9189 14.1055 9.54009Z" fill="white"/>
</svg>
