<svg width="25" height="25" viewBox="0 0 25 25" fill="none" xmlns="http://www.w3.org/2000/svg">
<path d="M12.5 25C5.625 25 0 19.375 0 12.5C0 5.625 5.625 0 12.5 0C19.375 0 25 5.625 25 12.5C25 19.375 19.375 25 12.5 25Z" fill="#002868"/>
<path d="M18.8 20H6.2C5.54 20 5 19.46 5 18.8V6.2C5 5.54 5.54 5 6.2 5H18.8C19.46 5 20 5.54 20 6.2V18.8C20 19.46 19.46 20 18.8 20Z" fill="white"/>
<path d="M7.92805 18.49C7.88855 18.49 7.85655 18.454 7.85655 18.4145V16.399C7.85655 16.3595 7.82455 16.3235 7.78505 16.3235H7.07355C7.03355 16.3235 6.99805 16.2915 6.99805 16.252V15.8625C6.99805 15.823 7.03405 15.787 7.07355 15.787H9.26355C9.30305 15.787 9.33905 15.8225 9.33905 15.8625V16.252C9.33905 16.2915 9.30305 16.3235 9.26355 16.3235H8.55605C8.51655 16.3235 8.48055 16.359 8.48055 16.399V18.4145C8.48055 18.454 8.44855 18.49 8.40905 18.49H7.92805Z" fill="#002868"/>
<path d="M11.5245 15.8625C11.5245 15.823 11.5565 15.787 11.596 15.787H12.073C12.1125 15.787 12.1485 15.8225 12.1485 15.8625V17.238C12.1485 18.053 11.6875 18.526 10.956 18.526C10.2285 18.526 9.77148 18.053 9.77148 17.238V15.8625C9.77148 15.823 9.80348 15.787 9.84298 15.787H10.32C10.3595 15.787 10.3955 15.8225 10.3955 15.8625V17.2575C10.3955 17.659 10.602 17.945 10.96 17.945C11.318 17.945 11.5245 17.659 11.5245 17.2575V15.8625Z" fill="#002868"/>
<path d="M14.3402 16.6692C14.2767 16.6692 14.2567 16.6452 14.2327 16.5977C14.1492 16.4027 13.9662 16.2797 13.6882 16.2797C13.4377 16.2797 13.2272 16.3672 13.2272 16.5342C13.2272 16.7172 13.4222 16.7927 13.8512 16.8442C14.5032 16.9197 14.8767 17.1187 14.8767 17.6352C14.8767 18.2157 14.3677 18.5217 13.7162 18.5217C13.1517 18.5217 12.6667 18.2472 12.5912 17.6712C12.5832 17.6157 12.6112 17.5957 12.6667 17.5957H13.1042C13.1597 17.5957 13.1917 17.6197 13.2077 17.6632C13.2672 17.8542 13.4702 18.0012 13.7642 18.0012C14.0227 18.0012 14.2492 17.9057 14.2492 17.7032C14.2492 17.4607 14.0107 17.4172 13.5337 17.3572C12.9852 17.2857 12.6037 17.1267 12.6037 16.6217C12.6037 16.1167 13.0372 15.7552 13.7167 15.7552C14.3287 15.7552 14.7542 16.0852 14.8417 16.5782C14.8537 16.6337 14.8377 16.6697 14.7782 16.6697H14.3402V16.6692Z" fill="#002868"/>
<path fill-rule="evenodd" clip-rule="evenodd" d="M15.3438 18.4145C15.3438 18.454 15.3758 18.49 15.4153 18.49H16.4963C17.3073 18.49 17.9233 17.9415 17.9233 17.1465C17.9233 16.3395 17.2993 15.787 16.4963 15.787H15.4153C15.3758 15.787 15.3438 15.823 15.3438 15.8625V18.4145ZM17.2682 17.1384C17.2682 17.6114 16.9307 17.9534 16.4972 17.9534V17.9529H16.0442C16.0047 17.9529 15.9727 17.9209 15.9727 17.8814V16.3989C15.9727 16.3589 16.0047 16.3234 16.0442 16.3234H16.4932C16.9302 16.3234 17.2682 16.6654 17.2682 17.1384Z" fill="#002868"/>
<path d="M19.5992 14.3H5.39922C5.28922 14.3 5.19922 14.21 5.19922 14.1V6.19995C5.19922 5.64995 5.64922 5.19995 6.19922 5.19995H18.7992C19.3492 5.19995 19.7992 5.64995 19.7992 6.19995V14.1C19.7992 14.21 19.7092 14.3 19.5992 14.3Z" fill="#002868"/>
<path d="M13.2371 12.6783H11.9371C11.8546 12.6783 11.7871 12.6108 11.7871 12.5283V7.0283C11.7871 6.9458 11.8546 6.8783 11.9371 6.8783H13.2371C13.3196 6.8783 13.3871 6.9458 13.3871 7.0283V12.5283C13.3871 12.6108 13.3196 12.6783 13.2371 12.6783Z" fill="white"/>
<path d="M15.4484 8.47817H9.54844C9.46594 8.47817 9.39844 8.41067 9.39844 8.32817V7.02817C9.39844 6.94567 9.46594 6.87817 9.54844 6.87817H15.4484C15.5309 6.87817 15.5984 6.94567 15.5984 7.02817V8.32817C15.5984 8.41067 15.5309 8.47817 15.4484 8.47817Z" fill="white"/>
</svg>
