<svg width="40" height="40" viewBox="0 0 40 40" fill="none" xmlns="http://www.w3.org/2000/svg">
<circle cx="20" cy="20" r="20" fill="#05CEAE"/>
<path d="M25.5351 16.625C25.7918 16.625 26 16.4168 26 16.1601V16.0625C26 13.2709 23.645 11 20.75 11C17.855 11 15.5 13.2709 15.5 16.0625V20H12.4649C12.2082 20 12 20.2082 12 20.4649V21.7851C12 22.0419 12.2082 22.25 12.4649 22.25H15.3624C15.089 24.0317 14.4112 25.7344 13.3626 27.251C13.1239 27.5959 13.1017 28.0398 13.3046 28.4056C13.5079 28.7715 13.9033 29 14.3333 29H24.3684C24.6252 29 24.8333 28.7918 24.8333 28.5351V27.2149C24.8333 26.9581 24.6252 26.75 24.3684 26.75H16.3408C17.0509 25.3321 17.5063 23.814 17.7084 22.25H20.8684C21.1251 22.25 21.3333 22.0419 21.3333 21.7851V20.4649C21.3333 20.2082 21.1251 20 20.8684 20H17.8333V16.0625C17.8333 14.5118 19.1418 13.25 20.75 13.25C22.3582 13.25 23.6667 14.5118 23.6667 16.0625V16.1601C23.6667 16.4168 23.8748 16.625 24.1316 16.625H25.5351Z" fill="white" stroke="white" stroke-width="0.929864"/>
</svg>
