<svg width="21" height="21" viewBox="0 0 21 21" fill="none" xmlns="http://www.w3.org/2000/svg">
<path id="Search_icon" fill-rule="evenodd" clip-rule="evenodd" d="M9.76688 0.0280151C4.38842 0.0280151 0.0283203 4.38812 0.0283203 9.76657C0.0283203 15.145 4.38842 19.5051 9.76688 19.5051C12.0672 19.5051 14.1813 18.7076 15.8476 17.3739L19.013 20.531L19.0972 20.6035C19.3911 20.821 19.8077 20.7962 20.0736 20.5296C20.3662 20.2363 20.3655 19.7615 20.0723 19.469L16.9441 16.349C18.5346 14.6156 19.5054 12.3045 19.5054 9.76657C19.5054 4.38812 15.1453 0.0280151 9.76688 0.0280151ZM9.76688 1.52802C14.3169 1.52802 18.0054 5.21654 18.0054 9.76657C18.0054 14.3166 14.3169 18.0051 9.76688 18.0051C5.21685 18.0051 1.52832 14.3166 1.52832 9.76657C1.52832 5.21654 5.21685 1.52802 9.76688 1.52802Z" fill="#319BE2"/>
</svg>
