<svg width="100%" height="100%" viewBox="0 0 22 22" fill="none" xmlns="http://www.w3.org/2000/svg">
<path opacity="0.5" fill-rule="evenodd" clip-rule="evenodd" d="M0.75 11.0002C0.75 5.33996 5.33972 0.750244 11 0.750244C16.661 0.750244 21.25 5.33963 21.25 11.0002C21.25 16.6609 16.661 21.2502 11 21.2502C5.33972 21.2502 0.75 16.6605 0.75 11.0002ZM19.25 11.0002C19.25 6.44417 15.5564 2.75024 11 2.75024C6.44428 2.75024 2.75 6.44453 2.75 11.0002C2.75 15.556 6.44428 19.2502 11 19.2502C15.5564 19.2502 19.25 15.5563 19.25 11.0002ZM10.9951 6.20434C11.5079 6.20434 11.9306 6.59038 11.9884 7.08772L11.9951 7.20434V11.6233C11.9951 12.1756 11.5474 12.6233 10.9951 12.6233C10.4823 12.6233 10.0596 12.2373 10.0018 11.74L9.9951 11.6233V7.20434C9.9951 6.65206 10.4428 6.20434 10.9951 6.20434ZM11.9884 15.5067C11.9306 15.0094 11.5079 14.6233 10.9951 14.6233C10.4428 14.6233 9.9951 15.0711 9.9951 15.6233L10.0018 15.74C10.0596 16.2373 10.4823 16.6233 10.9951 16.6233C11.5474 16.6233 11.9951 16.1756 11.9951 15.6233L11.9884 15.5067Z" fill="white"/>
</svg>
