<svg width="10" height="13" viewBox="0 0 10 13" fill="none" xmlns="http://www.w3.org/2000/svg">
<path fill-rule="evenodd" clip-rule="evenodd" d="M8.125 4.55H8.59375C9.36875 4.55 10 5.20585 10 6.0125V11.5375C10 12.3442 9.36875 13 8.59375 13H1.40625C0.63125 13 0 12.3442 0 11.5375V6.0125C0 5.20585 0.63125 4.55 1.40625 4.55H1.875V3.25C1.875 1.45795 3.27688 0 5 0C6.72312 0 8.125 1.45795 8.125 3.25V4.55ZM5 1.3C3.96625 1.3 3.125 2.1749 3.125 3.25V4.55H6.875V3.25C6.875 2.1749 6.03375 1.3 5 1.3Z" fill="#888A8C"/>
</svg>
