<svg width="132" height="25" viewBox="0 0 132 25" fill="none" xmlns="http://www.w3.org/2000/svg">
<g clip-path="url(#clip0)">
<path d="M46.577 22.1666H35.027V6.76662H46.335V9.60463H38.195V12.5746H44.751V15.3686H38.195V19.3286H46.577V22.1666ZM48.1533 11.1886H51.6293L53.8293 14.2686L56.0513 11.1886H59.4833L55.6333 16.4246L59.8133 22.1666H56.3373L53.7853 18.6466L51.2113 22.1666H47.7793L51.9813 16.4466L48.1533 11.1886ZM66.3624 22.4526C64.7344 22.4526 63.3337 21.9246 62.1604 20.8686C60.9871 19.7833 60.4004 18.3753 60.4004 16.6446C60.4004 14.914 60.9871 13.528 62.1604 12.4866C63.3484 11.4306 64.7637 10.9026 66.4064 10.9026C67.6091 10.9026 68.6944 11.1446 69.6624 11.6286V14.2686C68.7091 13.8286 67.7777 13.6086 66.8684 13.6086C65.9004 13.6086 65.0864 13.8946 64.4264 14.4666C63.7811 15.024 63.4584 15.7573 63.4584 16.6666C63.4584 17.576 63.7884 18.3166 64.4484 18.8886C65.1084 19.4606 65.9151 19.7466 66.8684 19.7466C67.9977 19.7466 68.9877 19.4973 69.8384 18.9986V21.6386C68.8117 22.1813 67.6531 22.4526 66.3624 22.4526ZM74.5873 16.6666C74.5873 17.5466 74.8733 18.28 75.4453 18.8666C76.0173 19.4533 76.7433 19.7466 77.6233 19.7466C78.5033 19.7466 79.2293 19.4533 79.8013 18.8666C80.3733 18.2653 80.6593 17.532 80.6593 16.6666C80.6593 15.7866 80.3733 15.0606 79.8013 14.4886C79.2293 13.902 78.5033 13.6086 77.6233 13.6086C76.7433 13.6086 76.0173 13.902 75.4453 14.4886C74.8733 15.0606 74.5873 15.7866 74.5873 16.6666ZM71.5293 16.6666C71.5293 15.0386 72.1013 13.6746 73.2453 12.5746C74.3746 11.46 75.834 10.9026 77.6233 10.9026C79.4126 10.9026 80.872 11.46 82.0013 12.5746C83.1453 13.6893 83.7173 15.0533 83.7173 16.6666C83.7173 18.3093 83.1453 19.688 82.0013 20.8026C80.8573 21.9026 79.398 22.4526 77.6233 22.4526C75.8486 22.4526 74.3893 21.9026 73.2453 20.8026C72.1013 19.688 71.5293 18.3093 71.5293 16.6666ZM89.2613 22.1666H86.1593V11.1886H89.2613V22.1666ZM85.8513 8.28463C85.8513 7.75662 86.0273 7.31662 86.3793 6.96463C86.746 6.59796 87.186 6.41463 87.6993 6.41463C88.2126 6.41463 88.6453 6.59796 88.9973 6.96463C89.364 7.31662 89.5473 7.75662 89.5473 8.28463C89.5473 8.79796 89.364 9.23796 88.9973 9.60463C88.6453 9.95662 88.2126 10.1326 87.6993 10.1326C87.186 10.1326 86.746 9.95662 86.3793 9.60463C86.0273 9.23796 85.8513 8.79796 85.8513 8.28463ZM95.5526 15.1706V22.1666H92.4506V11.1886H95.5526V12.5086C96.5353 11.438 97.76 10.9026 99.2266 10.9026C100.488 10.9026 101.471 11.306 102.175 12.1126C102.879 12.9046 103.231 14.012 103.231 15.4346V22.1666H100.129V16.0726C100.129 15.2806 99.9306 14.694 99.5346 14.3126C99.1533 13.9313 98.6546 13.7406 98.0386 13.7406C97.5693 13.7406 97.1 13.88 96.6306 14.1586C96.176 14.4226 95.8166 14.76 95.5526 15.1706ZM111.418 22.4526C109.702 22.4526 108.258 21.9246 107.084 20.8686C105.911 19.8126 105.324 18.412 105.324 16.6666C105.324 15.0386 105.852 13.6746 106.908 12.5746C107.964 11.46 109.343 10.9026 111.044 10.9026C112.628 10.9026 113.897 11.4673 114.85 12.5966C115.804 13.726 116.28 15.0973 116.28 16.7106V17.5246H108.404C108.566 18.258 108.969 18.8226 109.614 19.2186C110.274 19.6146 111.096 19.8126 112.078 19.8126C113.296 19.8126 114.469 19.49 115.598 18.8446V21.3306C114.616 22.0786 113.222 22.4526 111.418 22.4526ZM108.404 15.5446H113.222C113.193 14.914 112.966 14.3933 112.54 13.9826C112.13 13.5573 111.587 13.3446 110.912 13.3446C110.223 13.3446 109.651 13.55 109.196 13.9606C108.742 14.3566 108.478 14.8846 108.404 15.5446ZM117.634 11.1886H121.11L123.31 14.2686L125.532 11.1886H128.964L125.114 16.4246L129.294 22.1666H125.818L123.266 18.6466L120.692 22.1666H117.26L121.462 16.4466L117.634 11.1886Z" fill="white"/>
<path fill-rule="evenodd" clip-rule="evenodd" d="M24.9997 15.531C23.5954 16.2546 21.9978 16.6638 20.3032 16.6638C14.6982 16.6638 10.1545 12.1873 10.1545 6.66522C10.1545 4.10469 11.1315 1.76896 12.7382 9.69794e-05C12.7213 3.23463e-05 12.7045 0 12.6876 0C5.68045 0 0 5.59644 0 12.5C0 19.4036 5.68045 25 12.6876 25C18.6339 25 23.6247 20.97 24.9997 15.531Z" fill="white"/>
<circle cx="19.9997" cy="6.66667" r="4.16667" fill="white"/>
</g>
<defs>
<clipPath id="clip0">
<rect width="132" height="25" fill="white"/>
</clipPath>
</defs>
</svg>
