<svg width="35" height="35" viewBox="0 0 35 35" fill="none" xmlns="http://www.w3.org/2000/svg">
<circle cx="17.5" cy="17.5" r="17.5" fill="#008DE4"/>
<g clip-path="url(#clip0_2766_10589)">
<path d="M20.4287 8.3125H12.4792L11.8199 11.9959L18.9953 12.0044C22.5299 12.0044 23.572 13.2889 23.5422 15.4156C23.5252 16.5045 23.053 18.3504 22.8489 18.9501C22.3045 20.5451 21.1858 22.3613 16.992 22.3571L10.0165 22.3528L9.35938 26.0405H17.2919C20.0906 26.0405 21.2773 25.713 22.5405 25.1345C25.335 23.8372 26.998 21.0811 27.6658 17.4827C28.6547 12.1235 27.4212 8.3125 20.4287 8.3125Z" fill="white"/>
<path d="M9.04705 15.3262C6.96291 15.3262 6.66518 16.683 6.46952 17.5039C6.21007 18.5757 6.125 19.0138 6.125 19.0138H14.2659C16.3501 19.0138 16.6478 17.657 16.8435 16.8361C17.1029 15.7643 17.188 15.3262 17.188 15.3262L9.04705 15.3262Z" fill="white"/>
</g>
<defs>
<clipPath id="clip0_2766_10589">
<rect width="21.875" height="21.875" fill="white" transform="translate(6.125 6.125)"/>
</clipPath>
</defs>
</svg>
