<svg width="35" height="35" viewBox="0 0 35 35" fill="none" xmlns="http://www.w3.org/2000/svg">
<path d="M35 17.4999C35 27.1649 27.1651 35 17.5001 35C7.83502 35 0 27.1649 0 17.4999C0 7.83497 7.83502 0 17.5001 0C27.165 0 35 7.83497 35 17.4999Z" fill="#1E316F"/>
<path d="M31.286 17.5C31.286 25.1125 25.1145 31.2845 17.5016 31.2845C9.88873 31.2845 3.7168 25.1125 3.7168 17.5C3.7168 9.88691 9.88873 3.71533 17.5016 3.71533C25.1146 3.71533 31.286 9.88681 31.286 17.5Z" fill="#1E316F"/>
<path d="M16.477 22.1753L17.6137 17.8952L20.3048 16.912L20.9742 14.3966L20.9513 14.3342L18.3023 15.302L20.2109 8.11523H14.798L12.3019 17.4941L10.2179 18.2554L9.5293 20.8486L11.6117 20.0879L10.1406 25.6153H24.5466L25.4702 22.1753H16.477Z" fill="white"/>
</svg>
