<svg width="35" height="36" viewBox="0 0 35 36" fill="none" xmlns="http://www.w3.org/2000/svg">
<path d="M34.4762 21.736C32.1386 31.1121 22.6422 36.8182 13.265 34.4801C3.89168 32.1425 -1.81447 22.6455 0.524214 13.27C2.86071 3.89285 12.3571 -1.81385 21.7316 0.523741C31.1082 2.86133 36.8138 12.3594 34.4762 21.736Z" fill="#F7931A"/>
<path fill-rule="evenodd" clip-rule="evenodd" d="M25.2196 15.0082C25.568 12.6794 23.7948 11.4275 21.3703 10.5923L22.1568 7.43758L20.2365 6.95902L19.4708 10.0306C18.966 9.9048 18.4475 9.78612 17.9323 9.66852L18.7034 6.57671L16.7842 6.09814L15.9972 9.25176C15.5793 9.15659 15.1691 9.06252 14.771 8.96353L14.7732 8.95368L12.1249 8.29244L11.6141 10.3434C11.6141 10.3434 13.0388 10.67 13.0088 10.6902C13.7865 10.8844 13.9271 11.399 13.9035 11.807L13.0077 15.4009C13.0613 15.4146 13.1307 15.4343 13.2073 15.4649L13.1421 15.4486C13.0976 15.4375 13.0515 15.4259 13.0044 15.4146L11.7486 20.4491C11.6535 20.6854 11.4123 21.0398 10.8686 20.9053C10.8878 20.9332 9.47284 20.5569 9.47284 20.5569L8.51953 22.755L11.0185 23.378C11.2976 23.4479 11.5733 23.5198 11.8462 23.591L11.8466 23.5911C12.0281 23.6384 12.2084 23.6854 12.3874 23.7313L11.5927 26.9221L13.5108 27.4006L14.2979 24.2437C14.8218 24.386 15.3305 24.5172 15.8282 24.6408L15.0439 27.783L16.9642 28.2615L17.7589 25.0767C21.0334 25.6964 23.4957 25.4465 24.5321 22.4848C25.3673 20.1002 24.4905 18.7246 22.7677 17.8277C24.0224 17.5383 24.9675 16.713 25.2196 15.0082ZM20.8301 21.1606C20.2856 23.3484 16.8612 22.4439 15.2943 22.0301C15.1533 21.9928 15.0274 21.9596 14.9199 21.9329L15.9744 17.7056C16.1052 17.7383 16.2651 17.7742 16.4462 17.8148C18.0668 18.1784 21.388 18.9237 20.8301 21.1606ZM16.7759 15.8532C18.0823 16.2018 20.9318 16.9623 21.4282 14.9738C21.9351 12.9399 19.1655 12.3268 17.813 12.0274C17.6608 11.9937 17.5266 11.964 17.417 11.9367L16.4609 15.7707C16.5512 15.7932 16.6572 15.8215 16.7759 15.8532Z" fill="white"/>
</svg>
