<svg width="35" height="22" viewBox="0 0 35 22" fill="none" xmlns="http://www.w3.org/2000/svg">
<g id="bitcoin_cash_sign">
<path id="Path" d="M24.8252 21.4038C28.1925 19.0413 30.393 15.1301 30.393 10.7037C30.393 6.27735 28.1926 2.36255 24.8252 0H34.6463V21.4038H24.8252Z" fill="#F7941D"/>
<path id="Path_2" d="M4.26411 10.7001C4.26411 15.1263 6.46459 19.0375 9.83193 21.4002H0V0H9.83215C6.46459 2.36255 4.26411 6.27371 4.26411 10.7001Z" fill="#F7941D"/>
<circle id="Oval" cx="17.3237" cy="10.6949" r="10.6929" fill="#F7941D"/>
<path id="Shape" fill-rule="evenodd" clip-rule="evenodd" d="M22.3386 11.1393L22.3327 11.1282L22.3317 11.1264C22.3301 11.1214 22.3287 11.1163 22.3272 11.1112L22.3272 11.1112C22.3254 11.1048 22.3236 11.0982 22.3213 11.0916L22.3208 11.0906L22.3203 11.0897L22.3198 11.0888L22.3193 11.0878L22.3188 11.0869L22.3183 11.086L22.3172 11.0841C22.1917 10.6644 21.9429 10.292 21.603 10.0155L21.6025 10.0146L21.5881 10.0034L21.5719 9.99072L21.558 9.98039L21.5479 9.97275L21.5436 9.96915L21.534 9.96242L21.5297 9.95882L21.5201 9.95208L21.5158 9.94848L21.5057 9.94084L21.5005 9.93771L21.4904 9.93008L21.4852 9.92694L21.4744 9.91974L21.4691 9.91661L21.4627 9.90695L21.457 9.90292L21.4462 9.89572L21.4405 9.89168L21.4295 9.88448L21.4238 9.88045L21.413 9.87324L21.4072 9.86921L21.3957 9.86114L21.39 9.85711L21.3776 9.84951L21.3719 9.84548L21.3595 9.83788L21.3538 9.83385L21.3414 9.82625L21.3357 9.82221L21.3233 9.81461L21.3166 9.81101L21.3042 9.80341L21.2976 9.79981L21.2842 9.79261L21.2776 9.78901L21.2638 9.78101L21.2571 9.77741L21.2433 9.76942L21.2366 9.76581L21.2228 9.75782L21.2156 9.75335L21.2017 9.74536L21.1945 9.74089L21.1798 9.73337L21.1726 9.7289L21.1579 9.72137L21.1479 9.71604L21.1474 9.71511C21.1438 9.71289 21.1402 9.71101 21.1365 9.70914C21.1328 9.70725 21.1291 9.70536 21.1255 9.70311C20.8198 9.54598 20.4897 9.44167 20.1491 9.39461C20.2446 9.29198 20.3321 9.18215 20.4107 9.06609L20.4233 9.04747L20.4242 9.04697L20.43 9.03789L20.4376 9.0255L20.4416 9.01978L20.4492 9.00739L20.4533 9.00166L20.4608 8.98927L20.4649 8.98354L20.4725 8.97116L20.4765 8.96543L20.4841 8.95304L20.4881 8.94731L20.4948 8.93539L20.4988 8.92967L20.5055 8.91775L20.5086 8.91249L20.5153 8.90057L20.5184 8.89531L20.5251 8.88339L20.5282 8.87813L20.534 8.86671L20.5371 8.86146L20.5428 8.85004L20.546 8.84478L20.5517 8.83336L20.5548 8.82811L20.561 8.81763L20.5641 8.81237L20.5704 8.80189L20.5735 8.79663L20.5788 8.78665L20.582 8.7814L20.5873 8.77142L20.5895 8.76667L20.5948 8.75669L20.597 8.75194L20.6024 8.74196L20.6045 8.73721L20.6099 8.72723L20.6121 8.72248L20.6165 8.71297L20.6187 8.70821L20.6231 8.69871L20.6253 8.69395L20.6296 8.68445L20.6318 8.67969L20.6367 8.66889L20.6433 8.65448C20.6457 8.64893 20.648 8.64345 20.6502 8.63796L20.6502 8.63792C20.6523 8.63274 20.6545 8.62754 20.6568 8.62225L20.6577 8.62174C20.8043 8.2606 20.8386 7.8637 20.7563 7.48275L20.7558 7.48182L20.7548 7.47998L20.7543 7.47904L20.7538 7.47811L20.7533 7.47717L20.7528 7.47623L20.7523 7.4753L20.7518 7.47436C20.7496 7.46356 20.7474 7.45297 20.7443 7.44274V7.4404L20.7438 7.43946L20.7433 7.43853L20.7428 7.43759L20.7388 7.43024C20.7356 7.41537 20.7323 7.4005 20.7276 7.38519C20.7249 7.37262 20.7211 7.35975 20.7175 7.34737L20.7175 7.34734L20.7155 7.3406L20.7101 7.33048L20.7091 7.32865L20.6997 7.29803L20.6992 7.2971L20.6987 7.29616L20.6982 7.29523L20.6977 7.29429L20.6972 7.29335L20.6967 7.29242L20.6962 7.29148C20.5847 6.91793 20.3633 6.58662 20.0609 6.3407L20.0604 6.33976C20.0561 6.33617 20.0515 6.33267 20.047 6.32918L20.047 6.32918L20.047 6.32917C20.0424 6.32568 20.0379 6.32219 20.0335 6.31859L20.0216 6.30958L20.012 6.30285L20.0077 6.29925L19.9995 6.29294L19.9952 6.28934L19.9871 6.28304L19.9828 6.27944L19.9737 6.27364L19.9694 6.27004L19.9598 6.2633L19.9555 6.2597L19.9459 6.25297L19.9416 6.24937L19.932 6.24263L19.9267 6.2395L19.9171 6.23276L19.9119 6.22963L19.9023 6.2229L19.897 6.21976L19.8866 6.21353L19.8813 6.2104L19.8708 6.20417L19.8656 6.20104L19.8551 6.19481L19.8498 6.19167L19.8393 6.18544L19.8341 6.18231L19.8231 6.17511L19.8178 6.17197L19.8069 6.16477L19.8016 6.16164L19.7897 6.15497L19.7844 6.15184L19.7725 6.14518L19.7668 6.14114L19.7549 6.13448L19.7492 6.13045L19.7373 6.12379L19.7316 6.11975L19.7192 6.11215L19.7125 6.10855L19.7001 6.10095L19.6935 6.09735L19.6801 6.09015L19.6735 6.08655L19.6601 6.07934L19.6506 6.07495L19.6501 6.07401L19.6301 6.06321C19.0462 5.75972 18.3043 5.66835 17.5579 5.85984L17.3638 5.90968L16.8727 3.99731L15.7346 4.28903L16.2241 6.19383L15.3135 6.42858L14.8237 4.52986L13.6856 4.82158L14.1751 6.72638L11.8281 7.3303L12.1404 8.54399L13.0861 8.30111C13.2366 8.26231 13.3963 8.28497 13.5301 8.3641C13.6639 8.44322 13.7607 8.5723 13.7992 8.72287L15.1118 13.8303C15.1653 14.0392 15.0396 14.252 14.8309 14.3059L14.0022 14.5191L14.0509 15.9626L16.3951 15.3601L16.8909 17.2615L18.0284 16.9688L17.5386 15.0631L18.4489 14.8297L18.9389 16.7354L20.0764 16.4427L19.5848 14.5295C19.7514 14.4859 19.8979 14.448 20.0087 14.4194L20.058 14.4066C20.8992 14.1903 21.5794 13.6971 21.991 13.0822L22.0049 13.0617L22.0058 13.0612L22.0126 13.0516L22.0215 13.0372L22.026 13.03L22.0349 13.0156L22.0394 13.0084L22.0474 12.9945L22.0518 12.9873L22.0598 12.9735L22.0634 12.9668L22.0714 12.953L22.075 12.9464L22.083 12.9325L22.0866 12.9259L22.0938 12.9125L22.0974 12.9059L22.1046 12.8925L22.1082 12.8859L22.1158 12.8735L22.1194 12.8668L22.127 12.8544L22.1306 12.8478L22.1373 12.8359L22.1409 12.8292L22.1475 12.8173L22.1511 12.8107L22.1578 12.7988L22.1604 12.7926L22.1671 12.7807L22.1697 12.7746L22.1755 12.7631L22.1786 12.7579L22.1843 12.7465L22.1875 12.7412L22.1932 12.7298L22.1963 12.7245L22.202 12.7131L22.2052 12.7079L22.2109 12.6965L22.214 12.6912L22.2198 12.6798L22.2229 12.6745L22.2277 12.6637L22.2309 12.6585L22.2357 12.6477L22.2379 12.6429L22.2431 12.6306L22.2503 12.6149L22.256 12.602C22.2594 12.5944 22.2627 12.5869 22.2656 12.5793L22.2661 12.5779C22.4307 12.1717 22.4694 11.7253 22.3772 11.2968L22.3767 11.2958L22.3762 11.2949L22.3757 11.2939L22.3752 11.293L22.3747 11.2921L22.3742 11.2911L22.3737 11.2902L22.3732 11.2893L22.3651 11.2544V11.2521L22.3646 11.2511L22.3641 11.2502L22.3636 11.2492L22.3631 11.2483L22.3626 11.2474L22.3621 11.2464L22.3616 11.2455L22.3611 11.2446L22.3606 11.2436L22.3601 11.2427L22.3596 11.2418L22.3591 11.2408L22.3586 11.2399L22.3566 11.2363L22.3525 11.2194C22.3499 11.2082 22.3473 11.1969 22.3438 11.1861C22.3421 11.1764 22.3397 11.1587 22.3386 11.1393ZM16.0872 7.6123L16.0875 7.61224L16.0876 7.61221C16.3895 7.53593 16.7521 7.44431 16.9138 7.40226C17.3346 7.29454 17.7493 7.33635 18.0731 7.4923L18.0839 7.49712L18.0887 7.49932L18.0953 7.50292L18.0986 7.50469L18.1053 7.50829L18.1086 7.51005L18.1153 7.51365L18.1186 7.51542L18.1252 7.51902L18.1286 7.52078L18.1352 7.52439L18.1385 7.52615L18.1452 7.52975L18.1485 7.53152L18.1552 7.53512L18.1585 7.53688L18.1651 7.54048L18.1685 7.54225L18.1751 7.54585L18.1784 7.54761L18.1842 7.55165L18.1875 7.55341L18.1932 7.55745L18.1965 7.55921L18.2022 7.56324L18.2056 7.56501L18.2108 7.56814L18.2141 7.56991L18.2194 7.57304L18.2227 7.57481L18.228 7.57794L18.2313 7.5797L18.2365 7.58284L18.2398 7.5846L18.2451 7.58773L18.2475 7.59L18.2528 7.59314L18.2547 7.59447L18.2599 7.5976L18.2618 7.59894L18.2671 7.60207L18.269 7.6034L18.2743 7.60653L18.2762 7.60787L18.2805 7.61147L18.2824 7.6128L18.2877 7.61593L18.2949 7.6204C18.2975 7.62197 18.3 7.62388 18.3025 7.6258C18.305 7.62772 18.3075 7.62964 18.3102 7.6312C18.4759 7.75632 18.5977 7.93078 18.658 8.1295L18.6595 8.13227L18.6646 8.14851L18.6651 8.14945L18.6681 8.15496C18.6692 8.15914 18.6704 8.16296 18.6715 8.16679C18.6727 8.17062 18.6739 8.17445 18.6749 8.17862C18.6773 8.18715 18.6788 8.19588 18.6795 8.2047L18.6825 8.21021L18.683 8.21114C18.6838 8.21685 18.6852 8.22246 18.6872 8.22785L18.6887 8.23063C18.7313 8.43373 18.7086 8.64508 18.6239 8.83452L18.6164 8.85159L18.6124 8.85966L18.6093 8.86491L18.6084 8.86776L18.6063 8.87251L18.6054 8.87536L18.6023 8.88062L18.6014 8.88346L18.5983 8.88872L18.5974 8.89156L18.5943 8.89682L18.5934 8.89967L18.5903 8.90493L18.5894 8.90777L18.5863 8.91303L18.5854 8.91587L18.5823 8.92113L18.5805 8.92445L18.5774 8.9297L18.5756 8.93302L18.5725 8.93827L18.5707 8.94159L18.5676 8.94685L18.5658 8.95016L18.5618 8.95589L18.56 8.9592L18.556 8.96493L18.5542 8.96824L18.5502 8.97397L18.5484 8.97728L18.5444 8.983L18.5426 8.98632L18.5386 8.99204L18.5368 8.99536L18.5328 9.00108L18.531 9.0044L18.527 9.01012L18.5252 9.01344L18.5212 9.01916L18.5194 9.02248L18.5145 9.02871L18.5127 9.03202L18.5077 9.03825L18.506 9.04156L18.501 9.04779L18.4992 9.05111L18.4942 9.05734L18.4906 9.06166L18.4839 9.07124C18.2746 9.36447 17.9317 9.60137 17.5108 9.70909C17.3616 9.74731 17.0428 9.83051 16.7579 9.90484L16.7575 9.90495C16.5363 9.96268 16.3356 10.015 16.2508 10.0368L15.6522 7.72254C15.7277 7.70316 15.8951 7.66084 16.0872 7.6123ZM20.1034 11.6436L20.1004 11.6381L20.1002 11.6389C20.1016 11.6262 20.1009 11.6159 20.0962 11.6139C20.0936 11.6046 20.0915 11.5962 20.0894 11.5879L20.0864 11.5823L20.0859 11.5814L20.0802 11.5643L20.0782 11.5607C20.0095 11.3429 19.8692 11.1546 19.6802 11.0264C19.6773 11.0243 19.6741 11.0224 19.6709 11.0204C19.6679 11.0186 19.6649 11.0167 19.6622 11.0148L19.6545 11.0094L19.6488 11.0054L19.6455 11.0036L19.6402 11.0005L19.6369 10.9987L19.6312 10.9947L19.6279 10.9929L19.6221 10.9889L19.6188 10.9871L19.6131 10.9831L19.6098 10.9813L19.6041 10.9773L19.6008 10.9755L19.595 10.9715L19.5917 10.9697L19.5851 10.9661L19.5817 10.9643L19.5751 10.9607L19.5718 10.959L19.5651 10.9554L19.5618 10.9536L19.5551 10.95L19.5518 10.9482L19.5451 10.9446L19.5418 10.9429L19.5352 10.9393L19.5319 10.9375L19.5252 10.9339L19.5219 10.9321L19.5152 10.9285L19.5119 10.9268L19.5052 10.9232L19.5019 10.9214L19.4939 10.9174L19.4906 10.9157L19.4825 10.9117L19.4792 10.91L19.4711 10.906L19.4678 10.9042L19.4597 10.9003L19.4555 10.899L19.4474 10.895L19.4432 10.8938L19.4351 10.8898L19.4308 10.8886L19.4218 10.885L19.4157 10.8823L19.4034 10.8771C19.0255 10.7157 18.5367 10.6795 18.0387 10.8073C17.8792 10.8485 17.555 10.9304 17.2444 11.0089C16.944 11.0849 16.6563 11.1576 16.543 11.1871L17.1889 13.7003C17.3187 13.6672 17.6757 13.5742 18.019 13.4847C18.2862 13.4151 18.5451 13.3477 18.6825 13.3122C19.1804 13.1844 19.5904 12.9174 19.8445 12.5928L19.8531 12.5823L19.8576 12.5775L19.863 12.5698L19.8657 12.566L19.8712 12.5584L19.8739 12.5546L19.8793 12.5469L19.882 12.5431L19.8874 12.5355L19.8901 12.5316L19.8955 12.524L19.8982 12.5202L19.9027 12.513L19.9054 12.5092L19.9098 12.502L19.9116 12.4987L19.9161 12.4915L19.9178 12.4881L19.9223 12.4809L19.9241 12.4776L19.929 12.4714L19.9308 12.4681L19.9358 12.4619L19.9375 12.4585L19.9416 12.4528L19.9433 12.4495L19.9474 12.4438L19.9491 12.4405L19.9532 12.4347L19.9549 12.4314L19.959 12.4257L19.9607 12.4224L19.9648 12.4167L19.9665 12.4133L19.9705 12.4076L19.9723 12.4043L19.9763 12.3986L19.9781 12.3953L19.9821 12.3895L19.9839 12.3862L19.9879 12.3805L19.9897 12.3772L19.9928 12.3719L19.9946 12.3686L19.9977 12.3634L19.9995 12.36L20.0031 12.3534L20.008 12.3448L20.0182 12.3263C20.1223 12.1229 20.1546 11.8903 20.1097 11.6663L20.1092 11.6654L20.1087 11.6645L20.1082 11.6635L20.1077 11.6626C20.1071 11.6595 20.1065 11.6566 20.1058 11.6538C20.1051 11.6509 20.1044 11.6479 20.1039 11.6446L20.1034 11.6436Z" fill="white"/>
</g>
</svg>
