<svg width="30" height="25" viewBox="0 0 30 25" fill="none" xmlns="http://www.w3.org/2000/svg">
<g id="dash_sign">
<path id="Path" d="M19.6144 0H8.71222L7.80808 5.05153L17.6486 5.06319C22.496 5.06319 23.9251 6.82481 23.8843 9.7414C23.861 11.2347 23.2135 13.7663 22.9335 14.5888C22.1869 16.7762 20.6527 19.267 14.9012 19.2611L5.33482 19.2553L4.43359 24.3127H15.3125C19.1507 24.3127 20.7781 23.8635 22.5106 23.0702C26.343 21.2911 28.6238 17.5112 29.5396 12.5763C30.8958 5.22652 29.2042 0 19.6144 0Z" fill="#008DE4"/>
<path id="Path_2" d="M4.00739 9.6189C1.14913 9.6189 0.740813 11.4797 0.472487 12.6055C0.116663 14.0754 0 14.6763 0 14.6763H11.1647C14.0229 14.6763 14.4313 12.8155 14.6996 11.6897C15.0554 10.2197 15.1721 9.6189 15.1721 9.6189L4.00739 9.6189Z" fill="#008DE4"/>
</g>
</svg>
