<svg width="30" height="30" viewBox="0 0 30 30" fill="none" xmlns="http://www.w3.org/2000/svg">
<g id="usd-coin_sign">
<path id="Path" d="M15 30C23.3125 30 30 23.3125 30 15C30 6.68745 23.3125 0 15 0C6.68745 0 0 6.68745 0 15C0 23.3125 6.68745 30 15 30Z" fill="#2775CA"/>
<path id="Path_2" d="M19.125 17.3749C19.125 15.1875 17.8124 14.4375 15.1874 14.125C13.3124 13.875 12.9374 13.375 12.9374 12.4999C12.9374 11.6248 13.5625 11.0625 14.8124 11.0625C15.9374 11.0625 16.5625 11.4375 16.8749 12.375C16.9375 12.5625 17.125 12.6874 17.3125 12.6874H18.3124C18.5624 12.6874 18.7499 12.4999 18.7499 12.25V12.1875C18.4999 10.8124 17.3749 9.75 15.9374 9.62505V8.12505C15.9374 7.875 15.7499 7.6875 15.4375 7.62495H14.5C14.2499 7.62495 14.0625 7.81245 13.9999 8.12505V9.5625C12.1249 9.81255 10.9375 11.0625 10.9375 12.625C10.9375 14.6875 12.1874 15.4999 14.8124 15.8125C16.5625 16.125 17.125 16.5 17.125 17.5C17.125 18.5001 16.2499 19.1875 15.0625 19.1875C13.4374 19.1875 12.8749 18.4999 12.6874 17.5624C12.625 17.3125 12.4375 17.1874 12.25 17.1874H11.1874C10.9375 17.1874 10.75 17.3749 10.75 17.625V17.6875C10.9999 19.2499 11.9999 20.3749 14.0624 20.6875V22.1875C14.0624 22.4374 14.25 22.6249 14.5624 22.6875H15.4999C15.7499 22.6875 15.9374 22.5 16 22.1875V20.6875C17.875 20.3749 19.125 19.0624 19.125 17.3749Z" fill="white"/>
<path id="Shape" fill-rule="evenodd" clip-rule="evenodd" d="M6.25029 11.9375C4.43769 16.7501 6.93774 22.1876 11.8127 23.9375C12.0002 24.0626 12.1877 24.3125 12.1877 24.5V25.3751C12.1877 25.5 12.1877 25.5626 12.1252 25.625C12.0628 25.875 11.8127 26 11.5627 25.875C8.06274 24.75 5.37519 22.0625 4.25019 18.5625C2.37519 12.6251 5.62524 6.31245 11.5627 4.43745C11.6252 4.37505 11.7502 4.37505 11.8127 4.37505C12.0628 4.43745 12.1877 4.62495 12.1877 4.875V5.74995C12.1877 6.06255 12.0628 6.25005 11.8127 6.375C9.25029 7.3125 7.18779 9.31245 6.25029 11.9375ZM17.8753 4.6875C17.9377 4.43745 18.1877 4.3125 18.4378 4.43745C21.8752 5.56245 24.6253 8.25 25.7503 11.8125C27.6253 17.75 24.3752 24.0626 18.4378 25.9376C18.3752 26 18.2503 26 18.1877 26C17.9377 25.9376 17.8127 25.7501 17.8127 25.5V24.6251C17.8127 24.3125 17.9377 24.125 18.1877 24C20.7502 23.0625 22.8127 21.0626 23.7502 18.4376C25.5628 13.625 23.0627 8.18745 18.1877 6.43755C18.0002 6.31245 17.8127 6.06255 17.8127 5.8125V4.93755C17.8127 4.81245 17.8127 4.75005 17.8753 4.6875Z" fill="white"/>
</g>
</svg>
