<svg width="26" height="24" viewBox="0 0 26 24" fill="none" xmlns="http://www.w3.org/2000/svg">
<path opacity="0.5" fill-rule="evenodd" clip-rule="evenodd" d="M21.9063 6.44214C21.8023 4.32575 20.0534 2.64178 17.9112 2.64178H7.91113L7.71149 2.64668C5.5951 2.75071 3.91113 4.49959 3.91113 6.64178V8.00001L3.91786 8.11663C3.97562 8.61397 4.39829 9.00001 4.91113 9.00001C5.46341 9.00001 5.91113 8.55229 5.91113 8.00001V6.64178L5.91661 6.49252C5.99296 5.45766 6.85677 4.64178 7.91113 4.64178H17.9112L18.0605 4.64727C19.0954 4.72362 19.9112 5.58742 19.9112 6.64178V8.00001H17.7574C16.8665 8.00001 16.4203 9.07715 17.0503 9.70711L20.2929 12.9498C20.6834 13.3403 21.3166 13.3403 21.7071 12.9498L24.9498 9.70711C25.5797 9.07715 25.1336 8.00001 24.2427 8.00001H21.9112V6.64178L21.9063 6.44214ZM3.91591 17.8414C4.01994 19.9578 5.76882 21.6418 7.91102 21.6418H17.9111L18.1108 21.6369C20.2272 21.5329 21.9111 19.784 21.9111 17.6418V17L21.9044 16.8834C21.8466 16.386 21.424 16 20.9111 16C20.3588 16 19.9111 16.4477 19.9111 17V17.6418L19.9056 17.791C19.8293 18.8259 18.9655 19.6418 17.9111 19.6418H7.91102L7.76175 19.6363C6.72689 19.5599 5.91102 18.6961 5.91102 17.6418V17H8.24266C9.13356 17 9.57973 15.9229 8.94976 15.2929L5.70712 12.0503C5.3166 11.6597 4.68343 11.6597 4.29291 12.0503L1.05027 15.2929C0.420304 15.9229 0.866471 17 1.75738 17H3.91102V17.6418L3.91591 17.8414Z" fill="white"/>
</svg>
