<svg width="26" height="25" viewBox="0 0 26 25" fill="none" xmlns="http://www.w3.org/2000/svg">
<path opacity="0.5" fill-rule="evenodd" clip-rule="evenodd" d="M20.3284 4.55026C19.6985 3.92029 18.6213 4.36646 18.6213 5.25737L18.6213 7.50001L8.72184 7.50001C8.16956 7.50001 7.72184 7.94772 7.72184 8.50001C7.72184 9.00981 8.10332 9.43051 8.5964 9.49221L8.72184 9.50001L18.6213 9.50001L18.6213 11.7426C18.6213 12.6336 19.6985 13.0797 20.3284 12.4498L23.5711 9.20711C23.9616 8.81659 23.9616 8.18342 23.5711 7.7929L20.3284 4.55026ZM18.2782 16.5C18.2782 15.9477 17.8305 15.5 17.2782 15.5L7.37869 15.5L7.37869 13.2574C7.37869 12.3665 6.30155 11.9203 5.67159 12.5503L2.42895 15.7929C2.03842 16.1834 2.03842 16.8166 2.42895 17.2071L5.67159 20.4498C6.30155 21.0797 7.37869 20.6336 7.37869 19.7426L7.37869 17.5L17.2782 17.5L17.4036 17.4922C17.8967 17.4305 18.2782 17.0098 18.2782 16.5Z" fill="white"/>
</svg>
