<svg width="16" height="10" viewBox="0 0 16 10" fill="none" xmlns="http://www.w3.org/2000/svg">
<path d="M9.96447 8.36396L10.6716 7.65685L10.6716 7.65685L9.96447 8.36396ZM11.3787 8.36396L10.6716 7.65685L11.3787 8.36396ZM9.96447 6.94975L10.6716 7.65685L10.6716 7.65685L9.96447 6.94975ZM11.0858 5.82843V4.82843C11.4902 4.82843 11.8549 5.07207 12.0097 5.44574C12.1644 5.81942 12.0789 6.24954 11.7929 6.53553L11.0858 5.82843ZM11.0858 3.82843L11.7929 3.12132C12.0789 3.40732 12.1644 3.83744 12.0097 4.21111C11.8549 4.58478 11.4902 4.82843 11.0858 4.82843V3.82843ZM9.96447 1.29289L9.25736 0.585786L9.96447 1.29289ZM11.3787 1.29289L12.0858 0.585786V0.585786L11.3787 1.29289ZM14.2071 4.12132L14.9142 3.41421L14.9142 3.41421L14.2071 4.12132ZM14.2071 5.53553L14.9142 6.24264H14.9142L14.2071 5.53553ZM10.6716 7.65685L12.0858 9.07107C11.3047 9.85212 10.0384 9.85212 9.25736 9.07107L10.6716 7.65685ZM10.6716 7.65685V7.65685L9.25736 9.07107C8.47631 8.29002 8.47631 7.02369 9.25736 6.24264L10.6716 7.65685ZM11.7929 6.53553L10.6716 7.65685L9.25736 6.24264L10.3787 5.12132L11.7929 6.53553ZM2 4.82843H11.0858V6.82843H2V4.82843ZM2 4.82843V4.82843V6.82843C0.89543 6.82843 0 5.933 0 4.82843H2ZM2 4.82843H0C0 3.72386 0.89543 2.82843 2 2.82843V4.82843ZM11.0858 4.82843H2V2.82843H11.0858V4.82843ZM10.6716 2L11.7929 3.12132L10.3787 4.53553L9.25736 3.41421L10.6716 2ZM10.6716 2L10.6716 2L9.25736 3.41421C8.47631 2.63317 8.47631 1.36683 9.25736 0.585786L10.6716 2ZM10.6716 2H10.6716L9.25736 0.585786C10.0384 -0.195262 11.3047 -0.195262 12.0858 0.585786L10.6716 2ZM13.5 4.82843L10.6716 2L12.0858 0.585786L14.9142 3.41421L13.5 4.82843ZM13.5 4.82843V4.82843L14.9142 3.41421C15.6953 4.19526 15.6953 5.46159 14.9142 6.24264L13.5 4.82843ZM10.6716 7.65685L13.5 4.82843L14.9142 6.24264L12.0858 9.07107L10.6716 7.65685Z" fill="white"/>
</svg>
