<svg width="23" height="21" viewBox="0 0 23 21" fill="none" xmlns="http://www.w3.org/2000/svg">
<path d="M10.5 15.508C10.5 14.956 10.948 14.5 11.5 14.5C12.052 14.5 12.5 14.9413 12.5 15.4933V15.508C12.5 16.06 12.052 16.508 11.5 16.508C10.948 16.508 10.5 16.06 10.5 15.508Z" fill="#1C98E8"/>
<path d="M4.10061 19H18.9739C20.1519 18.9388 21.0577 17.9423 20.9971 16.7725C20.9838 16.5359 20.9324 16.3023 20.842 16.084L13.3684 3.09435C12.7974 2.06933 11.4982 1.69808 10.4661 2.26618C10.1148 2.45792 9.82522 2.74554 9.63111 3.09435L2.1575 16.084C1.71382 17.1692 2.23966 18.4054 3.33138 18.847C3.55321 18.9357 3.78737 18.9867 4.02564 19" stroke="#289AE5" stroke-width="2.41651" stroke-linecap="round" stroke-linejoin="round"/>
<path d="M11.5 12.635V8" stroke="#289AE5" stroke-width="2" stroke-linecap="round" stroke-linejoin="round"/>
</svg>
