<svg width="26" height="24" viewBox="0 0 26 24" fill="none" xmlns="http://www.w3.org/2000/svg">
<path fill-rule="evenodd" clip-rule="evenodd" d="M21.9063 6.44196C21.8023 4.32557 20.0534 2.6416 17.9112 2.6416H7.9111L7.71146 2.6465C5.59507 2.75052 3.9111 4.49941 3.9111 6.6416V7.99982L3.91782 8.11645C3.97559 8.61378 4.39826 8.99982 4.9111 8.99982C5.46338 8.99982 5.9111 8.55211 5.9111 7.99982V6.6416L5.91658 6.49234C5.99293 5.45748 6.85674 4.6416 7.9111 4.6416H17.9112L18.0605 4.64709C19.0953 4.72344 19.9112 5.58724 19.9112 6.6416V7.99982H17.7573C16.8664 7.99982 16.4203 9.07697 17.0502 9.70693L20.2929 12.9496C20.6834 13.3401 21.3166 13.3401 21.7071 12.9496L24.9497 9.70693C25.5797 9.07697 25.1335 7.99982 24.2426 7.99982H21.9112V6.6416L21.9063 6.44196ZM3.91588 17.8412C4.01991 19.9576 5.76879 21.6416 7.91098 21.6416H17.9111L18.1107 21.6367C20.2271 21.5327 21.9111 19.7838 21.9111 17.6416V16.9998L21.9044 16.8832C21.8466 16.3859 21.4239 15.9998 20.9111 15.9998C20.3588 15.9998 19.9111 16.4475 19.9111 16.9998V17.6416L19.9056 17.7909C19.8293 18.8257 18.9655 19.6416 17.9111 19.6416H7.91098L7.76172 19.6361C6.72686 19.5598 5.91099 18.696 5.91099 17.6416V16.9998H8.24263C9.13353 16.9998 9.5797 15.9227 8.94973 15.2927L5.70709 12.0501C5.31657 11.6596 4.6834 11.6596 4.29288 12.0501L1.05024 15.2927C0.420274 15.9227 0.866441 16.9998 1.75735 16.9998H3.91099V17.6416L3.91588 17.8412Z" fill="white"/>
</svg>
