<svg width="100%" height="100%" viewBox="0 0 140 46" fill="none" xmlns="http://www.w3.org/2000/svg">
<path d="M2 36.7137L4.19708 34.186C7.37895 30.5253 12.9911 30.3125 16.4411 33.7217L25.5276 42.7006C27.4182 44.5688 30.4219 44.6859 32.4522 42.9705V42.9705C34.044 41.6256 36.2906 41.3759 38.1389 42.3384L39.2981 42.942C42.6036 44.6633 46.6775 43.5294 48.6182 40.3478L51.4974 35.6279C54.2796 31.0671 60.1922 29.5585 64.8194 32.2289L65.3669 32.5448C69.4599 34.907 74.6869 33.7512 77.4166 29.8935V29.8935C81.4674 24.1689 90.209 24.9411 93.1589 31.3033L94.2787 33.7186C96.7782 39.1093 104.21 39.6962 107.525 34.7647L108.957 32.633C110.8 29.8909 114.65 29.4269 117.091 31.6527V31.6527C119.822 34.1416 124.188 33.2219 125.683 29.8432L138 2" stroke="#319BE2" stroke-width="3" stroke-linecap="round"/>
</svg>
