<svg width="95" height="20" viewBox="0 0 95 20" fill="none" xmlns="http://www.w3.org/2000/svg">
<path d="M32.6166 15.0797C33.3908 15.0797 34.0194 14.9951 34.5024 14.8258C35.4185 14.5014 35.8768 13.8984 35.8768 13.0168C35.8768 12.5019 35.6495 12.1034 35.195 11.8213C34.7405 11.5462 34.0264 11.3029 33.0534 11.0913L31.3914 10.721C29.7577 10.3543 28.6284 9.95577 28.0033 9.52554C26.945 8.80614 26.4158 7.6812 26.4158 6.1507C26.4158 4.75424 26.9272 3.59404 27.95 2.67008C28.9728 1.74615 30.4751 1.28418 32.4568 1.28418C34.1117 1.28418 35.5216 1.72146 36.6864 2.59603C37.8583 3.46354 38.473 4.726 38.5297 6.38347H35.3759C35.3192 5.44544 34.9073 4.7789 34.1402 4.38394C33.6287 4.123 32.993 3.9925 32.233 3.9925C31.3878 3.9925 30.713 4.16177 30.2087 4.50034C29.7044 4.83887 29.4523 5.3114 29.4523 5.91797C29.4523 6.47514 29.7009 6.89127 30.1981 7.16634C30.5177 7.3497 31.1996 7.56484 32.2437 7.81167L34.9499 8.45704C36.1359 8.73914 37.0309 9.11647 37.6348 9.58904C38.5723 10.3225 39.041 11.384 39.041 12.7734C39.041 14.1981 38.4904 15.383 37.3897 16.3281C36.2957 17.2662 34.7475 17.7352 32.7444 17.7352C30.6988 17.7352 29.09 17.2732 27.9181 16.3493C26.7461 15.4183 26.1601 14.1417 26.1601 12.5195H29.2925C29.3919 13.2319 29.5872 13.7644 29.8784 14.117C30.4112 14.7588 31.3239 15.0797 32.6166 15.0797Z" fill="white"/>
<path d="M56.7482 1.73926H60.083L55.6616 17.3333H52.5293L50.633 8.21387L50.0788 5.19873L49.5249 8.21387L47.6282 17.3333H44.5812L40.1279 1.73926H43.6117L45.6893 10.6683L46.1368 13.1545L46.595 10.7212L48.3634 1.73926H51.826L53.6904 10.6683L54.1701 13.1545L54.6495 10.7635L56.7482 1.73926Z" fill="white"/>
<path d="M61.8198 1.73926H65.08V17.3333H61.8198V1.73926Z" fill="white"/>
<path d="M73.8482 15.0797C74.6227 15.0797 75.2511 14.9951 75.7341 14.8258C76.6502 14.5014 77.1085 13.8984 77.1085 13.0168C77.1085 12.5019 76.8812 12.1034 76.4267 11.8213C75.9721 11.5462 75.2581 11.3029 74.2853 11.0913L72.623 10.721C70.9895 10.3543 69.8603 9.95577 69.2352 9.52554C68.1768 8.80614 67.6477 7.6812 67.6477 6.1507C67.6477 4.75424 68.159 3.59404 69.1818 2.67008C70.2047 1.74615 71.7069 1.28418 73.6885 1.28418C75.3434 1.28418 76.7533 1.72146 77.9181 2.59603C79.09 3.46354 79.7047 4.726 79.7614 6.38347H76.6076C76.5509 5.44544 76.139 4.7789 75.3719 4.38394C74.8603 4.123 74.2249 3.9925 73.4649 3.9925C72.6196 3.9925 71.9449 4.16177 71.4403 4.50034C70.9361 4.83887 70.684 5.3114 70.684 5.91797C70.684 6.47514 70.9328 6.89127 71.4299 7.16634C71.7495 7.3497 72.4313 7.56484 73.4753 7.81167L76.1816 8.45704C77.3676 8.73914 78.2626 9.11647 78.8665 9.58904C79.804 10.3225 80.2727 11.384 80.2727 12.7734C80.2727 14.1981 79.7225 15.383 78.6214 16.3281C77.5277 17.2662 75.9792 17.7352 73.9761 17.7352C71.9305 17.7352 70.3218 17.2732 69.1499 16.3493C67.9777 15.4183 67.3919 14.1417 67.3919 12.5195H70.5242C70.6236 13.2319 70.819 13.7644 71.11 14.117C71.6428 14.7588 72.5555 15.0797 73.8482 15.0797Z" fill="white"/>
<path d="M88.402 15.0797C89.1761 15.0797 89.8049 14.9951 90.2876 14.8258C91.204 14.5014 91.6622 13.8984 91.6622 13.0168C91.6622 12.5019 91.435 12.1034 90.9801 11.8213C90.5256 11.5462 89.8119 11.3029 88.8387 11.0913L87.1768 10.721C85.543 10.3543 84.4137 9.95577 83.7886 9.52554C82.7302 8.80614 82.2012 7.6812 82.2012 6.1507C82.2012 4.75424 82.7124 3.59404 83.7353 2.67008C84.7581 1.74615 86.2603 1.28418 88.2422 1.28418C89.8972 1.28418 91.3071 1.72146 92.4719 2.59603C93.6438 3.46354 94.2581 4.726 94.3149 6.38347H91.1614C91.1047 5.44544 90.6924 4.7789 89.9254 4.38394C89.4141 4.123 88.7783 3.9925 88.0183 3.9925C87.1731 3.9925 86.4983 4.16177 85.9941 4.50034C85.4899 4.83887 85.2375 5.3114 85.2375 5.91797C85.2375 6.47514 85.4862 6.89127 85.9834 7.16634C86.303 7.3497 86.9851 7.56484 88.0291 7.81167L90.7351 8.45704C91.9214 8.73914 92.8163 9.11647 93.4199 9.58904C94.3575 10.3225 94.8264 11.384 94.8264 12.7734C94.8264 14.1981 94.2759 15.383 93.1748 16.3281C92.0812 17.2662 90.5326 17.7352 88.5299 17.7352C86.4842 17.7352 84.8753 17.2732 83.7034 16.3493C82.5315 15.4183 81.9454 14.1417 81.9454 12.5195H85.0777C85.1774 13.2319 85.3724 13.7644 85.6638 14.117C86.1965 14.7588 87.1093 15.0797 88.402 15.0797Z" fill="white"/>
<path d="M0 0H20.1413V20H0V0Z" fill="#EA3324"/>
<path fill-rule="evenodd" clip-rule="evenodd" d="M10.0707 7.64299L6.5102 4.10742L4.13651 6.46446L7.69702 9.99999L4.13651 13.5355L6.5102 15.8926L10.0707 12.357L13.6312 15.8926L16.0049 13.5355L12.4444 9.99999L16.0049 6.46446L13.6312 4.10746L10.0707 7.64299Z" fill="white"/>
</svg>
