<svg width="24" height="24" viewBox="0 0 24 24" fill="none" xmlns="http://www.w3.org/2000/svg">
<path fill-rule="evenodd" clip-rule="evenodd" d="M14.7804 2.46963L20.024 7.71327C20.1691 7.85414 20.2509 8.04778 20.2507 8.25C20.2507 8.25264 20.2505 8.25522 20.2504 8.25781L20.25 8.26451V20.25C20.2491 21.078 19.578 21.7491 18.75 21.75H5.24927C4.42123 21.7491 3.75021 21.078 3.74927 20.25V3.75C3.75021 2.92197 4.42123 2.25095 5.24927 2.25H14.25C14.275 2.25 14.3 2.25127 14.3249 2.2538C14.3419 2.25546 14.3585 2.25834 14.3751 2.26123L14.3751 2.26124L14.3773 2.26163L14.3861 2.2629L14.3861 2.2629C14.39 2.26342 14.3939 2.26393 14.3977 2.26469C14.4187 2.2689 14.4393 2.27435 14.4596 2.28025L14.4638 2.28134L14.4686 2.28259C14.4891 2.28882 14.5091 2.29623 14.5289 2.30415L14.5328 2.3056L14.5376 2.30736C14.556 2.315 14.5737 2.3237 14.5913 2.33276L14.5972 2.33555L14.5972 2.33555C14.5995 2.33662 14.6018 2.33768 14.6041 2.3389C14.6197 2.34727 14.6346 2.35661 14.6494 2.366L14.6571 2.37062C14.6606 2.37262 14.664 2.37463 14.6673 2.37685C14.6782 2.38421 14.6886 2.39222 14.6991 2.40022L14.6991 2.40023L14.7045 2.4044L14.7133 2.41091C14.7177 2.4141 14.7221 2.41729 14.7263 2.42075C14.7341 2.42716 14.7415 2.43404 14.7489 2.44093L14.7489 2.44093L14.7489 2.44095L14.7569 2.44839L14.7657 2.45619C14.7707 2.46055 14.7756 2.46491 14.7804 2.46963ZM7 17.5H17C17.4142 17.5 17.75 17.1642 17.75 16.75C17.75 16.3358 17.4142 16 17 16H7C6.58579 16 6.25 16.3358 6.25 16.75C6.25 17.1642 6.58579 17.5 7 17.5ZM17 13.5H7C6.58579 13.5 6.25 13.1642 6.25 12.75C6.25 12.3358 6.58579 12 7 12H17C17.4142 12 17.75 12.3358 17.75 12.75C17.75 13.1642 17.4142 13.5 17 13.5ZM7 9.5H11C11.4142 9.5 11.75 9.16421 11.75 8.75C11.75 8.33579 11.4142 8 11 8H7C6.58579 8 6.25 8.33579 6.25 8.75C6.25 9.16421 6.58579 9.5 7 9.5Z" fill="white"/>
</svg>
