<svg width="23" height="21" viewBox="0 0 23 21" fill="none" xmlns="http://www.w3.org/2000/svg">
<path fill-rule="evenodd" clip-rule="evenodd" d="M6.99988 14.0991L7.0814 14.0305L16.9016 14.0042C17.5226 14.0034 18.0258 13.5002 18.0266 12.8792V7H20.9015C21.5225 7.00081 22.0257 7.50401 22.0265 8.125V19.0462C22.029 19.4845 21.7745 19.8836 21.3761 20.0663C21.2265 20.1362 21.0634 20.1726 20.8982 20.1729C20.6341 20.1725 20.3788 20.0785 20.1775 19.9076L17.9451 18.0305L8.12488 18.0042C7.50389 18.0034 7.00069 17.5002 6.99988 16.8792V14.0991Z" fill="white"/>
<path fill-rule="evenodd" clip-rule="evenodd" d="M1.12499 0H14.9016C15.5226 0.000807258 16.0258 0.504014 16.0266 1.125V10.8792C16.0258 11.5002 15.5226 12.0034 14.9016 12.0042L4.08141 12.0305L1.84899 13.9076C1.64771 14.0785 1.39234 14.1725 1.12828 14.1729C0.963118 14.1726 0.800007 14.1362 0.650378 14.0663C0.25197 13.8836 -0.00249608 13.4845 -1.25008e-05 13.0462V1.125C0.000795143 0.504014 0.504002 0.000807644 1.12499 0ZM3.99988 7C4.55217 7 4.99988 6.55228 4.99988 6C4.99988 5.44772 4.55217 5 3.99988 5C3.4476 5 2.99988 5.44772 2.99988 6C2.99988 6.55228 3.4476 7 3.99988 7ZM8.99988 6C8.99988 6.55228 8.55217 7 7.99988 7C7.4476 7 6.99988 6.55228 6.99988 6C6.99988 5.44772 7.4476 5 7.99988 5C8.55217 5 8.99988 5.44772 8.99988 6ZM11.9999 7C12.5522 7 12.9999 6.55228 12.9999 6C12.9999 5.44772 12.5522 5 11.9999 5C11.4476 5 10.9999 5.44772 10.9999 6C10.9999 6.55228 11.4476 7 11.9999 7Z" fill="white"/>
</svg>
