<svg width="30" height="30" viewBox="0 0 30 30" fill="none" xmlns="http://www.w3.org/2000/svg">
<path opacity="0.5" fill-rule="evenodd" clip-rule="evenodd" d="M4.75 15.0002C4.75 9.33996 9.33972 4.75024 15 4.75024C20.661 4.75024 25.25 9.33963 25.25 15.0002C25.25 20.6609 20.661 25.2502 15 25.2502C9.33972 25.2502 4.75 20.6605 4.75 15.0002ZM23.25 15.0002C23.25 10.4442 19.5564 6.75024 15 6.75024C10.4443 6.75024 6.75 10.4445 6.75 15.0002C6.75 19.556 10.4443 23.2502 15 23.2502C19.5564 23.2502 23.25 19.5563 23.25 15.0002ZM14.9951 10.2043C15.5079 10.2043 15.9306 10.5904 15.9884 11.0877L15.9951 11.2043V15.6233C15.9951 16.1756 15.5474 16.6233 14.9951 16.6233C14.4823 16.6233 14.0596 16.2373 14.0018 15.74L13.9951 15.6233V11.2043C13.9951 10.6521 14.4428 10.2043 14.9951 10.2043ZM15.9884 19.5067C15.9306 19.0094 15.5079 18.6233 14.9951 18.6233C14.4428 18.6233 13.9951 19.0711 13.9951 19.6233L14.0018 19.74C14.0596 20.2373 14.4823 20.6233 14.9951 20.6233C15.5474 20.6233 15.9951 20.1756 15.9951 19.6233L15.9884 19.5067Z" fill="white"/>
</svg>
