<svg width="30" height="30" viewBox="0 0 30 30" fill="none" xmlns="http://www.w3.org/2000/svg">
<path d="M9.25962 17.8532C11.0599 17.8532 12.5192 16.3938 12.5192 14.5936C12.5192 12.7934 11.0599 11.334 9.25962 11.334C7.45938 11.334 6 12.7934 6 14.5936C6 16.3938 7.45938 17.8532 9.25962 17.8532Z" stroke="#8D8DA3" stroke-width="2" stroke-linecap="round" stroke-linejoin="round"/>
<path d="M20.6678 25.1877C22.4681 25.1877 23.9274 23.7283 23.9274 21.9281C23.9274 20.1278 22.4681 18.6685 20.6678 18.6685C18.8676 18.6685 17.4082 20.1278 17.4082 21.9281C17.4082 23.7283 18.8676 25.1877 20.6678 25.1877Z" stroke="#8D8DA3" stroke-width="2" stroke-linecap="round" stroke-linejoin="round"/>
<path d="M20.6678 10.5192C22.4681 10.5192 23.9274 9.05985 23.9274 7.25962C23.9274 5.45938 22.4681 4 20.6678 4C18.8676 4 17.4082 5.45938 17.4082 7.25962C17.4082 9.05985 18.8676 10.5192 20.6678 10.5192Z" stroke="#8D8DA3" stroke-width="2" stroke-linecap="round" stroke-linejoin="round"/>
<path d="M17.9284 9.02197L12 12.8316" stroke="#8D8DA3" stroke-width="2" stroke-linecap="round" stroke-linejoin="round"/>
<path d="M12 16.356L17.9284 20.1656" stroke="#8D8DA3" stroke-width="2" stroke-linecap="round" stroke-linejoin="round"/>
</svg>
