<svg width="22" height="22" viewBox="0 0 22 22" fill="none" xmlns="http://www.w3.org/2000/svg">
<path fill-rule="evenodd" clip-rule="evenodd" d="M6.19904 0.285728H15.8006C19.0615 0.285728 21.7143 2.93866 21.7142 6.19923V15.8007C21.7142 19.0615 19.0615 21.7142 15.8006 21.7142H6.19904C2.93838 21.7142 0.285704 19.0615 0.285704 15.8007V6.19923C0.285704 2.93866 2.93838 0.285728 6.19904 0.285728ZM15.8007 19.8132C18.0132 19.8132 19.8131 18.0134 19.8131 15.8007H19.8129V6.19923C19.8129 3.98684 18.013 2.18701 15.8006 2.18701H6.19904C3.98672 2.18701 2.18694 3.98684 2.18694 6.19923V15.8007C2.18694 18.0134 3.98672 19.8132 6.19904 19.8132H15.8007ZM5.47832 11.0004C5.47832 7.95562 7.95526 5.47868 11 5.47868C14.0446 5.47868 16.5215 7.95562 16.5215 11.0004C16.5215 14.0449 14.0446 16.5215 11 16.5215C7.95526 16.5215 5.47832 14.0449 5.47832 11.0004ZM7.37955 11.0001C7.37955 12.9964 9.00378 14.6202 11 14.6202C12.9961 14.6202 14.6203 12.9964 14.6203 11.0001C14.6203 9.0038 12.9963 7.3797 11 7.3797C9.00361 7.3797 7.37955 9.0038 7.37955 11.0001ZM15.7683 4.27467C16.027 4.01487 16.3868 3.86662 16.7531 3.86662C17.1207 3.86662 17.4807 4.01487 17.7392 4.27467C17.999 4.53308 18.1473 4.89322 18.1473 5.26064C18.1473 5.62693 17.999 5.98707 17.7392 6.24687C17.4794 6.50554 17.1207 6.65494 16.7531 6.65494C16.3868 6.65494 16.0268 6.50554 15.7683 6.24687C15.5084 5.98707 15.3589 5.62722 15.3589 5.26064C15.3589 4.89322 15.5083 4.53308 15.7683 4.27467Z" fill="#319BE2"/>
</svg>
