<svg width="24" height="23" viewBox="0 0 24 23" fill="none" xmlns="http://www.w3.org/2000/svg">
<path fill-rule="evenodd" clip-rule="evenodd" d="M11.5174 9.2505C12.1498 9.2505 12.645 9.04925 13.0074 8.76313C13.3674 8.47558 13.5474 8.08432 13.5474 7.58183V4.5494C13.5474 4.10292 13.3637 3.7341 12.9974 3.45048C12.6286 3.16658 12.1573 3.0256 11.5799 3.0256C10.9487 3.0256 10.4436 3.1593 10.0699 3.42807C9.69489 3.69795 9.5073 4.0581 9.5073 4.51435V7.5566C9.5073 8.05657 9.6898 8.45175 10.0548 8.74798C10.4197 9.04423 10.9087 9.2505 11.5174 9.2505ZM10.8562 4.66178C10.8562 4.54688 10.9162 4.45437 11.035 4.38067C11.155 4.30947 11.31 4.27445 11.5001 4.27445C11.7075 4.27445 11.875 4.30947 12.0014 4.38067C12.1289 4.45437 12.1914 4.54688 12.1914 4.66178V7.54425C12.1914 7.68692 12.1289 7.7993 12.0038 7.88058C11.8789 7.96072 11.7114 8.00193 11.5001 8.00193C11.2938 8.00193 11.1338 7.96325 11.0225 7.88198C10.9125 7.80295 10.8562 7.69055 10.8562 7.54425V4.66178ZM15.7025 9.24685C15.9249 9.24685 16.1512 9.11933 16.3863 8.9918C16.6239 8.86178 16.85 8.67175 17.0676 8.42428V9.09803H18.2489V3.01665H17.0676V7.6331C16.9577 7.76427 16.8351 7.873 16.7039 7.95932C16.5701 8.04425 16.4601 8.08797 16.3739 8.08797C16.2627 8.08797 16.1814 8.05685 16.1339 7.99072C16.084 7.92682 16.0565 7.82312 16.0565 7.68048V3.01805H14.8777V8.09945C14.8777 8.46183 14.9489 8.73312 15.0852 8.91305C15.2237 9.09437 15.4286 9.24685 15.7025 9.24685ZM19.1375 11.7608H4.86232C2.59234 11.7608 0.753518 13.5295 0.753518 15.7083V19.0459C0.753518 21.2258 2.59234 22.9945 4.86232 22.9945H19.1374C21.4061 22.9945 23.2462 21.2258 23.2462 19.0459V15.7083C23.2464 13.5292 21.4063 11.7608 19.1375 11.7608ZM6.98603 15.1483H5.72365V20.3757H4.50243V15.1483H3.23987V14.2568H6.98621C6.98603 14.2568 6.98603 15.1483 6.98603 15.1483ZM10.7537 20.4483H9.43744V19.9057C9.19244 20.1059 8.9412 20.2594 8.67616 20.362C8.41489 20.4696 8.15988 20.5206 7.91246 20.5206C7.60756 20.5206 7.37998 20.4469 7.22494 20.2984C7.0724 20.1521 6.99373 19.9321 6.99373 19.6384V15.5107H8.31V19.297C8.31 19.4147 8.33746 19.4971 8.39003 19.5495C8.44762 19.6033 8.53872 19.6269 8.66139 19.6269C8.75637 19.6269 8.88135 19.5932 9.02882 19.5232C9.17752 19.4545 9.31386 19.3671 9.43754 19.2583V15.5096H10.7538C10.7537 15.5096 10.7537 20.4483 10.7537 20.4483ZM15.7361 19.5083C15.7361 19.832 15.6335 20.0781 15.4299 20.2521C15.2286 20.4256 14.9312 20.5108 14.5475 20.5108C14.2913 20.5108 14.0637 20.4783 13.8661 20.4119C13.6674 20.3457 13.4799 20.2432 13.3099 20.1019V20.452H11.9962V14.2568H13.3099V16.2531C13.4874 16.1158 13.6736 16.0082 13.8674 15.9358C14.0661 15.8621 14.2661 15.8271 14.4674 15.8271C14.8787 15.8271 15.1924 15.9232 15.4086 16.1169C15.6273 16.3119 15.7361 16.5984 15.7361 16.972V19.5083ZM20.7437 18.1143H18.3188V19.0069C18.3188 19.2558 18.3587 19.4282 18.4425 19.5257C18.5275 19.6218 18.6712 19.6695 18.8725 19.6695C19.085 19.6695 19.2301 19.6283 19.315 19.547C19.3975 19.4643 19.4426 19.2855 19.4426 19.0058V18.7906H20.7464V19.0333C20.7464 19.5181 20.5901 19.8833 20.2676 20.1294C19.9501 20.3743 19.475 20.4968 18.8438 20.4968C18.2751 20.4968 17.8276 20.3668 17.5014 20.107C17.1764 19.8494 17.0113 19.4896 17.0113 19.0344V16.9069C17.0113 16.4981 17.1913 16.1606 17.5514 15.9019C17.9101 15.6444 18.3701 15.5157 18.9388 15.5157C19.5188 15.5157 19.9651 15.6357 20.2776 15.8745C20.5888 16.1133 20.7439 16.458 20.7439 16.9058C20.7437 16.9058 20.7437 18.1143 20.7437 18.1143ZM6.27867 9.2645H7.76993V5.63065L9.50621 0.5055H7.98992L7.06733 4.0082H6.97235L6.00487 0.5055H4.50108L6.27849 5.7943C6.27867 5.7943 6.27867 9.2645 6.27867 9.2645ZM13.8536 16.5518L13.5774 16.597L13.3087 16.7357V19.5832C13.4137 19.6569 13.5174 19.7132 13.6175 19.7443L13.9312 19.7931C14.0912 19.7931 14.2075 19.762 14.2824 19.6956C14.3562 19.6319 14.3949 19.5268 14.3949 19.3831V17.0219C14.3949 16.8658 14.3511 16.7494 14.2587 16.6707C14.1637 16.5919 14.0299 16.5518 13.8536 16.5518Z" fill="#319BE2"/>
</svg>
